<?xml version="1.0" encoding="utf-8" standalone="no"?>
<!DOCTYPE svg PUBLIC "-//W3C//DTD SVG 1.1//EN"
  "http://www.w3.org/Graphics/SVG/1.1/DTD/svg11.dtd">
<svg xmlns:xlink="http://www.w3.org/1999/xlink" width="720pt" height="432pt" viewBox="0 0 720 432" xmlns="http://www.w3.org/2000/svg" version="1.1">
 <metadata>
  <rdf:RDF xmlns:dc="http://purl.org/dc/elements/1.1/" xmlns:cc="http://creativecommons.org/ns#" xmlns:rdf="http://www.w3.org/1999/02/22-rdf-syntax-ns#">
   <cc:Work>
    <dc:type rdf:resource="http://purl.org/dc/dcmitype/StillImage"/>
    <dc:date>2024-12-18T14:11:02.015859</dc:date>
    <dc:format>image/svg+xml</dc:format>
    <dc:creator>
     <cc:Agent>
      <dc:title>Matplotlib v3.9.3, https://matplotlib.org/</dc:title>
     </cc:Agent>
    </dc:creator>
   </cc:Work>
  </rdf:RDF>
 </metadata>
 <defs>
  <style type="text/css">*{stroke-linejoin: round; stroke-linecap: butt}</style>
 </defs>
 <g id="figure_1">
  <g id="patch_1">
   <path d="M 0 432 
L 720 432 
L 720 0 
L 0 0 
z
" style="fill: #ffffff"/>
  </g>
  <g id="axes_1">
   <g id="patch_2">
    <path d="M 47.72 350.409509 
L 709.2 350.409509 
L 709.2 26.88 
L 47.72 26.88 
z
" style="fill: #ffffff"/>
   </g>
   <g id="PolyCollection_1">
    <defs>
     <path id="mdd611772c0" d="M 77.787273 -376.509686 
L 77.787273 -304.245712 
L 78.992374 -305.544409 
L 80.197475 -306.772175 
L 81.402576 -307.930124 
L 82.607677 -309.019374 
L 83.812778 -310.04104 
L 85.017879 -310.996237 
L 86.222981 -311.886081 
L 87.428082 -312.711688 
L 88.633183 -313.474174 
L 89.838284 -314.174655 
L 91.043385 -314.814246 
L 92.248486 -315.394063 
L 93.453587 -315.915222 
L 94.658688 -316.378838 
L 95.863789 -316.786028 
L 97.068891 -317.137907 
L 98.273992 -317.435591 
L 99.479093 -317.680196 
L 100.684194 -317.872838 
L 101.889295 -318.014631 
L 103.094396 -318.106693 
L 104.299497 -318.150139 
L 105.504598 -318.146084 
L 106.709699 -318.095644 
L 107.914801 -317.999936 
L 109.119902 -317.860074 
L 110.325003 -317.677176 
L 111.530104 -317.452355 
L 112.735205 -317.186729 
L 113.940306 -316.881413 
L 115.145407 -316.537523 
L 116.350508 -316.156174 
L 117.555609 -315.738483 
L 118.760711 -315.285565 
L 119.965812 -314.798535 
L 121.170913 -314.27851 
L 122.376014 -313.726606 
L 123.581115 -313.143938 
L 124.786216 -312.531621 
L 125.991317 -311.890773 
L 127.196418 -311.222508 
L 128.401519 -310.527942 
L 129.606621 -309.808191 
L 130.811722 -309.064371 
L 132.016823 -308.297598 
L 133.221924 -307.508987 
L 134.427025 -306.699654 
L 135.632126 -305.870715 
L 136.837227 -305.023285 
L 138.042328 -304.150674 
L 139.247429 -303.191538 
L 140.452531 -302.217258 
L 141.657632 -301.228952 
L 142.862733 -300.227733 
L 144.067834 -299.21472 
L 145.272935 -298.191026 
L 146.478036 -297.157768 
L 147.683137 -296.116062 
L 148.888238 -295.067023 
L 150.093339 -294.011767 
L 151.298441 -292.95141 
L 152.503542 -291.887068 
L 153.708643 -290.819856 
L 154.913744 -289.750891 
L 156.118845 -288.681288 
L 157.323946 -287.612162 
L 158.529047 -286.54463 
L 159.734148 -285.479807 
L 160.939249 -284.41881 
L 162.144351 -283.362753 
L 163.349452 -282.312753 
L 164.554553 -281.269925 
L 165.759654 -280.235386 
L 166.964755 -279.21025 
L 168.169856 -278.195634 
L 169.374957 -277.192654 
L 170.580058 -276.202425 
L 171.785159 -275.226063 
L 172.990261 -274.264684 
L 174.195362 -273.319403 
L 175.400463 -272.391337 
L 176.605564 -271.481601 
L 177.810665 -270.591311 
L 179.015766 -269.721583 
L 180.220867 -268.873532 
L 181.425968 -268.048274 
L 182.631069 -267.246925 
L 183.836171 -266.470601 
L 185.041272 -265.720417 
L 186.246373 -264.99749 
L 187.451474 -264.302935 
L 188.656575 -263.637868 
L 189.861676 -263.003404 
L 191.066777 -262.40066 
L 192.271878 -261.830751 
L 193.476979 -261.294793 
L 194.682081 -260.793902 
L 195.887182 -260.329193 
L 197.092283 -259.901782 
L 198.297384 -259.528397 
L 199.502485 -259.256213 
L 200.707586 -259.021365 
L 201.912687 -258.822212 
L 203.117788 -258.65711 
L 204.322889 -258.524418 
L 205.527991 -258.422494 
L 206.733092 -258.349696 
L 207.938193 -258.304381 
L 209.143294 -258.284907 
L 210.348395 -258.289633 
L 211.553496 -258.316916 
L 212.758597 -258.365115 
L 213.963698 -258.432586 
L 215.168799 -258.517688 
L 216.373901 -258.618779 
L 217.579002 -258.734217 
L 218.784103 -258.86236 
L 219.989204 -259.001565 
L 221.194305 -259.150191 
L 222.399406 -259.306595 
L 223.604507 -259.469135 
L 224.809608 -259.63617 
L 226.014709 -259.806056 
L 227.219811 -259.977153 
L 228.424912 -260.147817 
L 229.630013 -260.316408 
L 230.835114 -260.481282 
L 232.040215 -260.640797 
L 233.245316 -260.793312 
L 234.450417 -260.937185 
L 235.655518 -261.070772 
L 236.860619 -261.192433 
L 238.065721 -261.300525 
L 239.270822 -261.393407 
L 240.475923 -261.469435 
L 241.681024 -261.526967 
L 242.886125 -261.564363 
L 244.091226 -261.579979 
L 245.296327 -261.572174 
L 246.501428 -261.539305 
L 247.706529 -261.47973 
L 248.911631 -261.391808 
L 250.116732 -261.273896 
L 251.321833 -261.124352 
L 252.526934 -260.941534 
L 253.732035 -260.723799 
L 254.937136 -260.469507 
L 256.142237 -260.177014 
L 257.347338 -259.844679 
L 258.552439 -259.470868 
L 259.757541 -259.054708 
L 260.962642 -258.596605 
L 262.167743 -258.09709 
L 263.372844 -257.556696 
L 264.577945 -256.975955 
L 265.783046 -256.355397 
L 266.988147 -255.695554 
L 268.193248 -254.996959 
L 269.398349 -254.260142 
L 270.603451 -253.485636 
L 271.808552 -252.673972 
L 273.013653 -251.825682 
L 274.218754 -250.941298 
L 275.423855 -250.02135 
L 276.628956 -249.066371 
L 277.834057 -248.076893 
L 279.039158 -247.053447 
L 280.244259 -245.996565 
L 281.449361 -244.906778 
L 282.654462 -243.784618 
L 283.859563 -242.630617 
L 285.064664 -241.445307 
L 286.269765 -240.229219 
L 287.474866 -238.982884 
L 288.679967 -237.706835 
L 289.885068 -236.401603 
L 291.090169 -235.06772 
L 292.295271 -233.705717 
L 293.500372 -232.316127 
L 294.705473 -230.89948 
L 295.910574 -229.456309 
L 297.115675 -227.987144 
L 298.320776 -226.492519 
L 299.525877 -224.972964 
L 300.730978 -223.429011 
L 301.936079 -221.861192 
L 303.141181 -220.270038 
L 304.346282 -218.656082 
L 305.551383 -217.019854 
L 306.756484 -215.361887 
L 307.961585 -213.682711 
L 309.166686 -211.98286 
L 310.371787 -210.262864 
L 311.576888 -208.523255 
L 312.781989 -206.764565 
L 313.987091 -204.987325 
L 315.192192 -203.192068 
L 316.397293 -201.379324 
L 317.602394 -199.549625 
L 318.807495 -197.801735 
L 320.012596 -196.185698 
L 321.217697 -194.555635 
L 322.422798 -192.913029 
L 323.627899 -191.259364 
L 324.833001 -189.596125 
L 326.038102 -187.924793 
L 327.243203 -186.246855 
L 328.448304 -184.563792 
L 329.653405 -182.87709 
L 330.858506 -181.188232 
L 332.063607 -179.498702 
L 333.268708 -177.809983 
L 334.473809 -176.12356 
L 335.678911 -174.440915 
L 336.884012 -172.763534 
L 338.089113 -171.0929 
L 339.294214 -169.430497 
L 340.499315 -167.777808 
L 341.704416 -166.136317 
L 342.909517 -164.507508 
L 344.114618 -162.892866 
L 345.319719 -161.293873 
L 346.524821 -159.712013 
L 347.729922 -158.148771 
L 348.935023 -156.605631 
L 350.140124 -155.084075 
L 351.345225 -153.585588 
L 352.550326 -152.111654 
L 353.755427 -150.663756 
L 354.960528 -149.243379 
L 356.165629 -147.852006 
L 357.370731 -146.49112 
L 358.575832 -145.162207 
L 359.780933 -143.866749 
L 360.986034 -142.60623 
L 362.191135 -141.382135 
L 363.396236 -140.195946 
L 364.601337 -139.049149 
L 365.806438 -137.943226 
L 367.011539 -136.879661 
L 368.216641 -135.859939 
L 369.421742 -134.885543 
L 370.626843 -133.957956 
L 371.831944 -133.078664 
L 373.037045 -132.249149 
L 374.242146 -131.470895 
L 375.447247 -130.745387 
L 376.652348 -130.074107 
L 377.857449 -129.458541 
L 379.062551 -128.777332 
L 380.267652 -128.03045 
L 381.472753 -127.339189 
L 382.677854 -126.702 
L 383.882955 -126.117339 
L 385.088056 -125.58366 
L 386.293157 -125.099417 
L 387.498258 -124.663063 
L 388.703359 -124.273053 
L 389.908461 -123.927841 
L 391.113562 -123.62588 
L 392.318663 -123.365625 
L 393.523764 -123.14553 
L 394.728865 -122.964048 
L 395.933966 -122.819635 
L 397.139067 -122.710743 
L 398.344168 -122.635827 
L 399.549269 -122.593342 
L 400.754371 -122.581739 
L 401.959472 -122.599475 
L 403.164573 -122.645003 
L 404.369674 -122.716777 
L 405.574775 -122.813251 
L 406.779876 -122.932879 
L 407.984977 -123.074114 
L 409.190078 -123.235412 
L 410.395179 -123.415226 
L 411.600281 -123.61201 
L 412.805382 -123.824219 
L 414.010483 -124.050305 
L 415.215584 -124.288723 
L 416.420685 -124.537928 
L 417.625786 -124.796373 
L 418.830887 -125.062512 
L 420.035988 -125.334799 
L 421.241089 -125.611689 
L 422.446191 -125.891635 
L 423.651292 -126.173091 
L 424.856393 -126.454512 
L 426.061494 -126.734351 
L 427.266595 -127.011062 
L 428.471696 -127.283099 
L 429.676797 -127.548918 
L 430.881898 -127.80697 
L 432.086999 -128.055711 
L 433.292101 -128.293595 
L 434.497202 -128.519075 
L 435.702303 -128.730605 
L 436.907404 -128.92664 
L 438.112505 -129.105634 
L 439.317606 -129.433087 
L 440.522707 -129.852816 
L 441.727808 -130.253713 
L 442.932909 -130.63601 
L 444.138011 -130.999943 
L 445.343112 -131.345743 
L 446.548213 -131.673645 
L 447.753314 -131.983882 
L 448.958415 -132.276688 
L 450.163516 -132.552295 
L 451.368617 -132.810938 
L 452.573718 -133.052849 
L 453.778819 -133.278263 
L 454.983921 -133.487412 
L 456.189022 -133.68053 
L 457.394123 -133.857851 
L 458.599224 -134.019608 
L 459.804325 -134.166035 
L 461.009426 -134.297364 
L 462.214527 -134.41383 
L 463.419628 -134.515666 
L 464.624729 -134.603105 
L 465.829831 -134.67638 
L 467.034932 -134.735726 
L 468.240033 -134.781376 
L 469.445134 -134.813562 
L 470.650235 -134.83252 
L 471.855336 -134.838481 
L 473.060437 -134.831679 
L 474.265538 -134.812349 
L 475.470639 -134.780722 
L 476.675741 -134.737034 
L 477.880842 -134.681517 
L 479.085943 -134.614404 
L 480.291044 -134.53593 
L 481.496145 -134.446327 
L 482.701246 -134.34583 
L 483.906347 -134.23467 
L 485.111448 -134.113083 
L 486.316549 -133.981301 
L 487.521651 -133.839558 
L 488.726752 -133.688088 
L 489.931853 -133.527123 
L 491.136954 -133.356897 
L 492.342055 -133.177644 
L 493.547156 -132.989597 
L 494.752257 -132.79299 
L 495.957358 -132.588055 
L 497.162459 -132.375027 
L 498.367561 -132.154139 
L 499.572662 -131.925624 
L 500.777763 -131.689717 
L 501.982864 -131.446649 
L 503.187965 -131.196655 
L 504.393066 -130.939968 
L 505.598167 -130.676822 
L 506.803268 -130.40745 
L 508.008369 -130.132086 
L 509.213471 -129.850962 
L 510.418572 -129.564313 
L 511.623673 -129.272372 
L 512.828774 -128.975372 
L 514.033875 -128.673546 
L 515.238976 -128.367129 
L 516.444077 -128.056354 
L 517.649178 -127.741454 
L 518.854279 -127.422662 
L 520.059381 -127.100213 
L 521.264482 -126.774339 
L 522.469583 -126.445273 
L 523.674684 -126.113251 
L 524.879785 -125.778504 
L 526.084886 -125.441266 
L 527.289987 -125.101771 
L 528.495088 -124.760252 
L 529.700189 -124.416943 
L 530.905291 -124.072077 
L 532.110392 -123.725887 
L 533.315493 -123.378608 
L 534.520594 -123.030472 
L 535.725695 -122.681712 
L 536.930796 -122.332563 
L 538.135897 -121.983258 
L 539.340998 -121.63403 
L 540.546099 -121.285113 
L 541.751201 -120.93674 
L 542.956302 -120.589145 
L 544.161403 -120.24256 
L 545.366504 -119.89722 
L 546.571605 -119.553358 
L 547.776706 -119.211208 
L 548.981807 -118.871002 
L 550.186908 -118.532974 
L 551.392009 -118.197359 
L 552.597111 -117.864388 
L 553.802212 -117.534296 
L 555.007313 -117.207316 
L 556.212414 -116.883682 
L 557.417515 -116.563627 
L 558.622616 -116.247384 
L 559.827717 -115.712543 
L 561.032818 -115.12632 
L 562.237919 -114.54461 
L 563.443021 -113.967646 
L 564.648122 -113.395662 
L 565.853223 -112.828891 
L 567.058324 -112.267566 
L 568.263425 -111.711922 
L 569.468526 -111.162191 
L 570.673627 -110.618607 
L 571.878728 -110.081404 
L 573.083829 -109.550814 
L 574.288931 -109.027072 
L 575.494032 -108.51041 
L 576.699133 -108.001063 
L 577.904234 -107.499263 
L 579.109335 -107.005245 
L 580.314436 -106.519241 
L 581.519537 -106.041485 
L 582.724638 -105.57221 
L 583.929739 -105.111651 
L 585.134841 -104.66004 
L 586.339942 -104.21761 
L 587.545043 -103.784596 
L 588.750144 -103.361231 
L 589.955245 -102.947747 
L 591.160346 -102.54438 
L 592.365447 -102.151361 
L 593.570548 -101.768925 
L 594.775649 -101.397305 
L 595.980751 -101.036735 
L 597.185852 -100.687447 
L 598.390953 -100.349676 
L 599.596054 -100.023654 
L 600.801155 -99.709616 
L 602.006256 -99.407794 
L 603.211357 -99.118422 
L 604.416458 -98.841734 
L 605.621559 -98.577963 
L 606.826661 -98.327343 
L 608.031762 -98.090106 
L 609.236863 -97.866487 
L 610.441964 -97.656719 
L 611.647065 -97.461035 
L 612.852166 -97.279669 
L 614.057267 -97.112854 
L 615.262368 -96.960823 
L 616.467469 -96.823811 
L 617.672571 -96.70205 
L 618.877672 -96.595774 
L 620.082773 -96.505217 
L 621.287874 -96.430611 
L 622.492975 -96.372191 
L 623.698076 -96.33019 
L 624.903177 -96.304841 
L 626.108278 -96.296377 
L 627.313379 -96.305033 
L 628.518481 -96.331042 
L 629.723582 -96.374636 
L 630.928683 -96.43605 
L 632.133784 -96.515517 
L 633.338885 -96.61327 
L 634.543986 -96.729543 
L 635.749087 -96.86457 
L 636.954188 -97.018583 
L 638.159289 -97.191816 
L 639.364391 -97.384503 
L 640.569492 -97.596877 
L 641.774593 -97.829172 
L 642.979694 -98.081621 
L 644.184795 -98.354457 
L 645.389896 -98.647914 
L 646.594997 -98.962226 
L 647.800098 -99.297625 
L 649.005199 -99.654345 
L 650.210301 -100.032621 
L 651.415402 -100.432684 
L 652.620503 -100.854769 
L 653.825604 -101.299109 
L 655.030705 -101.765938 
L 656.235806 -102.255488 
L 657.440907 -102.767994 
L 658.646008 -103.303689 
L 659.851109 -103.862807 
L 661.056211 -104.445579 
L 662.261312 -105.052242 
L 663.466413 -105.683027 
L 664.671514 -106.338168 
L 665.876615 -107.017898 
L 667.081716 -107.722452 
L 668.286817 -108.452062 
L 669.491918 -109.206962 
L 670.697019 -109.987385 
L 671.902121 -110.793566 
L 673.107222 -111.625736 
L 674.312323 -112.48413 
L 675.517424 -113.368982 
L 676.722525 -114.280524 
L 677.927626 -115.21899 
L 679.132727 -116.184614 
L 679.132727 -116.184614 
L 679.132727 -116.184614 
L 677.927626 -115.21899 
L 676.722525 -114.280524 
L 675.517424 -113.368982 
L 674.312323 -112.48413 
L 673.107222 -111.625736 
L 671.902121 -110.793566 
L 670.697019 -109.987385 
L 669.491918 -109.206962 
L 668.286817 -108.452062 
L 667.081716 -107.722452 
L 665.876615 -107.017898 
L 664.671514 -106.338168 
L 663.466413 -105.683027 
L 662.261312 -105.052242 
L 661.056211 -104.445579 
L 659.851109 -103.862807 
L 658.646008 -103.303689 
L 657.440907 -102.767994 
L 656.235806 -102.255488 
L 655.030705 -101.765938 
L 653.825604 -101.299109 
L 652.620503 -100.854769 
L 651.415402 -100.432684 
L 650.210301 -100.032621 
L 649.005199 -99.654345 
L 647.800098 -99.297625 
L 646.594997 -98.962226 
L 645.389896 -98.647914 
L 644.184795 -98.354457 
L 642.979694 -98.081621 
L 641.774593 -97.829172 
L 640.569492 -97.596877 
L 639.364391 -97.384503 
L 638.159289 -97.191816 
L 636.954188 -97.018583 
L 635.749087 -96.86457 
L 634.543986 -96.729543 
L 633.338885 -96.61327 
L 632.133784 -96.515517 
L 630.928683 -96.43605 
L 629.723582 -96.374636 
L 628.518481 -96.331042 
L 627.313379 -96.305033 
L 626.108278 -96.296377 
L 624.903177 -96.304841 
L 623.698076 -96.33019 
L 622.492975 -96.372191 
L 621.287874 -96.430611 
L 620.082773 -96.505217 
L 618.877672 -96.595774 
L 617.672571 -96.70205 
L 616.467469 -96.823811 
L 615.262368 -96.960823 
L 614.057267 -97.112854 
L 612.852166 -97.279669 
L 611.647065 -97.461035 
L 610.441964 -97.656719 
L 609.236863 -97.866487 
L 608.031762 -98.090106 
L 606.826661 -98.327343 
L 605.621559 -98.577963 
L 604.416458 -98.841734 
L 603.211357 -99.118422 
L 602.006256 -99.407794 
L 600.801155 -99.709616 
L 599.596054 -100.023654 
L 598.390953 -100.349676 
L 597.185852 -100.687447 
L 595.980751 -101.036735 
L 594.775649 -101.397305 
L 593.570548 -101.768925 
L 592.365447 -102.151361 
L 591.160346 -102.54438 
L 589.955245 -102.947747 
L 588.750144 -103.361231 
L 587.545043 -103.784596 
L 586.339942 -104.21761 
L 585.134841 -104.66004 
L 583.929739 -105.111651 
L 582.724638 -105.57221 
L 581.519537 -106.041485 
L 580.314436 -106.519241 
L 579.109335 -107.005245 
L 577.904234 -107.499263 
L 576.699133 -108.001063 
L 575.494032 -108.51041 
L 574.288931 -109.027072 
L 573.083829 -109.550814 
L 571.878728 -110.081404 
L 570.673627 -110.618607 
L 569.468526 -111.162191 
L 568.263425 -111.711922 
L 567.058324 -112.267566 
L 565.853223 -112.828891 
L 564.648122 -113.395662 
L 563.443021 -113.967646 
L 562.237919 -114.54461 
L 561.032818 -115.12632 
L 559.827717 -115.712543 
L 558.622616 -116.358706 
L 557.417515 -117.23156 
L 556.212414 -118.108226 
L 555.007313 -118.988471 
L 553.802212 -119.872062 
L 552.597111 -120.758764 
L 551.392009 -121.648346 
L 550.186908 -122.540572 
L 548.981807 -123.43521 
L 547.776706 -124.332027 
L 546.571605 -125.230788 
L 545.366504 -126.131261 
L 544.161403 -127.033212 
L 542.956302 -127.936407 
L 541.751201 -128.840614 
L 540.546099 -129.745598 
L 539.340998 -130.651126 
L 538.135897 -131.556964 
L 536.930796 -132.46288 
L 535.725695 -133.36864 
L 534.520594 -134.27401 
L 533.315493 -135.178757 
L 532.110392 -136.082647 
L 530.905291 -136.985448 
L 529.700189 -137.886925 
L 528.495088 -138.786845 
L 527.289987 -139.684974 
L 526.084886 -140.58108 
L 524.879785 -141.474929 
L 523.674684 -142.366286 
L 522.469583 -143.25492 
L 521.264482 -144.140596 
L 520.059381 -145.023081 
L 518.854279 -145.902141 
L 517.649178 -146.777544 
L 516.444077 -147.649055 
L 515.238976 -148.516441 
L 514.033875 -149.379469 
L 512.828774 -150.237905 
L 511.623673 -151.091516 
L 510.418572 -151.940068 
L 509.213471 -152.783328 
L 508.008369 -153.621062 
L 506.803268 -154.453037 
L 505.598167 -155.27902 
L 504.393066 -156.098777 
L 503.187965 -156.912075 
L 501.982864 -157.718679 
L 500.777763 -158.518358 
L 499.572662 -159.310877 
L 498.367561 -160.096002 
L 497.162459 -160.873501 
L 495.957358 -161.64314 
L 494.752257 -162.404685 
L 493.547156 -163.157903 
L 492.342055 -163.902561 
L 491.136954 -164.638425 
L 489.931853 -165.365261 
L 488.726752 -166.082837 
L 487.521651 -166.790919 
L 486.316549 -167.489272 
L 485.111448 -168.177665 
L 483.906347 -168.855863 
L 482.701246 -169.523633 
L 481.496145 -170.180742 
L 480.291044 -170.826955 
L 479.085943 -171.46204 
L 477.880842 -172.085764 
L 476.675741 -172.697892 
L 475.470639 -173.298191 
L 474.265538 -173.886428 
L 473.060437 -174.462369 
L 471.855336 -175.025781 
L 470.650235 -175.576431 
L 469.445134 -176.114085 
L 468.240033 -176.638509 
L 467.034932 -177.14947 
L 465.829831 -177.646735 
L 464.624729 -178.13007 
L 463.419628 -178.599242 
L 462.214527 -179.054017 
L 461.009426 -179.494162 
L 459.804325 -179.919444 
L 458.599224 -180.329628 
L 457.394123 -180.724482 
L 456.189022 -181.103772 
L 454.983921 -181.467264 
L 453.778819 -181.814726 
L 452.573718 -182.145923 
L 451.368617 -182.460622 
L 450.163516 -182.75859 
L 448.958415 -183.039594 
L 447.753314 -183.303399 
L 446.548213 -183.549773 
L 445.343112 -183.778482 
L 444.138011 -183.989292 
L 442.932909 -184.181971 
L 441.727808 -184.356284 
L 440.522707 -184.511998 
L 439.317606 -184.64888 
L 438.112505 -184.655393 
L 436.907404 -184.476399 
L 435.702303 -184.280364 
L 434.497202 -184.068834 
L 433.292101 -183.843354 
L 432.086999 -183.60547 
L 430.881898 -183.356729 
L 429.676797 -183.098677 
L 428.471696 -182.832859 
L 427.266595 -182.560821 
L 426.061494 -182.28411 
L 424.856393 -182.004271 
L 423.651292 -181.72285 
L 422.446191 -181.441394 
L 421.241089 -181.161448 
L 420.035988 -180.884559 
L 418.830887 -180.612271 
L 417.625786 -180.346132 
L 416.420685 -180.087687 
L 415.215584 -179.838483 
L 414.010483 -179.600064 
L 412.805382 -179.373978 
L 411.600281 -179.16177 
L 410.395179 -178.964986 
L 409.190078 -178.785172 
L 407.984977 -178.623874 
L 406.779876 -178.482638 
L 405.574775 -178.36301 
L 404.369674 -178.266536 
L 403.164573 -178.194762 
L 401.959472 -178.149235 
L 400.754371 -178.131499 
L 399.549269 -178.143101 
L 398.344168 -178.185587 
L 397.139067 -178.260502 
L 395.933966 -178.369394 
L 394.728865 -178.513808 
L 393.523764 -178.695289 
L 392.318663 -178.915384 
L 391.113562 -179.175639 
L 389.908461 -179.4776 
L 388.703359 -179.822812 
L 387.498258 -180.212822 
L 386.293157 -180.649176 
L 385.088056 -181.13342 
L 383.882955 -181.667099 
L 382.677854 -182.251759 
L 381.472753 -182.888948 
L 380.267652 -183.58021 
L 379.062551 -184.327091 
L 377.857449 -185.25385 
L 376.652348 -186.360519 
L 375.447247 -187.5229 
L 374.242146 -188.73951 
L 373.037045 -190.008865 
L 371.831944 -191.329481 
L 370.626843 -192.699875 
L 369.421742 -194.118563 
L 368.216641 -195.584061 
L 367.011539 -197.094884 
L 365.806438 -198.64955 
L 364.601337 -200.246575 
L 363.396236 -201.884474 
L 362.191135 -203.561764 
L 360.986034 -205.276961 
L 359.780933 -207.028581 
L 358.575832 -208.815141 
L 357.370731 -210.635156 
L 356.165629 -212.487142 
L 354.960528 -214.369617 
L 353.755427 -216.281096 
L 352.550326 -218.220095 
L 351.345225 -220.185131 
L 350.140124 -222.174719 
L 348.935023 -224.187376 
L 347.729922 -226.221619 
L 346.524821 -228.275962 
L 345.319719 -230.348923 
L 344.114618 -232.439017 
L 342.909517 -234.544761 
L 341.704416 -236.664671 
L 340.499315 -238.797264 
L 339.294214 -240.941054 
L 338.089113 -243.094559 
L 336.884012 -245.256295 
L 335.678911 -247.424777 
L 334.473809 -249.598523 
L 333.268708 -251.776048 
L 332.063607 -253.955868 
L 330.858506 -256.1365 
L 329.653405 -258.31646 
L 328.448304 -260.494263 
L 327.243203 -262.668427 
L 326.038102 -264.837467 
L 324.833001 -266.9999 
L 323.627899 -269.154241 
L 322.422798 -271.299008 
L 321.217697 -273.432715 
L 320.012596 -275.553879 
L 318.807495 -277.661017 
L 317.602394 -279.605349 
L 316.397293 -281.435047 
L 315.192192 -283.247791 
L 313.987091 -285.043049 
L 312.781989 -286.820288 
L 311.576888 -288.578979 
L 310.371787 -290.318587 
L 309.166686 -292.038583 
L 307.961585 -293.738435 
L 306.756484 -295.41761 
L 305.551383 -297.075577 
L 304.346282 -298.711805 
L 303.141181 -300.325762 
L 301.936079 -301.916915 
L 300.730978 -303.484734 
L 299.525877 -305.028687 
L 298.320776 -306.548242 
L 297.115675 -308.042868 
L 295.910574 -309.512032 
L 294.705473 -310.955203 
L 293.500372 -312.37185 
L 292.295271 -313.761441 
L 291.090169 -315.123443 
L 289.885068 -316.457326 
L 288.679967 -317.762558 
L 287.474866 -319.038607 
L 286.269765 -320.284942 
L 285.064664 -321.50103 
L 283.859563 -322.686341 
L 282.654462 -323.840342 
L 281.449361 -324.962501 
L 280.244259 -326.052288 
L 279.039158 -327.10917 
L 277.834057 -328.132617 
L 276.628956 -329.122095 
L 275.423855 -330.077073 
L 274.218754 -330.997021 
L 273.013653 -331.881406 
L 271.808552 -332.729696 
L 270.603451 -333.54136 
L 269.398349 -334.315866 
L 268.193248 -335.052682 
L 266.988147 -335.751278 
L 265.783046 -336.41112 
L 264.577945 -337.031678 
L 263.372844 -337.61242 
L 262.167743 -338.152814 
L 260.962642 -338.652328 
L 259.757541 -339.110431 
L 258.552439 -339.526592 
L 257.347338 -339.900402 
L 256.142237 -340.232737 
L 254.937136 -340.52523 
L 253.732035 -340.779523 
L 252.526934 -340.997257 
L 251.321833 -341.180075 
L 250.116732 -341.329619 
L 248.911631 -341.447532 
L 247.706529 -341.535454 
L 246.501428 -341.595028 
L 245.296327 -341.627897 
L 244.091226 -341.635703 
L 242.886125 -341.620086 
L 241.681024 -341.582691 
L 240.475923 -341.525158 
L 239.270822 -341.44913 
L 238.065721 -341.356249 
L 236.860619 -341.248157 
L 235.655518 -341.126496 
L 234.450417 -340.992908 
L 233.245316 -340.849036 
L 232.040215 -340.696521 
L 230.835114 -340.537005 
L 229.630013 -340.372131 
L 228.424912 -340.203541 
L 227.219811 -340.032876 
L 226.014709 -339.86178 
L 224.809608 -339.691893 
L 223.604507 -339.524859 
L 222.399406 -339.362318 
L 221.194305 -339.205914 
L 219.989204 -339.057289 
L 218.784103 -338.918083 
L 217.579002 -338.789941 
L 216.373901 -338.674503 
L 215.168799 -338.573412 
L 213.963698 -338.488309 
L 212.758597 -338.420838 
L 211.553496 -338.37264 
L 210.348395 -338.345356 
L 209.143294 -338.340631 
L 207.938193 -338.360104 
L 206.733092 -338.405419 
L 205.527991 -338.478217 
L 204.322889 -338.580141 
L 203.117788 -338.712833 
L 201.912687 -338.877935 
L 200.707586 -339.077089 
L 199.502485 -339.311936 
L 198.297384 -339.58412 
L 197.092283 -339.832588 
L 195.887182 -340.103851 
L 194.682081 -340.412413 
L 193.476979 -340.757157 
L 192.271878 -341.136968 
L 191.066777 -341.550729 
L 189.861676 -341.997326 
L 188.656575 -342.475643 
L 187.451474 -342.984563 
L 186.246373 -343.52297 
L 185.041272 -344.08975 
L 183.836171 -344.683787 
L 182.631069 -345.303963 
L 181.425968 -345.949165 
L 180.220867 -346.618275 
L 179.015766 -347.310179 
L 177.810665 -348.02376 
L 176.605564 -348.757903 
L 175.400463 -349.511492 
L 174.195362 -350.283411 
L 172.990261 -351.072544 
L 171.785159 -351.877776 
L 170.580058 -352.697991 
L 169.374957 -353.532072 
L 168.169856 -354.378905 
L 166.964755 -355.237374 
L 165.759654 -356.106362 
L 164.554553 -356.984754 
L 163.349452 -357.871435 
L 162.144351 -358.765288 
L 160.939249 -359.665197 
L 159.734148 -360.570047 
L 158.529047 -361.478723 
L 157.323946 -362.390108 
L 156.118845 -363.303086 
L 154.913744 -364.216542 
L 153.708643 -365.12936 
L 152.503542 -366.040425 
L 151.298441 -366.94862 
L 150.093339 -367.852829 
L 148.888238 -368.751938 
L 147.683137 -369.644829 
L 146.478036 -370.530388 
L 145.272935 -371.407499 
L 144.067834 -372.275045 
L 142.862733 -373.131912 
L 141.657632 -373.976983 
L 140.452531 -374.809142 
L 139.247429 -375.627274 
L 138.042328 -376.430263 
L 136.837227 -377.28726 
L 135.632126 -378.134689 
L 134.427025 -378.963628 
L 133.221924 -379.772961 
L 132.016823 -380.561572 
L 130.811722 -381.328346 
L 129.606621 -382.072166 
L 128.401519 -382.791916 
L 127.196418 -383.486482 
L 125.991317 -384.154747 
L 124.786216 -384.795596 
L 123.581115 -385.407912 
L 122.376014 -385.990581 
L 121.170913 -386.542485 
L 119.965812 -387.06251 
L 118.760711 -387.549539 
L 117.555609 -388.002458 
L 116.350508 -388.420149 
L 115.145407 -388.801498 
L 113.940306 -389.145388 
L 112.735205 -389.450704 
L 111.530104 -389.71633 
L 110.325003 -389.94115 
L 109.119902 -390.124049 
L 107.914801 -390.263911 
L 106.709699 -390.359619 
L 105.504598 -390.410058 
L 104.299497 -390.414113 
L 103.094396 -390.370668 
L 101.889295 -390.278606 
L 100.684194 -390.136812 
L 99.479093 -389.944171 
L 98.273992 -389.699566 
L 97.068891 -389.401882 
L 95.863789 -389.050003 
L 94.658688 -388.642813 
L 93.453587 -388.179196 
L 92.248486 -387.658037 
L 91.043385 -387.07822 
L 89.838284 -386.438629 
L 88.633183 -385.738149 
L 87.428082 -384.975663 
L 86.222981 -384.150056 
L 85.017879 -383.260211 
L 83.812778 -382.305014 
L 82.607677 -381.283349 
L 81.402576 -380.194099 
L 80.197475 -379.036149 
L 78.992374 -377.808384 
L 77.787273 -376.509686 
z
" style="stroke: #0000ff; stroke-opacity: 0.2"/>
    </defs>
    <g clip-path="url(#paa1daf554a)">
     <use xlink:href="#mdd611772c0" x="0" y="432" style="fill: #0000ff; fill-opacity: 0.2; stroke: #0000ff; stroke-opacity: 0.2"/>
    </g>
   </g>
   <g id="PolyCollection_2">
    <defs>
     <path id="m7fa09f1e99" d="M 77.787273 -233.841359 
L 77.787273 -161.577385 
L 78.992374 -162.441063 
L 80.197475 -163.256259 
L 81.402576 -164.023798 
L 82.607677 -164.744503 
L 83.812778 -165.419198 
L 85.017879 -166.048708 
L 86.222981 -166.633856 
L 87.428082 -167.175467 
L 88.633183 -167.674365 
L 89.838284 -168.131374 
L 91.043385 -168.547317 
L 92.248486 -168.923019 
L 93.453587 -169.259304 
L 94.658688 -169.556996 
L 95.863789 -169.816919 
L 97.068891 -170.039897 
L 98.273992 -170.226754 
L 99.479093 -170.378314 
L 100.684194 -170.495402 
L 101.889295 -170.578841 
L 103.094396 -170.629455 
L 104.299497 -170.648069 
L 105.504598 -170.635507 
L 106.709699 -170.592592 
L 107.914801 -170.520148 
L 109.119902 -170.419 
L 110.325003 -170.289972 
L 111.530104 -170.133888 
L 112.735205 -169.951572 
L 113.940306 -169.743848 
L 115.145407 -169.511539 
L 116.350508 -169.255471 
L 117.555609 -168.976467 
L 118.760711 -168.675351 
L 119.965812 -168.352947 
L 121.170913 -168.01008 
L 122.376014 -167.647573 
L 123.581115 -167.26625 
L 124.786216 -166.866936 
L 125.991317 -166.450455 
L 127.196418 -166.01763 
L 128.401519 -165.569286 
L 129.606621 -165.106246 
L 130.811722 -164.629335 
L 132.016823 -164.139378 
L 133.221924 -163.637197 
L 134.427025 -163.123617 
L 135.632126 -162.599462 
L 136.837227 -162.065556 
L 138.042328 -161.529636 
L 139.247429 -161.047826 
L 140.452531 -160.558738 
L 141.657632 -160.063195 
L 142.862733 -159.562021 
L 144.067834 -159.056041 
L 145.272935 -158.546078 
L 146.478036 -158.032957 
L 147.683137 -157.517501 
L 148.888238 -157.000536 
L 150.093339 -156.482884 
L 151.298441 -155.96537 
L 152.503542 -155.448817 
L 153.708643 -154.934051 
L 154.913744 -154.421895 
L 156.118845 -153.913173 
L 157.323946 -153.408709 
L 158.529047 -152.909327 
L 159.734148 -152.415851 
L 160.939249 -151.929106 
L 162.144351 -151.449915 
L 163.349452 -150.979103 
L 164.554553 -150.517493 
L 165.759654 -150.065909 
L 166.964755 -149.625177 
L 168.169856 -149.196118 
L 169.374957 -148.779559 
L 170.580058 -148.376323 
L 171.785159 -147.987233 
L 172.990261 -147.613114 
L 174.195362 -147.25479 
L 175.400463 -146.913086 
L 176.605564 -146.588824 
L 177.810665 -146.28283 
L 179.015766 -145.995927 
L 180.220867 -145.728939 
L 181.425968 -145.48269 
L 182.631069 -145.258005 
L 183.836171 -145.055708 
L 185.041272 -144.876621 
L 186.246373 -144.721571 
L 187.451474 -144.59138 
L 188.656575 -144.486873 
L 189.861676 -144.408874 
L 191.066777 -144.358206 
L 192.271878 -144.335695 
L 193.476979 -144.342163 
L 194.682081 -144.378436 
L 195.887182 -144.445336 
L 197.092283 -144.543689 
L 198.297384 -144.646665 
L 199.502485 -144.671571 
L 200.707586 -144.728012 
L 201.912687 -144.814819 
L 203.117788 -144.930825 
L 204.322889 -145.074862 
L 205.527991 -145.245762 
L 206.733092 -145.442358 
L 207.938193 -145.663482 
L 209.143294 -145.907965 
L 210.348395 -146.174641 
L 211.553496 -146.462341 
L 212.758597 -146.769899 
L 213.963698 -147.096145 
L 215.168799 -147.439913 
L 216.373901 -147.800034 
L 217.579002 -148.175342 
L 218.784103 -148.564667 
L 219.989204 -148.966843 
L 221.194305 -149.380702 
L 222.399406 -149.805075 
L 223.604507 -150.238796 
L 224.809608 -150.680696 
L 226.014709 -151.129609 
L 227.219811 -151.584365 
L 228.424912 -152.043797 
L 229.630013 -152.506738 
L 230.835114 -152.97202 
L 232.040215 -153.438475 
L 233.245316 -153.904936 
L 234.450417 -154.370234 
L 235.655518 -154.833201 
L 236.860619 -155.292672 
L 238.065721 -155.747476 
L 239.270822 -156.196447 
L 240.475923 -156.638418 
L 241.681024 -157.072219 
L 242.886125 -157.496684 
L 244.091226 -157.910645 
L 245.296327 -158.312934 
L 246.501428 -158.702383 
L 247.706529 -159.077824 
L 248.911631 -159.438091 
L 250.116732 -159.782014 
L 251.321833 -160.108427 
L 252.526934 -160.416162 
L 253.732035 -160.70405 
L 254.937136 -160.970925 
L 256.142237 -161.215618 
L 257.347338 -161.436962 
L 258.552439 -161.675269 
L 259.757541 -161.985053 
L 260.962642 -162.269385 
L 262.167743 -162.528176 
L 263.372844 -162.761335 
L 264.577945 -162.968774 
L 265.783046 -163.150402 
L 266.988147 -163.306129 
L 268.193248 -163.435866 
L 269.398349 -163.539522 
L 270.603451 -163.617008 
L 271.808552 -163.668233 
L 273.013653 -163.693108 
L 274.218754 -163.691544 
L 275.423855 -163.663449 
L 276.628956 -163.608734 
L 277.834057 -163.52731 
L 279.039158 -163.419086 
L 280.244259 -163.283972 
L 281.449361 -163.121879 
L 282.654462 -162.932717 
L 283.859563 -162.716395 
L 285.064664 -162.472825 
L 286.269765 -162.201915 
L 287.474866 -161.903577 
L 288.679967 -161.57772 
L 289.885068 -161.224254 
L 291.090169 -160.84309 
L 292.295271 -160.434137 
L 293.500372 -159.997306 
L 294.705473 -159.532507 
L 295.910574 -159.03965 
L 297.115675 -158.518645 
L 298.320776 -157.969402 
L 299.525877 -157.391831 
L 300.730978 -156.785843 
L 301.936079 -156.151347 
L 303.141181 -155.488253 
L 304.346282 -154.796473 
L 305.551383 -154.075915 
L 306.756484 -153.32649 
L 307.961585 -152.548108 
L 309.166686 -151.740679 
L 310.371787 -150.904114 
L 311.576888 -150.038322 
L 312.781989 -149.143213 
L 313.987091 -148.218698 
L 315.192192 -147.264687 
L 316.397293 -146.28109 
L 317.602394 -145.267816 
L 318.807495 -144.459128 
L 320.012596 -143.972792 
L 321.217697 -143.458774 
L 322.422798 -142.918601 
L 323.627899 -142.353801 
L 324.833001 -141.765901 
L 326.038102 -141.156429 
L 327.243203 -140.526912 
L 328.448304 -139.878877 
L 329.653405 -139.213851 
L 330.858506 -138.533361 
L 332.063607 -137.838936 
L 333.268708 -137.132101 
L 334.473809 -136.414385 
L 335.678911 -135.687315 
L 336.884012 -134.952418 
L 338.089113 -134.211222 
L 339.294214 -133.465253 
L 340.499315 -132.716039 
L 341.704416 -131.965107 
L 342.909517 -131.213985 
L 344.114618 -130.464199 
L 345.319719 -129.717278 
L 346.524821 -128.974748 
L 347.729922 -128.238136 
L 348.935023 -127.508971 
L 350.140124 -126.788778 
L 351.345225 -126.079087 
L 352.550326 -125.381423 
L 353.755427 -124.697314 
L 354.960528 -124.028288 
L 356.165629 -123.375871 
L 357.370731 -122.741591 
L 358.575832 -122.126976 
L 359.780933 -121.533552 
L 360.986034 -120.962847 
L 362.191135 -120.416388 
L 363.396236 -119.895703 
L 364.601337 -119.402318 
L 365.806438 -118.937761 
L 367.011539 -118.50356 
L 368.216641 -118.101241 
L 369.421742 -117.732332 
L 370.626843 -117.39836 
L 371.831944 -117.100852 
L 373.037045 -116.841336 
L 374.242146 -116.62134 
L 375.447247 -116.442389 
L 376.652348 -116.306012 
L 377.857449 -116.213736 
L 379.062551 -115.839553 
L 380.267652 -115.183676 
L 381.472753 -114.572544 
L 382.677854 -114.005058 
L 383.882955 -113.480119 
L 385.088056 -112.99663 
L 386.293157 -112.553492 
L 387.498258 -112.149606 
L 388.703359 -111.783876 
L 389.908461 -111.455201 
L 391.113562 -111.162484 
L 392.318663 -110.904627 
L 393.523764 -110.680531 
L 394.728865 -110.489097 
L 395.933966 -110.329229 
L 397.139067 -110.199826 
L 398.344168 -110.099792 
L 399.549269 -110.028027 
L 400.754371 -109.983433 
L 401.959472 -109.964913 
L 403.164573 -109.971367 
L 404.369674 -110.001697 
L 405.574775 -110.054806 
L 406.779876 -110.129594 
L 407.984977 -110.224964 
L 409.190078 -110.339817 
L 410.395179 -110.473055 
L 411.600281 -110.623579 
L 412.805382 -110.790291 
L 414.010483 -110.972093 
L 415.215584 -111.167887 
L 416.420685 -111.376574 
L 417.625786 -111.597056 
L 418.830887 -111.828234 
L 420.035988 -112.069011 
L 421.241089 -112.318288 
L 422.446191 -112.574966 
L 423.651292 -112.837948 
L 424.856393 -113.106135 
L 426.061494 -113.378428 
L 427.266595 -113.65373 
L 428.471696 -113.930942 
L 429.676797 -114.208966 
L 430.881898 -114.486703 
L 432.086999 -114.763056 
L 433.292101 -115.036925 
L 434.497202 -115.307213 
L 435.702303 -115.572821 
L 436.907404 -115.83265 
L 438.112505 -116.085604 
L 439.317606 -116.330626 
L 440.522707 -116.567309 
L 441.727808 -116.795746 
L 442.932909 -117.016042 
L 444.138011 -117.228301 
L 445.343112 -117.432628 
L 446.548213 -117.629128 
L 447.753314 -117.817905 
L 448.958415 -117.999066 
L 450.163516 -118.172713 
L 451.368617 -118.338953 
L 452.573718 -118.497889 
L 453.778819 -118.649627 
L 454.983921 -118.794272 
L 456.189022 -118.931928 
L 457.394123 -119.062701 
L 458.599224 -119.186694 
L 459.804325 -119.304014 
L 461.009426 -119.414764 
L 462.214527 -119.519049 
L 463.419628 -119.616975 
L 464.624729 -119.708646 
L 465.829831 -119.794166 
L 467.034932 -119.873642 
L 468.240033 -119.947176 
L 469.445134 -120.014876 
L 470.650235 -120.076844 
L 471.855336 -120.133186 
L 473.060437 -120.184008 
L 474.265538 -120.229412 
L 475.470639 -120.269505 
L 476.675741 -120.304392 
L 477.880842 -120.334176 
L 479.085943 -120.358963 
L 480.291044 -120.378858 
L 481.496145 -120.393966 
L 482.701246 -120.40439 
L 483.906347 -120.410237 
L 485.111448 -120.411611 
L 486.316549 -120.408616 
L 487.521651 -120.401358 
L 488.726752 -120.389941 
L 489.931853 -120.374471 
L 491.136954 -120.355051 
L 492.342055 -120.331787 
L 493.547156 -120.304784 
L 494.752257 -120.274146 
L 495.957358 -120.239979 
L 497.162459 -120.202386 
L 498.367561 -120.161473 
L 499.572662 -120.117345 
L 500.777763 -120.070107 
L 501.982864 -120.019863 
L 503.187965 -119.966718 
L 504.393066 -119.910776 
L 505.598167 -119.852144 
L 506.803268 -119.790925 
L 508.008369 -119.727225 
L 509.213471 -119.661147 
L 510.418572 -119.592798 
L 511.623673 -119.522281 
L 512.828774 -119.449702 
L 514.033875 -119.375166 
L 515.238976 -119.298776 
L 516.444077 -119.220639 
L 517.649178 -119.140859 
L 518.854279 -119.05954 
L 520.059381 -118.976788 
L 521.264482 -118.892707 
L 522.469583 -118.807402 
L 523.674684 -118.720979 
L 524.879785 -118.633541 
L 526.084886 -118.545193 
L 527.289987 -118.456041 
L 528.495088 -118.366189 
L 529.700189 -118.275742 
L 530.905291 -118.184805 
L 532.110392 -118.093482 
L 533.315493 -118.001879 
L 534.520594 -117.910101 
L 535.725695 -117.818251 
L 536.930796 -117.726435 
L 538.135897 -117.634758 
L 539.340998 -117.543324 
L 540.546099 -117.452239 
L 541.751201 -117.361607 
L 542.956302 -117.271532 
L 544.161403 -117.182121 
L 545.366504 -117.093477 
L 546.571605 -117.005706 
L 547.776706 -116.918911 
L 548.981807 -116.833199 
L 550.186908 -116.748673 
L 551.392009 -116.66544 
L 552.597111 -116.583602 
L 553.802212 -116.503266 
L 555.007313 -116.424536 
L 556.212414 -116.347517 
L 557.417515 -116.272313 
L 558.622616 -116.199031 
L 559.827717 -115.964397 
L 561.032818 -115.691049 
L 562.237919 -115.419936 
L 563.443021 -115.151163 
L 564.648122 -114.884835 
L 565.853223 -114.621056 
L 567.058324 -114.359931 
L 568.263425 -114.101565 
L 569.468526 -113.846063 
L 570.673627 -113.59353 
L 571.878728 -113.34407 
L 573.083829 -113.097788 
L 574.288931 -112.85479 
L 575.494032 -112.615179 
L 576.699133 -112.379061 
L 577.904234 -112.146541 
L 579.109335 -111.917723 
L 580.314436 -111.692712 
L 581.519537 -111.471613 
L 582.724638 -111.254531 
L 583.929739 -111.041571 
L 585.134841 -110.832837 
L 586.339942 -110.628434 
L 587.545043 -110.428467 
L 588.750144 -110.233041 
L 589.955245 -110.042261 
L 591.160346 -109.856231 
L 592.365447 -109.675056 
L 593.570548 -109.498842 
L 594.775649 -109.327693 
L 595.980751 -109.161713 
L 597.185852 -109.001008 
L 598.390953 -108.845682 
L 599.596054 -108.69584 
L 600.801155 -108.551587 
L 602.006256 -108.413028 
L 603.211357 -108.280268 
L 604.416458 -108.153411 
L 605.621559 -108.032563 
L 606.826661 -107.917827 
L 608.031762 -107.809309 
L 609.236863 -107.707114 
L 610.441964 -107.611347 
L 611.647065 -107.522112 
L 612.852166 -107.439513 
L 614.057267 -107.363657 
L 615.262368 -107.294648 
L 616.467469 -107.23259 
L 617.672571 -107.177588 
L 618.877672 -107.129748 
L 620.082773 -107.089174 
L 621.287874 -107.05597 
L 622.492975 -107.030242 
L 623.698076 -107.012095 
L 624.903177 -107.001633 
L 626.108278 -106.99896 
L 627.313379 -107.004183 
L 628.518481 -107.017406 
L 629.723582 -107.038733 
L 630.928683 -107.068269 
L 632.133784 -107.106119 
L 633.338885 -107.152388 
L 634.543986 -107.207181 
L 635.749087 -107.270603 
L 636.954188 -107.342758 
L 638.159289 -107.423751 
L 639.364391 -107.513688 
L 640.569492 -107.612672 
L 641.774593 -107.720808 
L 642.979694 -107.838202 
L 644.184795 -107.964959 
L 645.389896 -108.101182 
L 646.594997 -108.246978 
L 647.800098 -108.40245 
L 649.005199 -108.567703 
L 650.210301 -108.742843 
L 651.415402 -108.927974 
L 652.620503 -109.123201 
L 653.825604 -109.328629 
L 655.030705 -109.544362 
L 656.235806 -109.770506 
L 657.440907 -110.007165 
L 658.646008 -110.254444 
L 659.851109 -110.512448 
L 661.056211 -110.781281 
L 662.261312 -111.061049 
L 663.466413 -111.351856 
L 664.671514 -111.653807 
L 665.876615 -111.967008 
L 667.081716 -112.291562 
L 668.286817 -112.627574 
L 669.491918 -112.97515 
L 670.697019 -113.334394 
L 671.902121 -113.70541 
L 673.107222 -114.088305 
L 674.312323 -114.483182 
L 675.517424 -114.890147 
L 676.722525 -115.309304 
L 677.927626 -115.740758 
L 679.132727 -116.184614 
L 679.132727 -156.946993 
L 679.132727 -156.946993 
L 677.927626 -156.094696 
L 676.722525 -155.254802 
L 675.517424 -154.427204 
L 674.312323 -153.611799 
L 673.107222 -152.808481 
L 671.902121 -152.017146 
L 670.697019 -151.237688 
L 669.491918 -150.470003 
L 668.286817 -149.713987 
L 667.081716 -148.969534 
L 665.876615 -148.236539 
L 664.671514 -147.514899 
L 663.466413 -146.804507 
L 662.261312 -146.105259 
L 661.056211 -145.41705 
L 659.851109 -144.739776 
L 658.646008 -144.073332 
L 657.440907 -143.417612 
L 656.235806 -142.772512 
L 655.030705 -142.137928 
L 653.825604 -141.513754 
L 652.620503 -140.899885 
L 651.415402 -140.296218 
L 650.210301 -139.702646 
L 649.005199 -139.119066 
L 647.800098 -138.545371 
L 646.594997 -137.981459 
L 645.389896 -137.427223 
L 644.184795 -136.882558 
L 642.979694 -136.347361 
L 641.774593 -135.821527 
L 640.569492 -135.304949 
L 639.364391 -134.797525 
L 638.159289 -134.299148 
L 636.954188 -133.809714 
L 635.749087 -133.329118 
L 634.543986 -132.857256 
L 633.338885 -132.394022 
L 632.133784 -131.939312 
L 630.928683 -131.493021 
L 629.723582 -131.055044 
L 628.518481 -130.625277 
L 627.313379 -130.203613 
L 626.108278 -129.78995 
L 624.903177 -129.384182 
L 623.698076 -128.986203 
L 622.492975 -128.59591 
L 621.287874 -128.213197 
L 620.082773 -127.83796 
L 618.877672 -127.470094 
L 617.672571 -127.109493 
L 616.467469 -126.756054 
L 615.262368 -126.409671 
L 614.057267 -126.07024 
L 612.852166 -125.737656 
L 611.647065 -125.411813 
L 610.441964 -125.092608 
L 609.236863 -124.779935 
L 608.031762 -124.473689 
L 606.826661 -124.173766 
L 605.621559 -123.880061 
L 604.416458 -123.592469 
L 603.211357 -123.310885 
L 602.006256 -123.035205 
L 600.801155 -122.765323 
L 599.596054 -122.501135 
L 598.390953 -122.242536 
L 597.185852 -121.989421 
L 595.980751 -121.741686 
L 594.775649 -121.499225 
L 593.570548 -121.261933 
L 592.365447 -121.029707 
L 591.160346 -120.802441 
L 589.955245 -120.58003 
L 588.750144 -120.36237 
L 587.545043 -120.149355 
L 586.339942 -119.940881 
L 585.134841 -119.736843 
L 583.929739 -119.537137 
L 582.724638 -119.341656 
L 581.519537 -119.150298 
L 580.314436 -118.962956 
L 579.109335 -118.779526 
L 577.904234 -118.599903 
L 576.699133 -118.423983 
L 575.494032 -118.25166 
L 574.288931 -118.08283 
L 573.083829 -117.917388 
L 571.878728 -117.755229 
L 570.673627 -117.596248 
L 569.468526 -117.440341 
L 568.263425 -117.287402 
L 567.058324 -117.137327 
L 565.853223 -116.990011 
L 564.648122 -116.84535 
L 563.443021 -116.703238 
L 562.237919 -116.56357 
L 561.032818 -116.426242 
L 559.827717 -116.291149 
L 558.622616 -116.199031 
L 557.417515 -116.272313 
L 556.212414 -116.347517 
L 555.007313 -116.424536 
L 553.802212 -116.503266 
L 552.597111 -116.583602 
L 551.392009 -116.66544 
L 550.186908 -116.748673 
L 548.981807 -116.833199 
L 547.776706 -116.918911 
L 546.571605 -117.005706 
L 545.366504 -117.093477 
L 544.161403 -117.182121 
L 542.956302 -117.271532 
L 541.751201 -117.361607 
L 540.546099 -117.452239 
L 539.340998 -117.543324 
L 538.135897 -117.634758 
L 536.930796 -117.726435 
L 535.725695 -117.818251 
L 534.520594 -117.910101 
L 533.315493 -118.001879 
L 532.110392 -118.093482 
L 530.905291 -118.184805 
L 529.700189 -118.275742 
L 528.495088 -118.366189 
L 527.289987 -118.456041 
L 526.084886 -118.545193 
L 524.879785 -118.633541 
L 523.674684 -118.720979 
L 522.469583 -118.807402 
L 521.264482 -118.892707 
L 520.059381 -118.976788 
L 518.854279 -119.05954 
L 517.649178 -119.140859 
L 516.444077 -119.220639 
L 515.238976 -119.298776 
L 514.033875 -119.375166 
L 512.828774 -119.449702 
L 511.623673 -119.522281 
L 510.418572 -119.592798 
L 509.213471 -119.661147 
L 508.008369 -119.727225 
L 506.803268 -119.790925 
L 505.598167 -119.852144 
L 504.393066 -119.910776 
L 503.187965 -119.966718 
L 501.982864 -120.019863 
L 500.777763 -120.070107 
L 499.572662 -120.117345 
L 498.367561 -120.161473 
L 497.162459 -120.202386 
L 495.957358 -120.239979 
L 494.752257 -120.274146 
L 493.547156 -120.304784 
L 492.342055 -120.331787 
L 491.136954 -120.355051 
L 489.931853 -120.374471 
L 488.726752 -120.389941 
L 487.521651 -120.401358 
L 486.316549 -120.408616 
L 485.111448 -120.411611 
L 483.906347 -120.410237 
L 482.701246 -120.40439 
L 481.496145 -120.393966 
L 480.291044 -120.378858 
L 479.085943 -120.358963 
L 477.880842 -120.334176 
L 476.675741 -120.304392 
L 475.470639 -120.269505 
L 474.265538 -120.229412 
L 473.060437 -120.184008 
L 471.855336 -120.133186 
L 470.650235 -120.076844 
L 469.445134 -120.014876 
L 468.240033 -119.947176 
L 467.034932 -119.873642 
L 465.829831 -119.794166 
L 464.624729 -119.708646 
L 463.419628 -119.616975 
L 462.214527 -119.519049 
L 461.009426 -119.414764 
L 459.804325 -119.304014 
L 458.599224 -119.186694 
L 457.394123 -119.062701 
L 456.189022 -118.931928 
L 454.983921 -118.794272 
L 453.778819 -118.649627 
L 452.573718 -118.497889 
L 451.368617 -118.338953 
L 450.163516 -118.172713 
L 448.958415 -117.999066 
L 447.753314 -117.817905 
L 446.548213 -117.629128 
L 445.343112 -117.432628 
L 444.138011 -117.228301 
L 442.932909 -117.016042 
L 441.727808 -116.795746 
L 440.522707 -116.567309 
L 439.317606 -116.330626 
L 438.112505 -116.085604 
L 436.907404 -115.83265 
L 435.702303 -115.572821 
L 434.497202 -115.307213 
L 433.292101 -115.036925 
L 432.086999 -114.763056 
L 430.881898 -114.486703 
L 429.676797 -114.208966 
L 428.471696 -113.930942 
L 427.266595 -113.65373 
L 426.061494 -113.378428 
L 424.856393 -113.106135 
L 423.651292 -112.837948 
L 422.446191 -112.574966 
L 421.241089 -112.318288 
L 420.035988 -112.069011 
L 418.830887 -111.828234 
L 417.625786 -111.597056 
L 416.420685 -111.376574 
L 415.215584 -111.167887 
L 414.010483 -110.972093 
L 412.805382 -110.790291 
L 411.600281 -110.623579 
L 410.395179 -110.473055 
L 409.190078 -110.339817 
L 407.984977 -110.224964 
L 406.779876 -110.129594 
L 405.574775 -110.054806 
L 404.369674 -110.001697 
L 403.164573 -109.971367 
L 401.959472 -109.964913 
L 400.754371 -109.983433 
L 399.549269 -110.028027 
L 398.344168 -110.099792 
L 397.139067 -110.199826 
L 395.933966 -110.329229 
L 394.728865 -110.489097 
L 393.523764 -110.680531 
L 392.318663 -110.904627 
L 391.113562 -111.162484 
L 389.908461 -111.455201 
L 388.703359 -111.783876 
L 387.498258 -112.149606 
L 386.293157 -112.553492 
L 385.088056 -112.99663 
L 383.882955 -113.480119 
L 382.677854 -114.005058 
L 381.472753 -114.572544 
L 380.267652 -115.183676 
L 379.062551 -115.839553 
L 377.857449 -116.868699 
L 376.652348 -118.270899 
L 375.447247 -119.7172 
L 374.242146 -121.206075 
L 373.037045 -122.735996 
L 371.831944 -124.305436 
L 370.626843 -125.912868 
L 369.421742 -127.556764 
L 368.216641 -129.235597 
L 367.011539 -130.947841 
L 365.806438 -132.691967 
L 364.601337 -134.466448 
L 363.396236 -136.269757 
L 362.191135 -138.100367 
L 360.986034 -139.95675 
L 359.780933 -141.837379 
L 358.575832 -143.740728 
L 357.370731 -145.665267 
L 356.165629 -147.609471 
L 354.960528 -149.571812 
L 353.755427 -151.550763 
L 352.550326 -153.544796 
L 351.345225 -155.552384 
L 350.140124 -157.572 
L 348.935023 -159.602117 
L 347.729922 -161.641207 
L 346.524821 -163.687742 
L 345.319719 -165.740197 
L 344.114618 -167.797043 
L 342.909517 -169.856753 
L 341.704416 -171.917799 
L 340.499315 -173.978655 
L 339.294214 -176.037794 
L 338.089113 -178.093687 
L 336.884012 -180.144808 
L 335.678911 -182.189629 
L 334.473809 -184.226624 
L 333.268708 -186.254264 
L 332.063607 -188.271023 
L 330.858506 -190.275372 
L 329.653405 -192.265786 
L 328.448304 -194.240737 
L 327.243203 -196.198696 
L 326.038102 -198.138138 
L 324.833001 -200.057535 
L 323.627899 -201.955358 
L 322.422798 -203.830083 
L 321.217697 -205.68018 
L 320.012596 -207.504122 
L 318.807495 -209.300383 
L 317.602394 -210.715992 
L 316.397293 -211.867517 
L 315.192192 -212.989366 
L 313.987091 -214.081628 
L 312.781989 -215.144395 
L 311.576888 -216.177755 
L 310.371787 -217.181798 
L 309.166686 -218.156615 
L 307.961585 -219.102296 
L 306.756484 -220.018929 
L 305.551383 -220.906605 
L 304.346282 -221.765415 
L 303.141181 -222.595447 
L 301.936079 -223.396792 
L 300.730978 -224.169539 
L 299.525877 -224.913779 
L 298.320776 -225.629601 
L 297.115675 -226.317096 
L 295.910574 -226.976352 
L 294.705473 -227.607461 
L 293.500372 -228.210512 
L 292.295271 -228.785594 
L 291.090169 -229.332798 
L 289.885068 -229.852214 
L 288.679967 -230.343931 
L 287.474866 -230.80804 
L 286.269765 -231.24463 
L 285.064664 -231.653791 
L 283.859563 -232.035613 
L 282.654462 -232.390186 
L 281.449361 -232.7176 
L 280.244259 -233.017944 
L 279.039158 -233.291309 
L 277.834057 -233.537785 
L 276.628956 -233.757461 
L 275.423855 -233.950427 
L 274.218754 -234.116773 
L 273.013653 -234.25659 
L 271.808552 -234.369966 
L 270.603451 -234.456992 
L 269.398349 -234.517758 
L 268.193248 -234.552353 
L 266.988147 -234.560868 
L 265.783046 -234.543392 
L 264.577945 -234.500016 
L 263.372844 -234.430828 
L 262.167743 -234.33592 
L 260.962642 -234.215381 
L 259.757541 -234.0693 
L 258.552439 -233.897768 
L 257.347338 -233.604161 
L 256.142237 -233.244565 
L 254.937136 -232.861621 
L 253.732035 -232.456495 
L 252.526934 -232.030354 
L 251.321833 -231.584368 
L 250.116732 -231.119704 
L 248.911631 -230.637529 
L 247.706529 -230.139011 
L 246.501428 -229.625318 
L 245.296327 -229.097617 
L 244.091226 -228.557077 
L 242.886125 -228.004864 
L 241.681024 -227.442148 
L 240.475923 -226.870095 
L 239.270822 -226.289873 
L 238.065721 -225.702651 
L 236.860619 -225.109595 
L 235.655518 -224.511873 
L 234.450417 -223.910654 
L 233.245316 -223.307104 
L 232.040215 -222.702392 
L 230.835114 -222.097686 
L 229.630013 -221.494152 
L 228.424912 -220.89296 
L 227.219811 -220.295276 
L 226.014709 -219.702268 
L 224.809608 -219.115104 
L 223.604507 -218.534952 
L 222.399406 -217.96298 
L 221.194305 -217.400355 
L 219.989204 -216.848245 
L 218.784103 -216.307817 
L 217.579002 -215.78024 
L 216.373901 -215.266682 
L 215.168799 -214.768309 
L 213.963698 -214.286289 
L 212.758597 -213.821792 
L 211.553496 -213.375983 
L 210.348395 -212.950031 
L 209.143294 -212.545104 
L 207.938193 -212.162369 
L 206.733092 -211.802994 
L 205.527991 -211.468146 
L 204.322889 -211.158995 
L 203.117788 -210.876706 
L 201.912687 -210.622449 
L 200.707586 -210.39739 
L 199.502485 -210.202698 
L 198.297384 -210.039539 
L 197.092283 -210.019514 
L 195.887182 -210.059413 
L 194.682081 -210.130764 
L 193.476979 -210.232743 
L 192.271878 -210.364526 
L 191.066777 -210.525289 
L 189.861676 -210.714208 
L 188.656575 -210.930459 
L 187.451474 -211.173218 
L 186.246373 -211.44166 
L 185.041272 -211.734962 
L 183.836171 -212.0523 
L 182.631069 -212.392849 
L 181.425968 -212.755786 
L 180.220867 -213.140286 
L 179.015766 -213.545525 
L 177.810665 -213.97068 
L 176.605564 -214.414925 
L 175.400463 -214.877439 
L 174.195362 -215.357395 
L 172.990261 -215.85397 
L 171.785159 -216.36634 
L 170.580058 -216.893681 
L 169.374957 -217.435169 
L 168.169856 -217.98998 
L 166.964755 -218.55729 
L 165.759654 -219.136274 
L 164.554553 -219.726109 
L 163.349452 -220.32597 
L 162.144351 -220.935034 
L 160.939249 -221.552477 
L 159.734148 -222.177474 
L 158.529047 -222.809201 
L 157.323946 -223.446834 
L 156.118845 -224.08955 
L 154.913744 -224.736523 
L 153.708643 -225.386931 
L 152.503542 -226.039949 
L 151.298441 -226.694753 
L 150.093339 -227.350518 
L 148.888238 -228.006422 
L 147.683137 -228.661639 
L 146.478036 -229.315346 
L 145.272935 -229.966718 
L 144.067834 -230.614933 
L 142.862733 -231.259164 
L 141.657632 -231.898589 
L 140.452531 -232.532384 
L 139.247429 -233.159724 
L 138.042328 -233.779785 
L 136.837227 -234.32953 
L 135.632126 -234.863436 
L 134.427025 -235.387591 
L 133.221924 -235.901171 
L 132.016823 -236.403352 
L 130.811722 -236.89331 
L 129.606621 -237.370221 
L 128.401519 -237.83326 
L 127.196418 -238.281605 
L 125.991317 -238.714429 
L 124.786216 -239.130911 
L 123.581115 -239.530225 
L 122.376014 -239.911548 
L 121.170913 -240.274055 
L 119.965812 -240.616922 
L 118.760711 -240.939326 
L 117.555609 -241.240442 
L 116.350508 -241.519446 
L 115.145407 -241.775514 
L 113.940306 -242.007822 
L 112.735205 -242.215547 
L 111.530104 -242.397863 
L 110.325003 -242.553947 
L 109.119902 -242.682975 
L 107.914801 -242.784123 
L 106.709699 -242.856566 
L 105.504598 -242.899481 
L 104.299497 -242.912044 
L 103.094396 -242.89343 
L 101.889295 -242.842816 
L 100.684194 -242.759377 
L 99.479093 -242.642289 
L 98.273992 -242.490729 
L 97.068891 -242.303871 
L 95.863789 -242.080893 
L 94.658688 -241.82097 
L 93.453587 -241.523278 
L 92.248486 -241.186994 
L 91.043385 -240.811291 
L 89.838284 -240.395348 
L 88.633183 -239.93834 
L 87.428082 -239.439442 
L 86.222981 -238.897831 
L 85.017879 -238.312683 
L 83.812778 -237.683173 
L 82.607677 -237.008477 
L 81.402576 -236.287772 
L 80.197475 -235.520234 
L 78.992374 -234.705037 
L 77.787273 -233.841359 
z
" style="stroke: #ff0000; stroke-opacity: 0.2"/>
    </defs>
    <g clip-path="url(#paa1daf554a)">
     <use xlink:href="#m7fa09f1e99" x="0" y="432" style="fill: #ff0000; fill-opacity: 0.2; stroke: #ff0000; stroke-opacity: 0.2"/>
    </g>
   </g>
   <g id="matplotlib.axis_1">
    <g id="xtick_1">
     <g id="line2d_1">
      <defs>
       <path id="m1c6aa18e71" d="M 0 0 
L 0 3.5 
" style="stroke: #000000; stroke-width: 0.8"/>
      </defs>
      <g>
       <use xlink:href="#m1c6aa18e71" x="77.787273" y="350.409509" style="stroke: #000000; stroke-width: 0.8"/>
      </g>
     </g>
     <g id="text_1">
      <!-- 100%_own -->
      <g transform="translate(60.406809 400.999328) rotate(-45) scale(0.1 -0.1)">
       <defs>
        <path id="DejaVuSans-31" d="M 794 531 
L 1825 531 
L 1825 4091 
L 703 3866 
L 703 4441 
L 1819 4666 
L 2450 4666 
L 2450 531 
L 3481 531 
L 3481 0 
L 794 0 
L 794 531 
z
" transform="scale(0.015625)"/>
        <path id="DejaVuSans-30" d="M 2034 4250 
Q 1547 4250 1301 3770 
Q 1056 3291 1056 2328 
Q 1056 1369 1301 889 
Q 1547 409 2034 409 
Q 2525 409 2770 889 
Q 3016 1369 3016 2328 
Q 3016 3291 2770 3770 
Q 2525 4250 2034 4250 
z
M 2034 4750 
Q 2819 4750 3233 4129 
Q 3647 3509 3647 2328 
Q 3647 1150 3233 529 
Q 2819 -91 2034 -91 
Q 1250 -91 836 529 
Q 422 1150 422 2328 
Q 422 3509 836 4129 
Q 1250 4750 2034 4750 
z
" transform="scale(0.015625)"/>
        <path id="DejaVuSans-25" d="M 4653 2053 
Q 4381 2053 4226 1822 
Q 4072 1591 4072 1178 
Q 4072 772 4226 539 
Q 4381 306 4653 306 
Q 4919 306 5073 539 
Q 5228 772 5228 1178 
Q 5228 1588 5073 1820 
Q 4919 2053 4653 2053 
z
M 4653 2450 
Q 5147 2450 5437 2106 
Q 5728 1763 5728 1178 
Q 5728 594 5436 251 
Q 5144 -91 4653 -91 
Q 4153 -91 3862 251 
Q 3572 594 3572 1178 
Q 3572 1766 3864 2108 
Q 4156 2450 4653 2450 
z
M 1428 4353 
Q 1159 4353 1004 4120 
Q 850 3888 850 3481 
Q 850 3069 1003 2837 
Q 1156 2606 1428 2606 
Q 1700 2606 1854 2837 
Q 2009 3069 2009 3481 
Q 2009 3884 1853 4118 
Q 1697 4353 1428 4353 
z
M 4250 4750 
L 4750 4750 
L 1831 -91 
L 1331 -91 
L 4250 4750 
z
M 1428 4750 
Q 1922 4750 2215 4408 
Q 2509 4066 2509 3481 
Q 2509 2891 2217 2550 
Q 1925 2209 1428 2209 
Q 931 2209 642 2551 
Q 353 2894 353 3481 
Q 353 4063 643 4406 
Q 934 4750 1428 4750 
z
" transform="scale(0.015625)"/>
        <path id="DejaVuSans-5f" d="M 3263 -1063 
L 3263 -1509 
L -63 -1509 
L -63 -1063 
L 3263 -1063 
z
" transform="scale(0.015625)"/>
        <path id="DejaVuSans-6f" d="M 1959 3097 
Q 1497 3097 1228 2736 
Q 959 2375 959 1747 
Q 959 1119 1226 758 
Q 1494 397 1959 397 
Q 2419 397 2687 759 
Q 2956 1122 2956 1747 
Q 2956 2369 2687 2733 
Q 2419 3097 1959 3097 
z
M 1959 3584 
Q 2709 3584 3137 3096 
Q 3566 2609 3566 1747 
Q 3566 888 3137 398 
Q 2709 -91 1959 -91 
Q 1206 -91 779 398 
Q 353 888 353 1747 
Q 353 2609 779 3096 
Q 1206 3584 1959 3584 
z
" transform="scale(0.015625)"/>
        <path id="DejaVuSans-77" d="M 269 3500 
L 844 3500 
L 1563 769 
L 2278 3500 
L 2956 3500 
L 3675 769 
L 4391 3500 
L 4966 3500 
L 4050 0 
L 3372 0 
L 2619 2869 
L 1863 0 
L 1184 0 
L 269 3500 
z
" transform="scale(0.015625)"/>
        <path id="DejaVuSans-6e" d="M 3513 2113 
L 3513 0 
L 2938 0 
L 2938 2094 
Q 2938 2591 2744 2837 
Q 2550 3084 2163 3084 
Q 1697 3084 1428 2787 
Q 1159 2491 1159 1978 
L 1159 0 
L 581 0 
L 581 3500 
L 1159 3500 
L 1159 2956 
Q 1366 3272 1645 3428 
Q 1925 3584 2291 3584 
Q 2894 3584 3203 3211 
Q 3513 2838 3513 2113 
z
" transform="scale(0.015625)"/>
       </defs>
       <use xlink:href="#DejaVuSans-31"/>
       <use xlink:href="#DejaVuSans-30" x="63.623047"/>
       <use xlink:href="#DejaVuSans-30" x="127.246094"/>
       <use xlink:href="#DejaVuSans-25" x="190.869141"/>
       <use xlink:href="#DejaVuSans-5f" x="285.888672"/>
       <use xlink:href="#DejaVuSans-6f" x="335.888672"/>
       <use xlink:href="#DejaVuSans-77" x="397.070312"/>
       <use xlink:href="#DejaVuSans-6e" x="478.857422"/>
      </g>
     </g>
    </g>
    <g id="xtick_2">
     <g id="line2d_2">
      <g>
       <use xlink:href="#m1c6aa18e71" x="198.056364" y="350.409509" style="stroke: #000000; stroke-width: 0.8"/>
      </g>
     </g>
     <g id="text_2">
      <!-- 80%_own -->
      <g transform="translate(182.925383 396.500361) rotate(-45) scale(0.1 -0.1)">
       <defs>
        <path id="DejaVuSans-38" d="M 2034 2216 
Q 1584 2216 1326 1975 
Q 1069 1734 1069 1313 
Q 1069 891 1326 650 
Q 1584 409 2034 409 
Q 2484 409 2743 651 
Q 3003 894 3003 1313 
Q 3003 1734 2745 1975 
Q 2488 2216 2034 2216 
z
M 1403 2484 
Q 997 2584 770 2862 
Q 544 3141 544 3541 
Q 544 4100 942 4425 
Q 1341 4750 2034 4750 
Q 2731 4750 3128 4425 
Q 3525 4100 3525 3541 
Q 3525 3141 3298 2862 
Q 3072 2584 2669 2484 
Q 3125 2378 3379 2068 
Q 3634 1759 3634 1313 
Q 3634 634 3220 271 
Q 2806 -91 2034 -91 
Q 1263 -91 848 271 
Q 434 634 434 1313 
Q 434 1759 690 2068 
Q 947 2378 1403 2484 
z
M 1172 3481 
Q 1172 3119 1398 2916 
Q 1625 2713 2034 2713 
Q 2441 2713 2670 2916 
Q 2900 3119 2900 3481 
Q 2900 3844 2670 4047 
Q 2441 4250 2034 4250 
Q 1625 4250 1398 4047 
Q 1172 3844 1172 3481 
z
" transform="scale(0.015625)"/>
       </defs>
       <use xlink:href="#DejaVuSans-38"/>
       <use xlink:href="#DejaVuSans-30" x="63.623047"/>
       <use xlink:href="#DejaVuSans-25" x="127.246094"/>
       <use xlink:href="#DejaVuSans-5f" x="222.265625"/>
       <use xlink:href="#DejaVuSans-6f" x="272.265625"/>
       <use xlink:href="#DejaVuSans-77" x="333.447266"/>
       <use xlink:href="#DejaVuSans-6e" x="415.234375"/>
      </g>
     </g>
    </g>
    <g id="xtick_3">
     <g id="line2d_3">
      <g>
       <use xlink:href="#m1c6aa18e71" x="318.325455" y="350.409509" style="stroke: #000000; stroke-width: 0.8"/>
      </g>
     </g>
     <g id="text_3">
      <!-- 60%_own -->
      <g transform="translate(303.194474 396.500361) rotate(-45) scale(0.1 -0.1)">
       <defs>
        <path id="DejaVuSans-36" d="M 2113 2584 
Q 1688 2584 1439 2293 
Q 1191 2003 1191 1497 
Q 1191 994 1439 701 
Q 1688 409 2113 409 
Q 2538 409 2786 701 
Q 3034 994 3034 1497 
Q 3034 2003 2786 2293 
Q 2538 2584 2113 2584 
z
M 3366 4563 
L 3366 3988 
Q 3128 4100 2886 4159 
Q 2644 4219 2406 4219 
Q 1781 4219 1451 3797 
Q 1122 3375 1075 2522 
Q 1259 2794 1537 2939 
Q 1816 3084 2150 3084 
Q 2853 3084 3261 2657 
Q 3669 2231 3669 1497 
Q 3669 778 3244 343 
Q 2819 -91 2113 -91 
Q 1303 -91 875 529 
Q 447 1150 447 2328 
Q 447 3434 972 4092 
Q 1497 4750 2381 4750 
Q 2619 4750 2861 4703 
Q 3103 4656 3366 4563 
z
" transform="scale(0.015625)"/>
       </defs>
       <use xlink:href="#DejaVuSans-36"/>
       <use xlink:href="#DejaVuSans-30" x="63.623047"/>
       <use xlink:href="#DejaVuSans-25" x="127.246094"/>
       <use xlink:href="#DejaVuSans-5f" x="222.265625"/>
       <use xlink:href="#DejaVuSans-6f" x="272.265625"/>
       <use xlink:href="#DejaVuSans-77" x="333.447266"/>
       <use xlink:href="#DejaVuSans-6e" x="415.234375"/>
      </g>
     </g>
    </g>
    <g id="xtick_4">
     <g id="line2d_4">
      <g>
       <use xlink:href="#m1c6aa18e71" x="438.594545" y="350.409509" style="stroke: #000000; stroke-width: 0.8"/>
      </g>
     </g>
     <g id="text_4">
      <!-- 60%_other -->
      <g transform="translate(421.402459 400.87227) rotate(-45) scale(0.1 -0.1)">
       <defs>
        <path id="DejaVuSans-74" d="M 1172 4494 
L 1172 3500 
L 2356 3500 
L 2356 3053 
L 1172 3053 
L 1172 1153 
Q 1172 725 1289 603 
Q 1406 481 1766 481 
L 2356 481 
L 2356 0 
L 1766 0 
Q 1100 0 847 248 
Q 594 497 594 1153 
L 594 3053 
L 172 3053 
L 172 3500 
L 594 3500 
L 594 4494 
L 1172 4494 
z
" transform="scale(0.015625)"/>
        <path id="DejaVuSans-68" d="M 3513 2113 
L 3513 0 
L 2938 0 
L 2938 2094 
Q 2938 2591 2744 2837 
Q 2550 3084 2163 3084 
Q 1697 3084 1428 2787 
Q 1159 2491 1159 1978 
L 1159 0 
L 581 0 
L 581 4863 
L 1159 4863 
L 1159 2956 
Q 1366 3272 1645 3428 
Q 1925 3584 2291 3584 
Q 2894 3584 3203 3211 
Q 3513 2838 3513 2113 
z
" transform="scale(0.015625)"/>
        <path id="DejaVuSans-65" d="M 3597 1894 
L 3597 1613 
L 953 1613 
Q 991 1019 1311 708 
Q 1631 397 2203 397 
Q 2534 397 2845 478 
Q 3156 559 3463 722 
L 3463 178 
Q 3153 47 2828 -22 
Q 2503 -91 2169 -91 
Q 1331 -91 842 396 
Q 353 884 353 1716 
Q 353 2575 817 3079 
Q 1281 3584 2069 3584 
Q 2775 3584 3186 3129 
Q 3597 2675 3597 1894 
z
M 3022 2063 
Q 3016 2534 2758 2815 
Q 2500 3097 2075 3097 
Q 1594 3097 1305 2825 
Q 1016 2553 972 2059 
L 3022 2063 
z
" transform="scale(0.015625)"/>
        <path id="DejaVuSans-72" d="M 2631 2963 
Q 2534 3019 2420 3045 
Q 2306 3072 2169 3072 
Q 1681 3072 1420 2755 
Q 1159 2438 1159 1844 
L 1159 0 
L 581 0 
L 581 3500 
L 1159 3500 
L 1159 2956 
Q 1341 3275 1631 3429 
Q 1922 3584 2338 3584 
Q 2397 3584 2469 3576 
Q 2541 3569 2628 3553 
L 2631 2963 
z
" transform="scale(0.015625)"/>
       </defs>
       <use xlink:href="#DejaVuSans-36"/>
       <use xlink:href="#DejaVuSans-30" x="63.623047"/>
       <use xlink:href="#DejaVuSans-25" x="127.246094"/>
       <use xlink:href="#DejaVuSans-5f" x="222.265625"/>
       <use xlink:href="#DejaVuSans-6f" x="272.265625"/>
       <use xlink:href="#DejaVuSans-74" x="333.447266"/>
       <use xlink:href="#DejaVuSans-68" x="372.65625"/>
       <use xlink:href="#DejaVuSans-65" x="436.035156"/>
       <use xlink:href="#DejaVuSans-72" x="497.558594"/>
      </g>
     </g>
    </g>
    <g id="xtick_5">
     <g id="line2d_5">
      <g>
       <use xlink:href="#m1c6aa18e71" x="558.863636" y="350.409509" style="stroke: #000000; stroke-width: 0.8"/>
      </g>
     </g>
     <g id="text_5">
      <!-- 80%_other -->
      <g transform="translate(541.67155 400.87227) rotate(-45) scale(0.1 -0.1)">
       <use xlink:href="#DejaVuSans-38"/>
       <use xlink:href="#DejaVuSans-30" x="63.623047"/>
       <use xlink:href="#DejaVuSans-25" x="127.246094"/>
       <use xlink:href="#DejaVuSans-5f" x="222.265625"/>
       <use xlink:href="#DejaVuSans-6f" x="272.265625"/>
       <use xlink:href="#DejaVuSans-74" x="333.447266"/>
       <use xlink:href="#DejaVuSans-68" x="372.65625"/>
       <use xlink:href="#DejaVuSans-65" x="436.035156"/>
       <use xlink:href="#DejaVuSans-72" x="497.558594"/>
      </g>
     </g>
    </g>
    <g id="xtick_6">
     <g id="line2d_6">
      <g>
       <use xlink:href="#m1c6aa18e71" x="679.132727" y="350.409509" style="stroke: #000000; stroke-width: 0.8"/>
      </g>
     </g>
     <g id="text_6">
      <!-- 100%_other -->
      <g transform="translate(659.691158 405.371237) rotate(-45) scale(0.1 -0.1)">
       <use xlink:href="#DejaVuSans-31"/>
       <use xlink:href="#DejaVuSans-30" x="63.623047"/>
       <use xlink:href="#DejaVuSans-30" x="127.246094"/>
       <use xlink:href="#DejaVuSans-25" x="190.869141"/>
       <use xlink:href="#DejaVuSans-5f" x="285.888672"/>
       <use xlink:href="#DejaVuSans-6f" x="335.888672"/>
       <use xlink:href="#DejaVuSans-74" x="397.070312"/>
       <use xlink:href="#DejaVuSans-68" x="436.279297"/>
       <use xlink:href="#DejaVuSans-65" x="499.658203"/>
       <use xlink:href="#DejaVuSans-72" x="561.181641"/>
      </g>
     </g>
    </g>
    <g id="text_7">
     <!-- Morph played -->
     <g transform="translate(344.261563 418.636899) scale(0.1 -0.1)">
      <defs>
       <path id="DejaVuSans-4d" d="M 628 4666 
L 1569 4666 
L 2759 1491 
L 3956 4666 
L 4897 4666 
L 4897 0 
L 4281 0 
L 4281 4097 
L 3078 897 
L 2444 897 
L 1241 4097 
L 1241 0 
L 628 0 
L 628 4666 
z
" transform="scale(0.015625)"/>
       <path id="DejaVuSans-70" d="M 1159 525 
L 1159 -1331 
L 581 -1331 
L 581 3500 
L 1159 3500 
L 1159 2969 
Q 1341 3281 1617 3432 
Q 1894 3584 2278 3584 
Q 2916 3584 3314 3078 
Q 3713 2572 3713 1747 
Q 3713 922 3314 415 
Q 2916 -91 2278 -91 
Q 1894 -91 1617 61 
Q 1341 213 1159 525 
z
M 3116 1747 
Q 3116 2381 2855 2742 
Q 2594 3103 2138 3103 
Q 1681 3103 1420 2742 
Q 1159 2381 1159 1747 
Q 1159 1113 1420 752 
Q 1681 391 2138 391 
Q 2594 391 2855 752 
Q 3116 1113 3116 1747 
z
" transform="scale(0.015625)"/>
       <path id="DejaVuSans-20" transform="scale(0.015625)"/>
       <path id="DejaVuSans-6c" d="M 603 4863 
L 1178 4863 
L 1178 0 
L 603 0 
L 603 4863 
z
" transform="scale(0.015625)"/>
       <path id="DejaVuSans-61" d="M 2194 1759 
Q 1497 1759 1228 1600 
Q 959 1441 959 1056 
Q 959 750 1161 570 
Q 1363 391 1709 391 
Q 2188 391 2477 730 
Q 2766 1069 2766 1631 
L 2766 1759 
L 2194 1759 
z
M 3341 1997 
L 3341 0 
L 2766 0 
L 2766 531 
Q 2569 213 2275 61 
Q 1981 -91 1556 -91 
Q 1019 -91 701 211 
Q 384 513 384 1019 
Q 384 1609 779 1909 
Q 1175 2209 1959 2209 
L 2766 2209 
L 2766 2266 
Q 2766 2663 2505 2880 
Q 2244 3097 1772 3097 
Q 1472 3097 1187 3025 
Q 903 2953 641 2809 
L 641 3341 
Q 956 3463 1253 3523 
Q 1550 3584 1831 3584 
Q 2591 3584 2966 3190 
Q 3341 2797 3341 1997 
z
" transform="scale(0.015625)"/>
       <path id="DejaVuSans-79" d="M 2059 -325 
Q 1816 -950 1584 -1140 
Q 1353 -1331 966 -1331 
L 506 -1331 
L 506 -850 
L 844 -850 
Q 1081 -850 1212 -737 
Q 1344 -625 1503 -206 
L 1606 56 
L 191 3500 
L 800 3500 
L 1894 763 
L 2988 3500 
L 3597 3500 
L 2059 -325 
z
" transform="scale(0.015625)"/>
       <path id="DejaVuSans-64" d="M 2906 2969 
L 2906 4863 
L 3481 4863 
L 3481 0 
L 2906 0 
L 2906 525 
Q 2725 213 2448 61 
Q 2172 -91 1784 -91 
Q 1150 -91 751 415 
Q 353 922 353 1747 
Q 353 2572 751 3078 
Q 1150 3584 1784 3584 
Q 2172 3584 2448 3432 
Q 2725 3281 2906 2969 
z
M 947 1747 
Q 947 1113 1208 752 
Q 1469 391 1925 391 
Q 2381 391 2643 752 
Q 2906 1113 2906 1747 
Q 2906 2381 2643 2742 
Q 2381 3103 1925 3103 
Q 1469 3103 1208 2742 
Q 947 2381 947 1747 
z
" transform="scale(0.015625)"/>
      </defs>
      <use xlink:href="#DejaVuSans-4d"/>
      <use xlink:href="#DejaVuSans-6f" x="86.279297"/>
      <use xlink:href="#DejaVuSans-72" x="147.460938"/>
      <use xlink:href="#DejaVuSans-70" x="188.574219"/>
      <use xlink:href="#DejaVuSans-68" x="252.050781"/>
      <use xlink:href="#DejaVuSans-20" x="315.429688"/>
      <use xlink:href="#DejaVuSans-70" x="347.216797"/>
      <use xlink:href="#DejaVuSans-6c" x="410.693359"/>
      <use xlink:href="#DejaVuSans-61" x="438.476562"/>
      <use xlink:href="#DejaVuSans-79" x="499.755859"/>
      <use xlink:href="#DejaVuSans-65" x="558.935547"/>
      <use xlink:href="#DejaVuSans-64" x="620.458984"/>
     </g>
    </g>
   </g>
   <g id="matplotlib.axis_2">
    <g id="ytick_1">
     <g id="line2d_7">
      <defs>
       <path id="mb9d92cf074" d="M 0 0 
L -3.5 0 
" style="stroke: #000000; stroke-width: 0.8"/>
      </defs>
      <g>
       <use xlink:href="#mb9d92cf074" x="47.72" y="315.815386" style="stroke: #000000; stroke-width: 0.8"/>
      </g>
     </g>
     <g id="text_8">
      <!-- 0.0 -->
      <g transform="translate(24.816875 319.614605) scale(0.1 -0.1)">
       <defs>
        <path id="DejaVuSans-2e" d="M 684 794 
L 1344 794 
L 1344 0 
L 684 0 
L 684 794 
z
" transform="scale(0.015625)"/>
       </defs>
       <use xlink:href="#DejaVuSans-30"/>
       <use xlink:href="#DejaVuSans-2e" x="63.623047"/>
       <use xlink:href="#DejaVuSans-30" x="95.410156"/>
      </g>
     </g>
    </g>
    <g id="ytick_2">
     <g id="line2d_8">
      <g>
       <use xlink:href="#mb9d92cf074" x="47.72" y="254.671818" style="stroke: #000000; stroke-width: 0.8"/>
      </g>
     </g>
     <g id="text_9">
      <!-- 0.2 -->
      <g transform="translate(24.816875 258.471036) scale(0.1 -0.1)">
       <defs>
        <path id="DejaVuSans-32" d="M 1228 531 
L 3431 531 
L 3431 0 
L 469 0 
L 469 531 
Q 828 903 1448 1529 
Q 2069 2156 2228 2338 
Q 2531 2678 2651 2914 
Q 2772 3150 2772 3378 
Q 2772 3750 2511 3984 
Q 2250 4219 1831 4219 
Q 1534 4219 1204 4116 
Q 875 4013 500 3803 
L 500 4441 
Q 881 4594 1212 4672 
Q 1544 4750 1819 4750 
Q 2544 4750 2975 4387 
Q 3406 4025 3406 3419 
Q 3406 3131 3298 2873 
Q 3191 2616 2906 2266 
Q 2828 2175 2409 1742 
Q 1991 1309 1228 531 
z
" transform="scale(0.015625)"/>
       </defs>
       <use xlink:href="#DejaVuSans-30"/>
       <use xlink:href="#DejaVuSans-2e" x="63.623047"/>
       <use xlink:href="#DejaVuSans-32" x="95.410156"/>
      </g>
     </g>
    </g>
    <g id="ytick_3">
     <g id="line2d_9">
      <g>
       <use xlink:href="#mb9d92cf074" x="47.72" y="193.528249" style="stroke: #000000; stroke-width: 0.8"/>
      </g>
     </g>
     <g id="text_10">
      <!-- 0.4 -->
      <g transform="translate(24.816875 197.327468) scale(0.1 -0.1)">
       <defs>
        <path id="DejaVuSans-34" d="M 2419 4116 
L 825 1625 
L 2419 1625 
L 2419 4116 
z
M 2253 4666 
L 3047 4666 
L 3047 1625 
L 3713 1625 
L 3713 1100 
L 3047 1100 
L 3047 0 
L 2419 0 
L 2419 1100 
L 313 1100 
L 313 1709 
L 2253 4666 
z
" transform="scale(0.015625)"/>
       </defs>
       <use xlink:href="#DejaVuSans-30"/>
       <use xlink:href="#DejaVuSans-2e" x="63.623047"/>
       <use xlink:href="#DejaVuSans-34" x="95.410156"/>
      </g>
     </g>
    </g>
    <g id="ytick_4">
     <g id="line2d_10">
      <g>
       <use xlink:href="#mb9d92cf074" x="47.72" y="132.38468" style="stroke: #000000; stroke-width: 0.8"/>
      </g>
     </g>
     <g id="text_11">
      <!-- 0.6 -->
      <g transform="translate(24.816875 136.183899) scale(0.1 -0.1)">
       <use xlink:href="#DejaVuSans-30"/>
       <use xlink:href="#DejaVuSans-2e" x="63.623047"/>
       <use xlink:href="#DejaVuSans-36" x="95.410156"/>
      </g>
     </g>
    </g>
    <g id="ytick_5">
     <g id="line2d_11">
      <g>
       <use xlink:href="#mb9d92cf074" x="47.72" y="71.241111" style="stroke: #000000; stroke-width: 0.8"/>
      </g>
     </g>
     <g id="text_12">
      <!-- 0.8 -->
      <g transform="translate(24.816875 75.04033) scale(0.1 -0.1)">
       <use xlink:href="#DejaVuSans-30"/>
       <use xlink:href="#DejaVuSans-2e" x="63.623047"/>
       <use xlink:href="#DejaVuSans-38" x="95.410156"/>
      </g>
     </g>
    </g>
    <g id="text_13">
     <!-- Voice recognition Mean Response -->
     <g transform="translate(18.737188 272.493973) rotate(-90) scale(0.1 -0.1)">
      <defs>
       <path id="DejaVuSans-56" d="M 1831 0 
L 50 4666 
L 709 4666 
L 2188 738 
L 3669 4666 
L 4325 4666 
L 2547 0 
L 1831 0 
z
" transform="scale(0.015625)"/>
       <path id="DejaVuSans-69" d="M 603 3500 
L 1178 3500 
L 1178 0 
L 603 0 
L 603 3500 
z
M 603 4863 
L 1178 4863 
L 1178 4134 
L 603 4134 
L 603 4863 
z
" transform="scale(0.015625)"/>
       <path id="DejaVuSans-63" d="M 3122 3366 
L 3122 2828 
Q 2878 2963 2633 3030 
Q 2388 3097 2138 3097 
Q 1578 3097 1268 2742 
Q 959 2388 959 1747 
Q 959 1106 1268 751 
Q 1578 397 2138 397 
Q 2388 397 2633 464 
Q 2878 531 3122 666 
L 3122 134 
Q 2881 22 2623 -34 
Q 2366 -91 2075 -91 
Q 1284 -91 818 406 
Q 353 903 353 1747 
Q 353 2603 823 3093 
Q 1294 3584 2113 3584 
Q 2378 3584 2631 3529 
Q 2884 3475 3122 3366 
z
" transform="scale(0.015625)"/>
       <path id="DejaVuSans-67" d="M 2906 1791 
Q 2906 2416 2648 2759 
Q 2391 3103 1925 3103 
Q 1463 3103 1205 2759 
Q 947 2416 947 1791 
Q 947 1169 1205 825 
Q 1463 481 1925 481 
Q 2391 481 2648 825 
Q 2906 1169 2906 1791 
z
M 3481 434 
Q 3481 -459 3084 -895 
Q 2688 -1331 1869 -1331 
Q 1566 -1331 1297 -1286 
Q 1028 -1241 775 -1147 
L 775 -588 
Q 1028 -725 1275 -790 
Q 1522 -856 1778 -856 
Q 2344 -856 2625 -561 
Q 2906 -266 2906 331 
L 2906 616 
Q 2728 306 2450 153 
Q 2172 0 1784 0 
Q 1141 0 747 490 
Q 353 981 353 1791 
Q 353 2603 747 3093 
Q 1141 3584 1784 3584 
Q 2172 3584 2450 3431 
Q 2728 3278 2906 2969 
L 2906 3500 
L 3481 3500 
L 3481 434 
z
" transform="scale(0.015625)"/>
       <path id="DejaVuSans-52" d="M 2841 2188 
Q 3044 2119 3236 1894 
Q 3428 1669 3622 1275 
L 4263 0 
L 3584 0 
L 2988 1197 
Q 2756 1666 2539 1819 
Q 2322 1972 1947 1972 
L 1259 1972 
L 1259 0 
L 628 0 
L 628 4666 
L 2053 4666 
Q 2853 4666 3247 4331 
Q 3641 3997 3641 3322 
Q 3641 2881 3436 2590 
Q 3231 2300 2841 2188 
z
M 1259 4147 
L 1259 2491 
L 2053 2491 
Q 2509 2491 2742 2702 
Q 2975 2913 2975 3322 
Q 2975 3731 2742 3939 
Q 2509 4147 2053 4147 
L 1259 4147 
z
" transform="scale(0.015625)"/>
       <path id="DejaVuSans-73" d="M 2834 3397 
L 2834 2853 
Q 2591 2978 2328 3040 
Q 2066 3103 1784 3103 
Q 1356 3103 1142 2972 
Q 928 2841 928 2578 
Q 928 2378 1081 2264 
Q 1234 2150 1697 2047 
L 1894 2003 
Q 2506 1872 2764 1633 
Q 3022 1394 3022 966 
Q 3022 478 2636 193 
Q 2250 -91 1575 -91 
Q 1294 -91 989 -36 
Q 684 19 347 128 
L 347 722 
Q 666 556 975 473 
Q 1284 391 1588 391 
Q 1994 391 2212 530 
Q 2431 669 2431 922 
Q 2431 1156 2273 1281 
Q 2116 1406 1581 1522 
L 1381 1569 
Q 847 1681 609 1914 
Q 372 2147 372 2553 
Q 372 3047 722 3315 
Q 1072 3584 1716 3584 
Q 2034 3584 2315 3537 
Q 2597 3491 2834 3397 
z
" transform="scale(0.015625)"/>
      </defs>
      <use xlink:href="#DejaVuSans-56"/>
      <use xlink:href="#DejaVuSans-6f" x="60.658203"/>
      <use xlink:href="#DejaVuSans-69" x="121.839844"/>
      <use xlink:href="#DejaVuSans-63" x="149.623047"/>
      <use xlink:href="#DejaVuSans-65" x="204.603516"/>
      <use xlink:href="#DejaVuSans-20" x="266.126953"/>
      <use xlink:href="#DejaVuSans-72" x="297.914062"/>
      <use xlink:href="#DejaVuSans-65" x="336.777344"/>
      <use xlink:href="#DejaVuSans-63" x="398.300781"/>
      <use xlink:href="#DejaVuSans-6f" x="453.28125"/>
      <use xlink:href="#DejaVuSans-67" x="514.462891"/>
      <use xlink:href="#DejaVuSans-6e" x="577.939453"/>
      <use xlink:href="#DejaVuSans-69" x="641.318359"/>
      <use xlink:href="#DejaVuSans-74" x="669.101562"/>
      <use xlink:href="#DejaVuSans-69" x="708.310547"/>
      <use xlink:href="#DejaVuSans-6f" x="736.09375"/>
      <use xlink:href="#DejaVuSans-6e" x="797.275391"/>
      <use xlink:href="#DejaVuSans-20" x="860.654297"/>
      <use xlink:href="#DejaVuSans-4d" x="892.441406"/>
      <use xlink:href="#DejaVuSans-65" x="978.720703"/>
      <use xlink:href="#DejaVuSans-61" x="1040.244141"/>
      <use xlink:href="#DejaVuSans-6e" x="1101.523438"/>
      <use xlink:href="#DejaVuSans-20" x="1164.902344"/>
      <use xlink:href="#DejaVuSans-52" x="1196.689453"/>
      <use xlink:href="#DejaVuSans-65" x="1261.671875"/>
      <use xlink:href="#DejaVuSans-73" x="1323.195312"/>
      <use xlink:href="#DejaVuSans-70" x="1375.294922"/>
      <use xlink:href="#DejaVuSans-6f" x="1438.771484"/>
      <use xlink:href="#DejaVuSans-6e" x="1499.953125"/>
      <use xlink:href="#DejaVuSans-73" x="1563.332031"/>
      <use xlink:href="#DejaVuSans-65" x="1615.431641"/>
     </g>
    </g>
   </g>
   <g id="line2d_12">
    <path d="M 77.787273 91.622301 
L 80.197475 89.095838 
L 82.607677 86.848638 
L 85.017879 84.871776 
L 87.428082 83.156325 
L 89.838284 81.693358 
L 92.248486 80.47395 
L 94.658688 79.489175 
L 97.068891 78.730105 
L 99.479093 78.187816 
L 101.889295 77.853381 
L 104.299497 77.717874 
L 106.709699 77.772368 
L 109.119902 78.007938 
L 111.530104 78.415657 
L 113.940306 78.986599 
L 117.555609 80.12953 
L 121.170913 81.589502 
L 124.786216 83.336391 
L 128.401519 85.340071 
L 132.016823 87.570415 
L 136.837227 90.844727 
L 141.657632 94.397033 
L 147.683137 99.119555 
L 158.529047 107.988324 
L 166.964755 114.776188 
L 172.990261 119.331386 
L 177.810665 122.692464 
L 181.425968 125.001281 
L 185.041272 127.094916 
L 188.656575 128.943245 
L 192.271878 130.516141 
L 195.887182 131.783478 
L 199.502485 132.715925 
L 203.117788 133.315028 
L 206.733092 133.622443 
L 210.348395 133.682505 
L 213.963698 133.539552 
L 218.784103 133.109778 
L 226.014709 132.166082 
L 235.655518 130.901366 
L 240.475923 130.502704 
L 244.091226 130.392159 
L 247.706529 130.492408 
L 251.321833 130.847786 
L 254.937136 131.502631 
L 257.347338 132.12746 
L 259.757541 132.91743 
L 262.167743 133.875048 
L 265.783046 135.616742 
L 269.398349 137.711996 
L 273.013653 140.146456 
L 276.628956 142.905767 
L 280.244259 145.975574 
L 283.859563 149.341521 
L 287.474866 152.989254 
L 291.090169 156.904418 
L 295.910574 162.51583 
L 300.730978 168.543127 
L 305.551383 174.952284 
L 310.371787 181.709274 
L 316.397293 190.592814 
L 322.422798 199.893982 
L 332.063607 215.272715 
L 342.909517 232.473865 
L 348.935023 241.603496 
L 353.755427 248.527574 
L 358.575832 255.011326 
L 362.191135 259.528051 
L 365.806438 263.703612 
L 369.421742 267.497947 
L 373.037045 270.870993 
L 375.447247 272.865857 
L 377.857449 274.643805 
L 380.267652 276.19467 
L 382.677854 277.52312 
L 385.088056 278.64146 
L 387.498258 279.562057 
L 389.908461 280.29728 
L 392.318663 280.859495 
L 394.728865 281.261072 
L 398.344168 281.589293 
L 401.959472 281.625645 
L 405.574775 281.41187 
L 409.190078 280.989708 
L 414.010483 280.174815 
L 420.035988 278.890321 
L 433.292101 275.931526 
L 438.112505 275.119487 
L 441.727808 274.695002 
L 446.548213 274.388291 
L 451.368617 274.36422 
L 456.189022 274.607849 
L 461.009426 275.104237 
L 465.829831 275.838442 
L 470.650235 276.795525 
L 475.470639 277.960543 
L 480.291044 279.318557 
L 486.316549 281.264713 
L 492.342055 283.459898 
L 498.367561 285.874929 
L 505.598167 289.022079 
L 514.033875 292.973492 
L 523.674684 297.760232 
L 538.135897 305.229889 
L 555.007313 313.902106 
L 564.648122 318.604338 
L 573.083829 322.449186 
L 580.314436 325.480759 
L 586.339942 327.78239 
L 592.365447 329.848639 
L 598.390953 331.650324 
L 603.211357 332.881578 
L 608.031762 333.909894 
L 612.852166 334.720331 
L 617.672571 335.29795 
L 622.492975 335.627809 
L 627.313379 335.694967 
L 632.133784 335.484483 
L 635.749087 335.13543 
L 639.364391 334.615497 
L 642.979694 333.918379 
L 646.594997 333.037774 
L 650.210301 331.967379 
L 653.825604 330.700891 
L 657.440907 329.232006 
L 661.056211 327.554421 
L 664.671514 325.661832 
L 668.286817 323.547938 
L 671.902121 321.206434 
L 675.517424 318.631018 
L 679.132727 315.815386 
L 679.132727 315.815386 
" clip-path="url(#paa1daf554a)" style="fill: none; stroke: #0000ff; stroke-width: 1.5; stroke-linecap: square"/>
   </g>
   <g id="line2d_13">
    <path d="M 77.787273 234.290628 
L 80.197475 232.611754 
L 82.607677 231.12351 
L 85.017879 229.819305 
L 87.428082 228.692545 
L 89.838284 227.736639 
L 92.248486 226.944994 
L 95.863789 226.051094 
L 99.479093 225.489698 
L 103.094396 225.238557 
L 106.709699 225.275421 
L 110.325003 225.57804 
L 113.940306 226.124165 
L 117.555609 226.891546 
L 121.170913 227.857933 
L 125.991317 229.417558 
L 130.811722 231.238677 
L 136.837227 233.802457 
L 144.067834 237.164513 
L 163.349452 246.347463 
L 169.374957 248.892636 
L 174.195362 250.693907 
L 179.015766 252.229274 
L 182.631069 253.174573 
L 186.246373 253.918384 
L 189.861676 254.438459 
L 193.476979 254.712547 
L 197.092283 254.718398 
L 200.707586 254.437299 
L 204.322889 253.883072 
L 207.938193 253.087075 
L 211.553496 252.080838 
L 216.373901 250.466642 
L 221.194305 248.609472 
L 228.424912 245.531622 
L 242.886125 239.249226 
L 247.706529 237.391582 
L 252.526934 235.776742 
L 256.142237 234.769908 
L 259.757541 233.972824 
L 263.372844 233.403918 
L 266.988147 233.066501 
L 270.603451 232.963 
L 274.218754 233.095842 
L 277.834057 233.467453 
L 281.449361 234.080261 
L 285.064664 234.936692 
L 288.679967 236.039174 
L 292.295271 237.390134 
L 295.910574 238.991999 
L 299.525877 240.847195 
L 303.141181 242.95815 
L 306.756484 245.327291 
L 310.371787 247.957044 
L 313.987091 250.849837 
L 317.602394 254.008096 
L 321.217697 257.430523 
L 326.038102 262.352716 
L 330.858506 267.595633 
L 338.089113 275.847546 
L 352.550326 292.53689 
L 358.575832 299.066148 
L 363.396236 303.91727 
L 367.011539 307.2743 
L 370.626843 310.344386 
L 374.242146 313.086293 
L 377.857449 315.458782 
L 380.267652 316.816324 
L 382.677854 317.994942 
L 385.088056 319.00337 
L 388.703359 320.216124 
L 392.318663 321.095373 
L 395.933966 321.670771 
L 399.549269 321.971973 
L 403.164573 322.028633 
L 406.779876 321.870406 
L 410.395179 321.526945 
L 415.215584 320.832113 
L 421.241089 319.681712 
L 429.676797 317.791034 
L 439.317606 315.669374 
L 445.343112 314.567372 
L 451.368617 313.661047 
L 458.599224 312.813306 
L 465.829831 312.205834 
L 473.060437 311.815992 
L 481.496145 311.606034 
L 489.931853 311.625529 
L 499.572662 311.882655 
L 510.418572 312.407202 
L 523.674684 313.279021 
L 563.443021 316.0728 
L 574.288931 316.53119 
L 583.929739 316.710646 
L 592.365447 316.647618 
L 600.801155 316.341545 
L 608.031762 315.858501 
L 615.262368 315.14784 
L 622.492975 314.186924 
L 628.518481 313.178659 
L 634.543986 311.967781 
L 640.569492 310.54119 
L 646.594997 308.885782 
L 652.620503 306.988457 
L 658.646008 304.836112 
L 664.671514 302.415647 
L 670.697019 299.713959 
L 676.722525 296.717947 
L 679.132727 295.434197 
L 679.132727 295.434197 
" clip-path="url(#paa1daf554a)" style="fill: none; stroke: #ff0000; stroke-width: 1.5; stroke-linecap: square"/>
   </g>
   <g id="patch_3">
    <path d="M 47.72 350.409509 
L 47.72 26.88 
" style="fill: none; stroke: #000000; stroke-width: 0.8; stroke-linejoin: miter; stroke-linecap: square"/>
   </g>
   <g id="patch_4">
    <path d="M 709.2 350.409509 
L 709.2 26.88 
" style="fill: none; stroke: #000000; stroke-width: 0.8; stroke-linejoin: miter; stroke-linecap: square"/>
   </g>
   <g id="patch_5">
    <path d="M 47.72 350.409509 
L 709.2 350.409509 
" style="fill: none; stroke: #000000; stroke-width: 0.8; stroke-linejoin: miter; stroke-linecap: square"/>
   </g>
   <g id="patch_6">
    <path d="M 47.72 26.88 
L 709.2 26.88 
" style="fill: none; stroke: #000000; stroke-width: 0.8; stroke-linejoin: miter; stroke-linecap: square"/>
   </g>
   <g id="text_14">
    <!-- Voice recognition by Location (central vs external) VP20 -->
    <g transform="translate(210.278125 20.88) scale(0.12 -0.12)">
     <defs>
      <path id="DejaVuSans-62" d="M 3116 1747 
Q 3116 2381 2855 2742 
Q 2594 3103 2138 3103 
Q 1681 3103 1420 2742 
Q 1159 2381 1159 1747 
Q 1159 1113 1420 752 
Q 1681 391 2138 391 
Q 2594 391 2855 752 
Q 3116 1113 3116 1747 
z
M 1159 2969 
Q 1341 3281 1617 3432 
Q 1894 3584 2278 3584 
Q 2916 3584 3314 3078 
Q 3713 2572 3713 1747 
Q 3713 922 3314 415 
Q 2916 -91 2278 -91 
Q 1894 -91 1617 61 
Q 1341 213 1159 525 
L 1159 0 
L 581 0 
L 581 4863 
L 1159 4863 
L 1159 2969 
z
" transform="scale(0.015625)"/>
      <path id="DejaVuSans-4c" d="M 628 4666 
L 1259 4666 
L 1259 531 
L 3531 531 
L 3531 0 
L 628 0 
L 628 4666 
z
" transform="scale(0.015625)"/>
      <path id="DejaVuSans-28" d="M 1984 4856 
Q 1566 4138 1362 3434 
Q 1159 2731 1159 2009 
Q 1159 1288 1364 580 
Q 1569 -128 1984 -844 
L 1484 -844 
Q 1016 -109 783 600 
Q 550 1309 550 2009 
Q 550 2706 781 3412 
Q 1013 4119 1484 4856 
L 1984 4856 
z
" transform="scale(0.015625)"/>
      <path id="DejaVuSans-76" d="M 191 3500 
L 800 3500 
L 1894 563 
L 2988 3500 
L 3597 3500 
L 2284 0 
L 1503 0 
L 191 3500 
z
" transform="scale(0.015625)"/>
      <path id="DejaVuSans-78" d="M 3513 3500 
L 2247 1797 
L 3578 0 
L 2900 0 
L 1881 1375 
L 863 0 
L 184 0 
L 1544 1831 
L 300 3500 
L 978 3500 
L 1906 2253 
L 2834 3500 
L 3513 3500 
z
" transform="scale(0.015625)"/>
      <path id="DejaVuSans-29" d="M 513 4856 
L 1013 4856 
Q 1481 4119 1714 3412 
Q 1947 2706 1947 2009 
Q 1947 1309 1714 600 
Q 1481 -109 1013 -844 
L 513 -844 
Q 928 -128 1133 580 
Q 1338 1288 1338 2009 
Q 1338 2731 1133 3434 
Q 928 4138 513 4856 
z
" transform="scale(0.015625)"/>
      <path id="DejaVuSans-50" d="M 1259 4147 
L 1259 2394 
L 2053 2394 
Q 2494 2394 2734 2622 
Q 2975 2850 2975 3272 
Q 2975 3691 2734 3919 
Q 2494 4147 2053 4147 
L 1259 4147 
z
M 628 4666 
L 2053 4666 
Q 2838 4666 3239 4311 
Q 3641 3956 3641 3272 
Q 3641 2581 3239 2228 
Q 2838 1875 2053 1875 
L 1259 1875 
L 1259 0 
L 628 0 
L 628 4666 
z
" transform="scale(0.015625)"/>
     </defs>
     <use xlink:href="#DejaVuSans-56"/>
     <use xlink:href="#DejaVuSans-6f" x="60.658203"/>
     <use xlink:href="#DejaVuSans-69" x="121.839844"/>
     <use xlink:href="#DejaVuSans-63" x="149.623047"/>
     <use xlink:href="#DejaVuSans-65" x="204.603516"/>
     <use xlink:href="#DejaVuSans-20" x="266.126953"/>
     <use xlink:href="#DejaVuSans-72" x="297.914062"/>
     <use xlink:href="#DejaVuSans-65" x="336.777344"/>
     <use xlink:href="#DejaVuSans-63" x="398.300781"/>
     <use xlink:href="#DejaVuSans-6f" x="453.28125"/>
     <use xlink:href="#DejaVuSans-67" x="514.462891"/>
     <use xlink:href="#DejaVuSans-6e" x="577.939453"/>
     <use xlink:href="#DejaVuSans-69" x="641.318359"/>
     <use xlink:href="#DejaVuSans-74" x="669.101562"/>
     <use xlink:href="#DejaVuSans-69" x="708.310547"/>
     <use xlink:href="#DejaVuSans-6f" x="736.09375"/>
     <use xlink:href="#DejaVuSans-6e" x="797.275391"/>
     <use xlink:href="#DejaVuSans-20" x="860.654297"/>
     <use xlink:href="#DejaVuSans-62" x="892.441406"/>
     <use xlink:href="#DejaVuSans-79" x="955.917969"/>
     <use xlink:href="#DejaVuSans-20" x="1015.097656"/>
     <use xlink:href="#DejaVuSans-4c" x="1046.884766"/>
     <use xlink:href="#DejaVuSans-6f" x="1100.847656"/>
     <use xlink:href="#DejaVuSans-63" x="1162.029297"/>
     <use xlink:href="#DejaVuSans-61" x="1217.009766"/>
     <use xlink:href="#DejaVuSans-74" x="1278.289062"/>
     <use xlink:href="#DejaVuSans-69" x="1317.498047"/>
     <use xlink:href="#DejaVuSans-6f" x="1345.28125"/>
     <use xlink:href="#DejaVuSans-6e" x="1406.462891"/>
     <use xlink:href="#DejaVuSans-20" x="1469.841797"/>
     <use xlink:href="#DejaVuSans-28" x="1501.628906"/>
     <use xlink:href="#DejaVuSans-63" x="1540.642578"/>
     <use xlink:href="#DejaVuSans-65" x="1595.623047"/>
     <use xlink:href="#DejaVuSans-6e" x="1657.146484"/>
     <use xlink:href="#DejaVuSans-74" x="1720.525391"/>
     <use xlink:href="#DejaVuSans-72" x="1759.734375"/>
     <use xlink:href="#DejaVuSans-61" x="1800.847656"/>
     <use xlink:href="#DejaVuSans-6c" x="1862.126953"/>
     <use xlink:href="#DejaVuSans-20" x="1889.910156"/>
     <use xlink:href="#DejaVuSans-76" x="1921.697266"/>
     <use xlink:href="#DejaVuSans-73" x="1980.876953"/>
     <use xlink:href="#DejaVuSans-20" x="2032.976562"/>
     <use xlink:href="#DejaVuSans-65" x="2064.763672"/>
     <use xlink:href="#DejaVuSans-78" x="2124.537109"/>
     <use xlink:href="#DejaVuSans-74" x="2183.716797"/>
     <use xlink:href="#DejaVuSans-65" x="2222.925781"/>
     <use xlink:href="#DejaVuSans-72" x="2284.449219"/>
     <use xlink:href="#DejaVuSans-6e" x="2323.8125"/>
     <use xlink:href="#DejaVuSans-61" x="2387.191406"/>
     <use xlink:href="#DejaVuSans-6c" x="2448.470703"/>
     <use xlink:href="#DejaVuSans-29" x="2476.253906"/>
     <use xlink:href="#DejaVuSans-20" x="2515.267578"/>
     <use xlink:href="#DejaVuSans-56" x="2547.054688"/>
     <use xlink:href="#DejaVuSans-50" x="2615.462891"/>
     <use xlink:href="#DejaVuSans-32" x="2675.765625"/>
     <use xlink:href="#DejaVuSans-30" x="2739.388672"/>
    </g>
   </g>
   <g id="legend_1">
    <g id="patch_7">
     <path d="M 629.05 64.23625 
L 702.2 64.23625 
Q 704.2 64.23625 704.2 62.23625 
L 704.2 33.88 
Q 704.2 31.88 702.2 31.88 
L 629.05 31.88 
Q 627.05 31.88 627.05 33.88 
L 627.05 62.23625 
Q 627.05 64.23625 629.05 64.23625 
z
" style="fill: #ffffff; opacity: 0.8; stroke: #cccccc; stroke-linejoin: miter"/>
    </g>
    <g id="line2d_14">
     <path d="M 631.05 39.978437 
L 641.05 39.978437 
L 651.05 39.978437 
" style="fill: none; stroke: #0000ff; stroke-width: 1.5; stroke-linecap: square"/>
    </g>
    <g id="text_15">
     <!-- central -->
     <g transform="translate(659.05 43.478437) scale(0.1 -0.1)">
      <use xlink:href="#DejaVuSans-63"/>
      <use xlink:href="#DejaVuSans-65" x="54.980469"/>
      <use xlink:href="#DejaVuSans-6e" x="116.503906"/>
      <use xlink:href="#DejaVuSans-74" x="179.882812"/>
      <use xlink:href="#DejaVuSans-72" x="219.091797"/>
      <use xlink:href="#DejaVuSans-61" x="260.205078"/>
      <use xlink:href="#DejaVuSans-6c" x="321.484375"/>
     </g>
    </g>
    <g id="line2d_15">
     <path d="M 631.05 54.656563 
L 641.05 54.656563 
L 651.05 54.656563 
" style="fill: none; stroke: #ff0000; stroke-width: 1.5; stroke-linecap: square"/>
    </g>
    <g id="text_16">
     <!-- external -->
     <g transform="translate(659.05 58.156563) scale(0.1 -0.1)">
      <use xlink:href="#DejaVuSans-65"/>
      <use xlink:href="#DejaVuSans-78" x="59.773438"/>
      <use xlink:href="#DejaVuSans-74" x="118.953125"/>
      <use xlink:href="#DejaVuSans-65" x="158.162109"/>
      <use xlink:href="#DejaVuSans-72" x="219.685547"/>
      <use xlink:href="#DejaVuSans-6e" x="259.048828"/>
      <use xlink:href="#DejaVuSans-61" x="322.427734"/>
      <use xlink:href="#DejaVuSans-6c" x="383.707031"/>
     </g>
    </g>
   </g>
  </g>
 </g>
 <defs>
  <clipPath id="paa1daf554a">
   <rect x="47.72" y="26.88" width="661.48" height="323.529509"/>
  </clipPath>
 </defs>
</svg>
