<?xml version="1.0" encoding="utf-8" standalone="no"?>
<!DOCTYPE svg PUBLIC "-//W3C//DTD SVG 1.1//EN"
  "http://www.w3.org/Graphics/SVG/1.1/DTD/svg11.dtd">
<svg xmlns:xlink="http://www.w3.org/1999/xlink" width="720pt" height="432pt" viewBox="0 0 720 432" xmlns="http://www.w3.org/2000/svg" version="1.1">
 <metadata>
  <rdf:RDF xmlns:dc="http://purl.org/dc/elements/1.1/" xmlns:cc="http://creativecommons.org/ns#" xmlns:rdf="http://www.w3.org/1999/02/22-rdf-syntax-ns#">
   <cc:Work>
    <dc:type rdf:resource="http://purl.org/dc/dcmitype/StillImage"/>
    <dc:date>2024-12-18T16:22:23.962108</dc:date>
    <dc:format>image/svg+xml</dc:format>
    <dc:creator>
     <cc:Agent>
      <dc:title>Matplotlib v3.9.3, https://matplotlib.org/</dc:title>
     </cc:Agent>
    </dc:creator>
   </cc:Work>
  </rdf:RDF>
 </metadata>
 <defs>
  <style type="text/css">*{stroke-linejoin: round; stroke-linecap: butt}</style>
 </defs>
 <g id="figure_1">
  <g id="patch_1">
   <path d="M 0 432 
L 720 432 
L 720 0 
L 0 0 
z
" style="fill: #ffffff"/>
  </g>
  <g id="axes_1">
   <g id="patch_2">
    <path d="M 47.72 350.409509 
L 709.2 350.409509 
L 709.2 26.88 
L 47.72 26.88 
z
" style="fill: #ffffff"/>
   </g>
   <g id="PolyCollection_1">
    <defs>
     <path id="md0f772a797" d="M 77.787273 -336.361734 
L 77.787273 -275.100384 
L 78.992374 -273.995297 
L 80.197475 -272.957321 
L 81.402576 -271.985082 
L 82.607677 -271.07721 
L 83.812778 -270.232331 
L 85.017879 -269.449073 
L 86.222981 -268.726063 
L 87.428082 -268.061929 
L 88.633183 -267.4553 
L 89.838284 -266.904801 
L 91.043385 -266.409061 
L 92.248486 -265.966708 
L 93.453587 -265.576369 
L 94.658688 -265.236672 
L 95.863789 -264.946244 
L 97.068891 -264.703713 
L 98.273992 -264.507706 
L 99.479093 -264.356851 
L 100.684194 -264.249777 
L 101.889295 -264.185109 
L 103.094396 -264.161476 
L 104.299497 -264.177506 
L 105.504598 -264.231825 
L 106.709699 -264.323063 
L 107.914801 -264.449846 
L 109.119902 -264.610801 
L 110.325003 -264.804557 
L 111.530104 -265.029741 
L 112.735205 -265.284981 
L 113.940306 -265.568903 
L 115.145407 -265.880137 
L 116.350508 -266.217309 
L 117.555609 -266.579047 
L 118.760711 -266.963979 
L 119.965812 -267.370732 
L 121.170913 -267.797934 
L 122.376014 -268.244212 
L 123.581115 -268.708194 
L 124.786216 -269.188508 
L 125.991317 -269.683781 
L 127.196418 -270.192641 
L 128.401519 -270.713715 
L 129.606621 -271.245631 
L 130.811722 -271.787017 
L 132.016823 -272.3365 
L 133.221924 -272.892708 
L 134.427025 -273.454268 
L 135.632126 -274.019808 
L 136.837227 -274.587956 
L 138.042328 -275.157338 
L 139.247429 -275.726584 
L 140.452531 -276.29432 
L 141.657632 -276.859174 
L 142.862733 -277.419773 
L 144.067834 -277.974746 
L 145.272935 -278.522719 
L 146.478036 -279.062321 
L 147.683137 -279.592178 
L 148.888238 -280.110919 
L 150.093339 -280.617172 
L 151.298441 -281.109563 
L 152.503542 -281.58672 
L 153.708643 -282.047271 
L 154.913744 -282.489844 
L 156.118845 -282.913066 
L 157.323946 -283.315564 
L 158.529047 -283.695967 
L 159.734148 -284.052902 
L 160.939249 -284.384996 
L 162.144351 -284.690877 
L 163.349452 -284.969173 
L 164.554553 -285.218511 
L 165.759654 -285.43752 
L 166.964755 -285.624825 
L 168.169856 -285.779056 
L 169.374957 -285.898839 
L 170.580058 -285.982803 
L 171.785159 -286.029575 
L 172.990261 -286.037782 
L 174.195362 -286.006052 
L 175.400463 -285.933012 
L 176.605564 -285.817291 
L 177.810665 -285.657516 
L 179.015766 -285.452314 
L 180.220867 -285.200313 
L 181.425968 -284.900141 
L 182.631069 -284.550425 
L 183.836171 -284.149793 
L 185.041272 -283.696873 
L 186.246373 -283.190291 
L 187.451474 -282.628676 
L 188.656575 -282.010655 
L 189.861676 -281.334856 
L 191.066777 -280.599907 
L 192.271878 -279.804434 
L 193.476979 -278.947066 
L 194.682081 -278.02643 
L 195.887182 -277.041154 
L 197.092283 -275.989866 
L 198.297384 -274.85796 
L 199.502485 -273.605507 
L 200.707586 -272.2878 
L 201.912687 -270.907528 
L 203.117788 -269.467383 
L 204.322889 -267.970054 
L 205.527991 -266.418231 
L 206.733092 -264.814605 
L 207.938193 -263.161867 
L 209.143294 -261.462706 
L 210.348395 -259.719814 
L 211.553496 -257.935879 
L 212.758597 -256.113593 
L 213.963698 -254.255646 
L 215.168799 -252.364728 
L 216.373901 -250.443529 
L 217.579002 -248.49474 
L 218.784103 -246.521052 
L 219.989204 -244.525154 
L 221.194305 -242.509736 
L 222.399406 -240.477489 
L 223.604507 -238.431104 
L 224.809608 -236.373271 
L 226.014709 -234.306679 
L 227.219811 -232.23402 
L 228.424912 -230.157983 
L 229.630013 -228.081259 
L 230.835114 -226.006538 
L 232.040215 -223.936511 
L 233.245316 -221.873867 
L 234.450417 -219.821298 
L 235.655518 -217.781493 
L 236.860619 -215.757143 
L 238.065721 -213.750938 
L 239.270822 -211.765568 
L 240.475923 -209.803724 
L 241.681024 -207.868096 
L 242.886125 -205.961375 
L 244.091226 -204.086249 
L 245.296327 -202.245411 
L 246.501428 -200.44155 
L 247.706529 -198.677357 
L 248.911631 -196.955521 
L 250.116732 -195.278734 
L 251.321833 -193.649685 
L 252.526934 -192.071065 
L 253.732035 -190.545563 
L 254.937136 -189.075872 
L 256.142237 -187.66468 
L 257.347338 -186.314678 
L 258.552439 -185.056093 
L 259.757541 -183.926746 
L 260.962642 -182.860719 
L 262.167743 -181.856132 
L 263.372844 -180.911106 
L 264.577945 -180.02376 
L 265.783046 -179.192215 
L 266.988147 -178.414591 
L 268.193248 -177.689008 
L 269.398349 -177.013587 
L 270.603451 -176.386447 
L 271.808552 -175.80571 
L 273.013653 -175.269495 
L 274.218754 -174.775922 
L 275.423855 -174.323112 
L 276.628956 -173.909184 
L 277.834057 -173.53226 
L 279.039158 -173.19046 
L 280.244259 -172.881902 
L 281.449361 -172.604709 
L 282.654462 -172.357 
L 283.859563 -172.136895 
L 285.064664 -171.942515 
L 286.269765 -171.77198 
L 287.474866 -171.623409 
L 288.679967 -171.494924 
L 289.885068 -171.384645 
L 291.090169 -171.290691 
L 292.295271 -171.211183 
L 293.500372 -171.144242 
L 294.705473 -171.087986 
L 295.910574 -171.040538 
L 297.115675 -171.000016 
L 298.320776 -170.964542 
L 299.525877 -170.932235 
L 300.730978 -170.901216 
L 301.936079 -170.869605 
L 303.141181 -170.835521 
L 304.346282 -170.797086 
L 305.551383 -170.75242 
L 306.756484 -170.699642 
L 307.961585 -170.636874 
L 309.166686 -170.562235 
L 310.371787 -170.473845 
L 311.576888 -170.369825 
L 312.781989 -170.248295 
L 313.987091 -170.107376 
L 315.192192 -169.945186 
L 316.397293 -169.759848 
L 317.602394 -169.54948 
L 318.807495 -169.341609 
L 320.012596 -169.150123 
L 321.217697 -168.931521 
L 322.422798 -168.686458 
L 323.627899 -168.415593 
L 324.833001 -168.119582 
L 326.038102 -167.799082 
L 327.243203 -167.454751 
L 328.448304 -167.087245 
L 329.653405 -166.697222 
L 330.858506 -166.285338 
L 332.063607 -165.85225 
L 333.268708 -165.398616 
L 334.473809 -164.925093 
L 335.678911 -164.432337 
L 336.884012 -163.921006 
L 338.089113 -163.391757 
L 339.294214 -162.845246 
L 340.499315 -162.282132 
L 341.704416 -161.70307 
L 342.909517 -161.108718 
L 344.114618 -160.499733 
L 345.319719 -159.876771 
L 346.524821 -159.240491 
L 347.729922 -158.591549 
L 348.935023 -157.930602 
L 350.140124 -157.258306 
L 351.345225 -156.57532 
L 352.550326 -155.882301 
L 353.755427 -155.179904 
L 354.960528 -154.468788 
L 356.165629 -153.749609 
L 357.370731 -153.023024 
L 358.575832 -152.28969 
L 359.780933 -151.550265 
L 360.986034 -150.805406 
L 362.191135 -150.055769 
L 363.396236 -149.302011 
L 364.601337 -148.54479 
L 365.806438 -147.784763 
L 367.011539 -147.022586 
L 368.216641 -146.258917 
L 369.421742 -145.494412 
L 370.626843 -144.729729 
L 371.831944 -143.965526 
L 373.037045 -143.202457 
L 374.242146 -142.441182 
L 375.447247 -141.682357 
L 376.652348 -140.926638 
L 377.857449 -140.174684 
L 379.062551 -139.482074 
L 380.267652 -138.849179 
L 381.472753 -138.221163 
L 382.677854 -137.598112 
L 383.882955 -136.980111 
L 385.088056 -136.367246 
L 386.293157 -135.759604 
L 387.498258 -135.157269 
L 388.703359 -134.560329 
L 389.908461 -133.968869 
L 391.113562 -133.382975 
L 392.318663 -132.802733 
L 393.523764 -132.228229 
L 394.728865 -131.659549 
L 395.933966 -131.096779 
L 397.139067 -130.540005 
L 398.344168 -129.989313 
L 399.549269 -129.444788 
L 400.754371 -128.906517 
L 401.959472 -128.374586 
L 403.164573 -127.84908 
L 404.369674 -127.330086 
L 405.574775 -126.817689 
L 406.779876 -126.311976 
L 407.984977 -125.813032 
L 409.190078 -125.320944 
L 410.395179 -124.835797 
L 411.600281 -124.357677 
L 412.805382 -123.88667 
L 414.010483 -123.422863 
L 415.215584 -122.966341 
L 416.420685 -122.517189 
L 417.625786 -122.075495 
L 418.830887 -121.641344 
L 420.035988 -121.214822 
L 421.241089 -120.796015 
L 422.446191 -120.385008 
L 423.651292 -119.981889 
L 424.856393 -119.586742 
L 426.061494 -119.199654 
L 427.266595 -118.82071 
L 428.471696 -118.449998 
L 429.676797 -118.087601 
L 430.881898 -117.733608 
L 432.086999 -117.388102 
L 433.292101 -117.051172 
L 434.497202 -116.722901 
L 435.702303 -116.403377 
L 436.907404 -116.092685 
L 438.112505 -115.790912 
L 439.317606 -115.47662 
L 440.522707 -115.156978 
L 441.727808 -114.846256 
L 442.932909 -114.544383 
L 444.138011 -114.251286 
L 445.343112 -113.96689 
L 446.548213 -113.691123 
L 447.753314 -113.423911 
L 448.958415 -113.165182 
L 450.163516 -112.914862 
L 451.368617 -112.672878 
L 452.573718 -112.439157 
L 453.778819 -112.213625 
L 454.983921 -111.99621 
L 456.189022 -111.786838 
L 457.394123 -111.585437 
L 458.599224 -111.391932 
L 459.804325 -111.206251 
L 461.009426 -111.02832 
L 462.214527 -110.858067 
L 463.419628 -110.695418 
L 464.624729 -110.540299 
L 465.829831 -110.392639 
L 467.034932 -110.252363 
L 468.240033 -110.119399 
L 469.445134 -109.993673 
L 470.650235 -109.875112 
L 471.855336 -109.763643 
L 473.060437 -109.659192 
L 474.265538 -109.561687 
L 475.470639 -109.471054 
L 476.675741 -109.387221 
L 477.880842 -109.310113 
L 479.085943 -109.239658 
L 480.291044 -109.175783 
L 481.496145 -109.118414 
L 482.701246 -109.067478 
L 483.906347 -109.022902 
L 485.111448 -108.984614 
L 486.316549 -108.952538 
L 487.521651 -108.926603 
L 488.726752 -108.906736 
L 489.931853 -108.892862 
L 491.136954 -108.88491 
L 492.342055 -108.882805 
L 493.547156 -108.886475 
L 494.752257 -108.895846 
L 495.957358 -108.910845 
L 497.162459 -108.931399 
L 498.367561 -108.957435 
L 499.572662 -108.98888 
L 500.777763 -109.02566 
L 501.982864 -109.067702 
L 503.187965 -109.114934 
L 504.393066 -109.167281 
L 505.598167 -109.224671 
L 506.803268 -109.28703 
L 508.008369 -109.354286 
L 509.213471 -109.426365 
L 510.418572 -109.503194 
L 511.623673 -109.584699 
L 512.828774 -109.670809 
L 514.033875 -109.761448 
L 515.238976 -109.856545 
L 516.444077 -109.956026 
L 517.649178 -110.059817 
L 518.854279 -110.167847 
L 520.059381 -110.28004 
L 521.264482 -110.396325 
L 522.469583 -110.516629 
L 523.674684 -110.640877 
L 524.879785 -110.768996 
L 526.084886 -110.900915 
L 527.289987 -111.036558 
L 528.495088 -111.175854 
L 529.700189 -111.318729 
L 530.905291 -111.46511 
L 532.110392 -111.614923 
L 533.315493 -111.768096 
L 534.520594 -111.924555 
L 535.725695 -112.084227 
L 536.930796 -112.247039 
L 538.135897 -112.412918 
L 539.340998 -112.58179 
L 540.546099 -112.753582 
L 541.751201 -112.928222 
L 542.956302 -113.105635 
L 544.161403 -113.28575 
L 545.366504 -113.468492 
L 546.571605 -113.653788 
L 547.776706 -113.841566 
L 548.981807 -114.031751 
L 550.186908 -114.224272 
L 551.392009 -114.419054 
L 552.597111 -114.616024 
L 553.802212 -114.81511 
L 555.007313 -115.016238 
L 556.212414 -115.219335 
L 557.417515 -115.424328 
L 558.622616 -115.631143 
L 559.827717 -115.701207 
L 561.032818 -115.738321 
L 562.237919 -115.777038 
L 563.443021 -115.817285 
L 564.648122 -115.858989 
L 565.853223 -115.902076 
L 567.058324 -115.946473 
L 568.263425 -115.992108 
L 569.468526 -116.038906 
L 570.673627 -116.086795 
L 571.878728 -116.135702 
L 573.083829 -116.185553 
L 574.288931 -116.236275 
L 575.494032 -116.287795 
L 576.699133 -116.34004 
L 577.904234 -116.392936 
L 579.109335 -116.446411 
L 580.314436 -116.500391 
L 581.519537 -116.554803 
L 582.724638 -116.609574 
L 583.929739 -116.664631 
L 585.134841 -116.7199 
L 586.339942 -116.775309 
L 587.545043 -116.830783 
L 588.750144 -116.886251 
L 589.955245 -116.941638 
L 591.160346 -116.996872 
L 592.365447 -117.051879 
L 593.570548 -117.106587 
L 594.775649 -117.160921 
L 595.980751 -117.21481 
L 597.185852 -117.268178 
L 598.390953 -117.320955 
L 599.596054 -117.373066 
L 600.801155 -117.424437 
L 602.006256 -117.474997 
L 603.211357 -117.524671 
L 604.416458 -117.573387 
L 605.621559 -117.621071 
L 606.826661 -117.667651 
L 608.031762 -117.713052 
L 609.236863 -117.757202 
L 610.441964 -117.800028 
L 611.647065 -117.841456 
L 612.852166 -117.881414 
L 614.057267 -117.919827 
L 615.262368 -117.956624 
L 616.467469 -117.99173 
L 617.672571 -118.025073 
L 618.877672 -118.056578 
L 620.082773 -118.086174 
L 621.287874 -118.113787 
L 622.492975 -118.139344 
L 623.698076 -118.162772 
L 624.903177 -118.183996 
L 626.108278 -118.202945 
L 627.313379 -118.219545 
L 628.518481 -118.233723 
L 629.723582 -118.245405 
L 630.928683 -118.254519 
L 632.133784 -118.260991 
L 633.338885 -118.264749 
L 634.543986 -118.265718 
L 635.749087 -118.263826 
L 636.954188 -118.258999 
L 638.159289 -118.251165 
L 639.364391 -118.24025 
L 640.569492 -118.226181 
L 641.774593 -118.208885 
L 642.979694 -118.188288 
L 644.184795 -118.164318 
L 645.389896 -118.136901 
L 646.594997 -118.105965 
L 647.800098 -118.071435 
L 649.005199 -118.033238 
L 650.210301 -117.991303 
L 651.415402 -117.945554 
L 652.620503 -117.89592 
L 653.825604 -117.842327 
L 655.030705 -117.784701 
L 656.235806 -117.72297 
L 657.440907 -117.657061 
L 658.646008 -117.5869 
L 659.851109 -117.512413 
L 661.056211 -117.433529 
L 662.261312 -117.350173 
L 663.466413 -117.262273 
L 664.671514 -117.169755 
L 665.876615 -117.072546 
L 667.081716 -116.970573 
L 668.286817 -116.863763 
L 669.491918 -116.752042 
L 670.697019 -116.635338 
L 671.902121 -116.513577 
L 673.107222 -116.386686 
L 674.312323 -116.254591 
L 675.517424 -116.117221 
L 676.722525 -115.9745 
L 677.927626 -115.826357 
L 679.132727 -115.672719 
L 679.132727 -115.672719 
L 679.132727 -115.672719 
L 677.927626 -115.826357 
L 676.722525 -115.9745 
L 675.517424 -116.117221 
L 674.312323 -116.254591 
L 673.107222 -116.386686 
L 671.902121 -116.513577 
L 670.697019 -116.635338 
L 669.491918 -116.752042 
L 668.286817 -116.863763 
L 667.081716 -116.970573 
L 665.876615 -117.072546 
L 664.671514 -117.169755 
L 663.466413 -117.262273 
L 662.261312 -117.350173 
L 661.056211 -117.433529 
L 659.851109 -117.512413 
L 658.646008 -117.5869 
L 657.440907 -117.657061 
L 656.235806 -117.72297 
L 655.030705 -117.784701 
L 653.825604 -117.842327 
L 652.620503 -117.89592 
L 651.415402 -117.945554 
L 650.210301 -117.991303 
L 649.005199 -118.033238 
L 647.800098 -118.071435 
L 646.594997 -118.105965 
L 645.389896 -118.136901 
L 644.184795 -118.164318 
L 642.979694 -118.188288 
L 641.774593 -118.208885 
L 640.569492 -118.226181 
L 639.364391 -118.24025 
L 638.159289 -118.251165 
L 636.954188 -118.258999 
L 635.749087 -118.263826 
L 634.543986 -118.265718 
L 633.338885 -118.264749 
L 632.133784 -118.260991 
L 630.928683 -118.254519 
L 629.723582 -118.245405 
L 628.518481 -118.233723 
L 627.313379 -118.219545 
L 626.108278 -118.202945 
L 624.903177 -118.183996 
L 623.698076 -118.162772 
L 622.492975 -118.139344 
L 621.287874 -118.113787 
L 620.082773 -118.086174 
L 618.877672 -118.056578 
L 617.672571 -118.025073 
L 616.467469 -117.99173 
L 615.262368 -117.956624 
L 614.057267 -117.919827 
L 612.852166 -117.881414 
L 611.647065 -117.841456 
L 610.441964 -117.800028 
L 609.236863 -117.757202 
L 608.031762 -117.713052 
L 606.826661 -117.667651 
L 605.621559 -117.621071 
L 604.416458 -117.573387 
L 603.211357 -117.524671 
L 602.006256 -117.474997 
L 600.801155 -117.424437 
L 599.596054 -117.373066 
L 598.390953 -117.320955 
L 597.185852 -117.268178 
L 595.980751 -117.21481 
L 594.775649 -117.160921 
L 593.570548 -117.106587 
L 592.365447 -117.051879 
L 591.160346 -116.996872 
L 589.955245 -116.941638 
L 588.750144 -116.886251 
L 587.545043 -116.830783 
L 586.339942 -116.775309 
L 585.134841 -116.7199 
L 583.929739 -116.664631 
L 582.724638 -116.609574 
L 581.519537 -116.554803 
L 580.314436 -116.500391 
L 579.109335 -116.446411 
L 577.904234 -116.392936 
L 576.699133 -116.34004 
L 575.494032 -116.287795 
L 574.288931 -116.236275 
L 573.083829 -116.185553 
L 571.878728 -116.135702 
L 570.673627 -116.086795 
L 569.468526 -116.038906 
L 568.263425 -115.992108 
L 567.058324 -115.946473 
L 565.853223 -115.902076 
L 564.648122 -115.858989 
L 563.443021 -115.817285 
L 562.237919 -115.777038 
L 561.032818 -115.738321 
L 559.827717 -115.701207 
L 558.622616 -115.700394 
L 557.417515 -115.839832 
L 556.212414 -115.981092 
L 555.007313 -116.124248 
L 553.802212 -116.269374 
L 552.597111 -116.416541 
L 551.392009 -116.565823 
L 550.186908 -116.717294 
L 548.981807 -116.871027 
L 547.776706 -117.027094 
L 546.571605 -117.18557 
L 545.366504 -117.346527 
L 544.161403 -117.510038 
L 542.956302 -117.676177 
L 541.751201 -117.845016 
L 540.546099 -118.01663 
L 539.340998 -118.19109 
L 538.135897 -118.368471 
L 536.930796 -118.548846 
L 535.725695 -118.732287 
L 534.520594 -118.918868 
L 533.315493 -119.108662 
L 532.110392 -119.301743 
L 530.905291 -119.498182 
L 529.700189 -119.698055 
L 528.495088 -119.901433 
L 527.289987 -120.10839 
L 526.084886 -120.319 
L 524.879785 -120.533335 
L 523.674684 -120.751468 
L 522.469583 -120.973473 
L 521.264482 -121.199423 
L 520.059381 -121.429391 
L 518.854279 -121.66345 
L 517.649178 -121.901674 
L 516.444077 -122.144136 
L 515.238976 -122.390908 
L 514.033875 -122.642064 
L 512.828774 -122.897678 
L 511.623673 -123.157822 
L 510.418572 -123.422569 
L 509.213471 -123.691994 
L 508.008369 -123.966168 
L 506.803268 -124.245165 
L 505.598167 -124.529059 
L 504.393066 -124.817922 
L 503.187965 -125.111828 
L 501.982864 -125.41085 
L 500.777763 -125.715061 
L 499.572662 -126.024534 
L 498.367561 -126.339342 
L 497.162459 -126.659559 
L 495.957358 -126.985258 
L 494.752257 -127.316512 
L 493.547156 -127.653394 
L 492.342055 -127.995978 
L 491.136954 -128.344336 
L 489.931853 -128.698541 
L 488.726752 -129.058668 
L 487.521651 -129.424788 
L 486.316549 -129.796976 
L 485.111448 -130.175305 
L 483.906347 -130.559847 
L 482.701246 -130.950676 
L 481.496145 -131.347865 
L 480.291044 -131.751487 
L 479.085943 -132.161615 
L 477.880842 -132.578323 
L 476.675741 -133.001684 
L 475.470639 -133.431771 
L 474.265538 -133.868656 
L 473.060437 -134.312415 
L 471.855336 -134.763118 
L 470.650235 -135.220841 
L 469.445134 -135.685655 
L 468.240033 -136.157634 
L 467.034932 -136.636851 
L 465.829831 -137.12338 
L 464.624729 -137.617294 
L 463.419628 -138.118665 
L 462.214527 -138.627567 
L 461.009426 -139.144074 
L 459.804325 -139.668257 
L 458.599224 -140.200192 
L 457.394123 -140.73995 
L 456.189022 -141.287605 
L 454.983921 -141.843229 
L 453.778819 -142.406898 
L 452.573718 -142.978682 
L 451.368617 -143.558657 
L 450.163516 -144.146894 
L 448.958415 -144.743467 
L 447.753314 -145.348449 
L 446.548213 -145.961914 
L 445.343112 -146.583934 
L 444.138011 -147.214583 
L 442.932909 -147.853934 
L 441.727808 -148.50206 
L 440.522707 -149.159034 
L 439.317606 -149.82493 
L 438.112505 -150.514163 
L 436.907404 -151.233911 
L 435.702303 -151.962577 
L 434.497202 -152.700075 
L 433.292101 -153.44632 
L 432.086999 -154.201225 
L 430.881898 -154.964705 
L 429.676797 -155.736672 
L 428.471696 -156.517043 
L 427.266595 -157.30573 
L 426.061494 -158.102648 
L 424.856393 -158.90771 
L 423.651292 -159.720831 
L 422.446191 -160.541925 
L 421.241089 -161.370906 
L 420.035988 -162.207687 
L 418.830887 -163.052183 
L 417.625786 -163.904309 
L 416.420685 -164.763977 
L 415.215584 -165.631103 
L 414.010483 -166.505599 
L 412.805382 -167.387381 
L 411.600281 -168.276361 
L 410.395179 -169.172455 
L 409.190078 -170.075577 
L 407.984977 -170.985639 
L 406.779876 -171.902557 
L 405.574775 -172.826245 
L 404.369674 -173.756616 
L 403.164573 -174.693584 
L 401.959472 -175.637064 
L 400.754371 -176.58697 
L 399.549269 -177.543215 
L 398.344168 -178.505714 
L 397.139067 -179.47438 
L 395.933966 -180.449129 
L 394.728865 -181.429873 
L 393.523764 -182.416527 
L 392.318663 -183.409006 
L 391.113562 -184.407222 
L 389.908461 -185.41109 
L 388.703359 -186.420524 
L 387.498258 -187.435438 
L 386.293157 -188.455747 
L 385.088056 -189.481364 
L 383.882955 -190.512203 
L 382.677854 -191.548178 
L 381.472753 -192.589204 
L 380.267652 -193.635194 
L 379.062551 -194.686062 
L 377.857449 -195.686776 
L 376.652348 -196.636964 
L 375.447247 -197.590916 
L 374.242146 -198.547975 
L 373.037045 -199.507483 
L 371.831944 -200.468785 
L 370.626843 -201.431222 
L 369.421742 -202.394138 
L 368.216641 -203.356876 
L 367.011539 -204.318778 
L 365.806438 -205.279188 
L 364.601337 -206.237449 
L 363.396236 -207.192904 
L 362.191135 -208.144895 
L 360.986034 -209.092765 
L 359.780933 -210.035858 
L 358.575832 -210.973516 
L 357.370731 -211.905083 
L 356.165629 -212.829901 
L 354.960528 -213.747313 
L 353.755427 -214.656663 
L 352.550326 -215.557293 
L 351.345225 -216.448546 
L 350.140124 -217.329765 
L 348.935023 -218.200294 
L 347.729922 -219.059474 
L 346.524821 -219.90665 
L 345.319719 -220.741163 
L 344.114618 -221.562358 
L 342.909517 -222.369577 
L 341.704416 -223.162162 
L 340.499315 -223.939457 
L 339.294214 -224.700805 
L 338.089113 -225.445549 
L 336.884012 -226.173032 
L 335.678911 -226.882596 
L 334.473809 -227.573585 
L 333.268708 -228.245342 
L 332.063607 -228.897209 
L 330.858506 -229.52853 
L 329.653405 -230.138647 
L 328.448304 -230.726904 
L 327.243203 -231.292643 
L 326.038102 -231.835208 
L 324.833001 -232.35394 
L 323.627899 -232.848185 
L 322.422798 -233.317283 
L 321.217697 -233.760579 
L 320.012596 -234.177415 
L 318.807495 -234.567135 
L 317.602394 -234.885104 
L 316.397293 -235.146813 
L 315.192192 -235.383493 
L 313.987091 -235.597023 
L 312.781989 -235.789285 
L 311.576888 -235.962156 
L 310.371787 -236.117517 
L 309.166686 -236.257248 
L 307.961585 -236.383229 
L 306.756484 -236.497339 
L 305.551383 -236.601458 
L 304.346282 -236.697466 
L 303.141181 -236.787242 
L 301.936079 -236.872667 
L 300.730978 -236.95562 
L 299.525877 -237.037981 
L 298.320776 -237.121629 
L 297.115675 -237.208445 
L 295.910574 -237.300308 
L 294.705473 -237.399098 
L 293.500372 -237.506694 
L 292.295271 -237.624978 
L 291.090169 -237.755827 
L 289.885068 -237.901122 
L 288.679967 -238.062743 
L 287.474866 -238.24257 
L 286.269765 -238.442481 
L 285.064664 -238.664358 
L 283.859563 -238.91008 
L 282.654462 -239.181526 
L 281.449361 -239.480577 
L 280.244259 -239.809112 
L 279.039158 -240.16901 
L 277.834057 -240.562152 
L 276.628956 -240.990418 
L 275.423855 -241.455687 
L 274.218754 -241.959838 
L 273.013653 -242.504753 
L 271.808552 -243.092309 
L 270.603451 -243.724388 
L 269.398349 -244.402869 
L 268.193248 -245.129632 
L 266.988147 -245.906556 
L 265.783046 -246.735522 
L 264.577945 -247.618408 
L 263.372844 -248.557096 
L 262.167743 -249.553464 
L 260.962642 -250.609392 
L 259.757541 -251.72676 
L 258.552439 -252.907448 
L 257.347338 -254.088775 
L 256.142237 -255.306404 
L 254.937136 -256.585223 
L 253.732035 -257.922542 
L 252.526934 -259.31567 
L 251.321833 -260.761917 
L 250.116732 -262.258593 
L 248.911631 -263.803008 
L 247.706529 -265.392471 
L 246.501428 -267.024291 
L 245.296327 -268.695779 
L 244.091226 -270.404245 
L 242.886125 -272.146997 
L 241.681024 -273.921346 
L 240.475923 -275.724601 
L 239.270822 -277.554072 
L 238.065721 -279.407069 
L 236.860619 -281.280901 
L 235.655518 -283.172878 
L 234.450417 -285.08031 
L 233.245316 -287.000506 
L 232.040215 -288.930777 
L 230.835114 -290.868431 
L 229.630013 -292.810779 
L 228.424912 -294.75513 
L 227.219811 -296.698794 
L 226.014709 -298.63908 
L 224.809608 -300.573299 
L 223.604507 -302.49876 
L 222.399406 -304.412772 
L 221.194305 -306.312646 
L 219.989204 -308.19569 
L 218.784103 -310.059216 
L 217.579002 -311.900532 
L 216.373901 -313.716947 
L 215.168799 -315.505773 
L 213.963698 -317.264318 
L 212.758597 -318.989892 
L 211.553496 -320.679806 
L 210.348395 -322.331367 
L 209.143294 -323.941887 
L 207.938193 -325.508675 
L 206.733092 -327.02904 
L 205.527991 -328.500293 
L 204.322889 -329.919743 
L 203.117788 -331.284699 
L 201.912687 -332.592472 
L 200.707586 -333.84037 
L 199.502485 -335.025705 
L 198.297384 -336.145785 
L 197.092283 -337.251216 
L 195.887182 -338.302504 
L 194.682081 -339.28778 
L 193.476979 -340.208416 
L 192.271878 -341.065784 
L 191.066777 -341.861257 
L 189.861676 -342.596206 
L 188.656575 -343.272005 
L 187.451474 -343.890026 
L 186.246373 -344.451641 
L 185.041272 -344.958223 
L 183.836171 -345.411143 
L 182.631069 -345.811775 
L 181.425968 -346.161491 
L 180.220867 -346.461663 
L 179.015766 -346.713664 
L 177.810665 -346.918866 
L 176.605564 -347.078641 
L 175.400463 -347.194362 
L 174.195362 -347.267402 
L 172.990261 -347.299131 
L 171.785159 -347.290925 
L 170.580058 -347.244153 
L 169.374957 -347.160189 
L 168.169856 -347.040406 
L 166.964755 -346.886175 
L 165.759654 -346.69887 
L 164.554553 -346.479861 
L 163.349452 -346.230523 
L 162.144351 -345.952227 
L 160.939249 -345.646346 
L 159.734148 -345.314252 
L 158.529047 -344.957317 
L 157.323946 -344.576914 
L 156.118845 -344.174416 
L 154.913744 -343.751194 
L 153.708643 -343.308621 
L 152.503542 -342.84807 
L 151.298441 -342.370913 
L 150.093339 -341.878522 
L 148.888238 -341.372269 
L 147.683137 -340.853528 
L 146.478036 -340.323671 
L 145.272935 -339.784069 
L 144.067834 -339.236096 
L 142.862733 -338.681123 
L 141.657632 -338.120524 
L 140.452531 -337.55567 
L 139.247429 -336.987934 
L 138.042328 -336.418688 
L 136.837227 -335.849306 
L 135.632126 -335.281158 
L 134.427025 -334.715618 
L 133.221924 -334.154058 
L 132.016823 -333.59785 
L 130.811722 -333.048367 
L 129.606621 -332.506981 
L 128.401519 -331.975065 
L 127.196418 -331.453991 
L 125.991317 -330.945131 
L 124.786216 -330.449858 
L 123.581115 -329.969544 
L 122.376014 -329.505562 
L 121.170913 -329.059284 
L 119.965812 -328.632082 
L 118.760711 -328.225329 
L 117.555609 -327.840397 
L 116.350508 -327.478659 
L 115.145407 -327.141487 
L 113.940306 -326.830253 
L 112.735205 -326.54633 
L 111.530104 -326.291091 
L 110.325003 -326.065907 
L 109.119902 -325.872151 
L 107.914801 -325.711195 
L 106.709699 -325.584413 
L 105.504598 -325.493175 
L 104.299497 -325.438856 
L 103.094396 -325.422826 
L 101.889295 -325.446459 
L 100.684194 -325.511126 
L 99.479093 -325.618201 
L 98.273992 -325.769056 
L 97.068891 -325.965063 
L 95.863789 -326.207594 
L 94.658688 -326.498022 
L 93.453587 -326.837719 
L 92.248486 -327.228058 
L 91.043385 -327.670411 
L 89.838284 -328.166151 
L 88.633183 -328.71665 
L 87.428082 -329.323279 
L 86.222981 -329.987413 
L 85.017879 -330.710423 
L 83.812778 -331.493681 
L 82.607677 -332.33856 
L 81.402576 -333.246432 
L 80.197475 -334.21867 
L 78.992374 -335.256647 
L 77.787273 -336.361734 
z
" style="stroke: #0000ff; stroke-opacity: 0.2"/>
    </defs>
    <g clip-path="url(#p16a626f3d9)">
     <use xlink:href="#md0f772a797" x="0" y="432" style="fill: #0000ff; fill-opacity: 0.2; stroke: #0000ff; stroke-opacity: 0.2"/>
    </g>
   </g>
   <g id="PolyCollection_2">
    <defs>
     <path id="m846e4431ed" d="M 77.787273 -374.843182 
L 77.787273 -340.28712 
L 78.992374 -341.77087 
L 80.197475 -343.171242 
L 81.402576 -344.489657 
L 82.607677 -345.727537 
L 83.812778 -346.886302 
L 85.017879 -347.967375 
L 86.222981 -348.972176 
L 87.428082 -349.902126 
L 88.633183 -350.758647 
L 89.838284 -351.543161 
L 91.043385 -352.257088 
L 92.248486 -352.901849 
L 93.453587 -353.478867 
L 94.658688 -353.989561 
L 95.863789 -354.435354 
L 97.068891 -354.817667 
L 98.273992 -355.137921 
L 99.479093 -355.397538 
L 100.684194 -355.597938 
L 101.889295 -355.740542 
L 103.094396 -355.826773 
L 104.299497 -355.858051 
L 105.504598 -355.835798 
L 106.709699 -355.761435 
L 107.914801 -355.636383 
L 109.119902 -355.462064 
L 110.325003 -355.239898 
L 111.530104 -354.971307 
L 112.735205 -354.657713 
L 113.940306 -354.300536 
L 115.145407 -353.901198 
L 116.350508 -353.46112 
L 117.555609 -352.981723 
L 118.760711 -352.464429 
L 119.965812 -351.910659 
L 121.170913 -351.321835 
L 122.376014 -350.699376 
L 123.581115 -350.044706 
L 124.786216 -349.359244 
L 125.991317 -348.644413 
L 127.196418 -347.901633 
L 128.401519 -347.132326 
L 129.606621 -346.337913 
L 130.811722 -345.519815 
L 132.016823 -344.679454 
L 133.221924 -343.818251 
L 134.427025 -342.937627 
L 135.632126 -342.039004 
L 136.837227 -341.123802 
L 138.042328 -340.172544 
L 139.247429 -339.019463 
L 140.452531 -337.854066 
L 141.657632 -336.677777 
L 142.862733 -335.492016 
L 144.067834 -334.298204 
L 145.272935 -333.097762 
L 146.478036 -331.892113 
L 147.683137 -330.682676 
L 148.888238 -329.470874 
L 150.093339 -328.258128 
L 151.298441 -327.045859 
L 152.503542 -325.835488 
L 153.708643 -324.628436 
L 154.913744 -323.426125 
L 156.118845 -322.229976 
L 157.323946 -321.041411 
L 158.529047 -319.86185 
L 159.734148 -318.692715 
L 160.939249 -317.535427 
L 162.144351 -316.391407 
L 163.349452 -315.262078 
L 164.554553 -314.148859 
L 165.759654 -313.053172 
L 166.964755 -311.976439 
L 168.169856 -310.92008 
L 169.374957 -309.885518 
L 170.580058 -308.874172 
L 171.785159 -307.887466 
L 172.990261 -306.926819 
L 174.195362 -305.993653 
L 175.400463 -305.08939 
L 176.605564 -304.21545 
L 177.810665 -303.373255 
L 179.015766 -302.564227 
L 180.220867 -301.789786 
L 181.425968 -301.051353 
L 182.631069 -300.350351 
L 183.836171 -299.688199 
L 185.041272 -299.066321 
L 186.246373 -298.486136 
L 187.451474 -297.949066 
L 188.656575 -297.456533 
L 189.861676 -297.009957 
L 191.066777 -296.61076 
L 192.271878 -296.260364 
L 193.476979 -295.960188 
L 194.682081 -295.711656 
L 195.887182 -295.516187 
L 197.092283 -295.375204 
L 198.297384 -295.348594 
L 199.502485 -295.61196 
L 200.707586 -295.928848 
L 201.912687 -296.296324 
L 203.117788 -296.711452 
L 204.322889 -297.171298 
L 205.527991 -297.672927 
L 206.733092 -298.213405 
L 207.938193 -298.789798 
L 209.143294 -299.399169 
L 210.348395 -300.038586 
L 211.553496 -300.705112 
L 212.758597 -301.395815 
L 213.963698 -302.107758 
L 215.168799 -302.838007 
L 216.373901 -303.583627 
L 217.579002 -304.341685 
L 218.784103 -305.109245 
L 219.989204 -305.883372 
L 221.194305 -306.661133 
L 222.399406 -307.439592 
L 223.604507 -308.215814 
L 224.809608 -308.986866 
L 226.014709 -309.749812 
L 227.219811 -310.501717 
L 228.424912 -311.239648 
L 229.630013 -311.960669 
L 230.835114 -312.661846 
L 232.040215 -313.340244 
L 233.245316 -313.992929 
L 234.450417 -314.616965 
L 235.655518 -315.209419 
L 236.860619 -315.767355 
L 238.065721 -316.287839 
L 239.270822 -316.767936 
L 240.475923 -317.204712 
L 241.681024 -317.595232 
L 242.886125 -317.936562 
L 244.091226 -318.225766 
L 245.296327 -318.45991 
L 246.501428 -318.636059 
L 247.706529 -318.751279 
L 248.911631 -318.802635 
L 250.116732 -318.787193 
L 251.321833 -318.702018 
L 252.526934 -318.544174 
L 253.732035 -318.310728 
L 254.937136 -317.998745 
L 256.142237 -317.605291 
L 257.347338 -317.127429 
L 258.552439 -316.471047 
L 259.757541 -315.513627 
L 260.962642 -314.470461 
L 262.167743 -313.34436 
L 263.372844 -312.13813 
L 264.577945 -310.854581 
L 265.783046 -309.49652 
L 266.988147 -308.066755 
L 268.193248 -306.568095 
L 269.398349 -305.003348 
L 270.603451 -303.375323 
L 271.808552 -301.686827 
L 273.013653 -299.940669 
L 274.218754 -298.139657 
L 275.423855 -296.2866 
L 276.628956 -294.384304 
L 277.834057 -292.43558 
L 279.039158 -290.443235 
L 280.244259 -288.410076 
L 281.449361 -286.338914 
L 282.654462 -284.232555 
L 283.859563 -282.093808 
L 285.064664 -279.925481 
L 286.269765 -277.730383 
L 287.474866 -275.511322 
L 288.679967 -273.271105 
L 289.885068 -271.012542 
L 291.090169 -268.73844 
L 292.295271 -266.451607 
L 293.500372 -264.154853 
L 294.705473 -261.850985 
L 295.910574 -259.542811 
L 297.115675 -257.23314 
L 298.320776 -254.924779 
L 299.525877 -252.620538 
L 300.730978 -250.323224 
L 301.936079 -248.035646 
L 303.141181 -245.760611 
L 304.346282 -243.500929 
L 305.551383 -241.259407 
L 306.756484 -239.038854 
L 307.961585 -236.842077 
L 309.166686 -234.671886 
L 310.371787 -232.531087 
L 311.576888 -230.422491 
L 312.781989 -228.348904 
L 313.987091 -226.313135 
L 315.192192 -224.317992 
L 316.397293 -222.366284 
L 317.602394 -220.460819 
L 318.807495 -218.707874 
L 320.012596 -217.160131 
L 321.217697 -215.660851 
L 322.422798 -214.208411 
L 323.627899 -212.801186 
L 324.833001 -211.437554 
L 326.038102 -210.11589 
L 327.243203 -208.834571 
L 328.448304 -207.591973 
L 329.653405 -206.386474 
L 330.858506 -205.216448 
L 332.063607 -204.080273 
L 333.268708 -202.976325 
L 334.473809 -201.902981 
L 335.678911 -200.858616 
L 336.884012 -199.841607 
L 338.089113 -198.850332 
L 339.294214 -197.883165 
L 340.499315 -196.938484 
L 341.704416 -196.014665 
L 342.909517 -195.110084 
L 344.114618 -194.223118 
L 345.319719 -193.352143 
L 346.524821 -192.495535 
L 347.729922 -191.651672 
L 348.935023 -190.818929 
L 350.140124 -189.995682 
L 351.345225 -189.180309 
L 352.550326 -188.371186 
L 353.755427 -187.566688 
L 354.960528 -186.765193 
L 356.165629 -185.965077 
L 357.370731 -185.164716 
L 358.575832 -184.362487 
L 359.780933 -183.556766 
L 360.986034 -182.745929 
L 362.191135 -181.928353 
L 363.396236 -181.102415 
L 364.601337 -180.26649 
L 365.806438 -179.418956 
L 367.011539 -178.558188 
L 368.216641 -177.682563 
L 369.421742 -176.790457 
L 370.626843 -175.880247 
L 371.831944 -174.950309 
L 373.037045 -173.99902 
L 374.242146 -173.024756 
L 375.447247 -172.025894 
L 376.652348 -171.000809 
L 377.857449 -169.947879 
L 379.062551 -169.000515 
L 380.267652 -168.158497 
L 381.472753 -167.287972 
L 382.677854 -166.390124 
L 383.882955 -165.466136 
L 385.088056 -164.517191 
L 386.293157 -163.544471 
L 387.498258 -162.54916 
L 388.703359 -161.532442 
L 389.908461 -160.495498 
L 391.113562 -159.439513 
L 392.318663 -158.365669 
L 393.523764 -157.27515 
L 394.728865 -156.169137 
L 395.933966 -155.048816 
L 397.139067 -153.915368 
L 398.344168 -152.769977 
L 399.549269 -151.613825 
L 400.754371 -150.448097 
L 401.959472 -149.273974 
L 403.164573 -148.092641 
L 404.369674 -146.905279 
L 405.574775 -145.713073 
L 406.779876 -144.517206 
L 407.984977 -143.318859 
L 409.190078 -142.119218 
L 410.395179 -140.919463 
L 411.600281 -139.72078 
L 412.805382 -138.52435 
L 414.010483 -137.331357 
L 415.215584 -136.142984 
L 416.420685 -134.960414 
L 417.625786 -133.78483 
L 418.830887 -132.617415 
L 420.035988 -131.459353 
L 421.241089 -130.311826 
L 422.446191 -129.176017 
L 423.651292 -128.05311 
L 424.856393 -126.944288 
L 426.061494 -125.850733 
L 427.266595 -124.773629 
L 428.471696 -123.714159 
L 429.676797 -122.673506 
L 430.881898 -121.652853 
L 432.086999 -120.653383 
L 433.292101 -119.67628 
L 434.497202 -118.722725 
L 435.702303 -117.793903 
L 436.907404 -116.890997 
L 438.112505 -116.015189 
L 439.317606 -115.086624 
L 440.522707 -114.132645 
L 441.727808 -113.206988 
L 442.932909 -112.309382 
L 444.138011 -111.439556 
L 445.343112 -110.59724 
L 446.548213 -109.782162 
L 447.753314 -108.994053 
L 448.958415 -108.23264 
L 450.163516 -107.497654 
L 451.368617 -106.788824 
L 452.573718 -106.105879 
L 453.778819 -105.448548 
L 454.983921 -104.816561 
L 456.189022 -104.209647 
L 457.394123 -103.627534 
L 458.599224 -103.069953 
L 459.804325 -102.536632 
L 461.009426 -102.027302 
L 462.214527 -101.54169 
L 463.419628 -101.079527 
L 464.624729 -100.640541 
L 465.829831 -100.224462 
L 467.034932 -99.831019 
L 468.240033 -99.459942 
L 469.445134 -99.110959 
L 470.650235 -98.7838 
L 471.855336 -98.478194 
L 473.060437 -98.193871 
L 474.265538 -97.930559 
L 475.470639 -97.687988 
L 476.675741 -97.465887 
L 477.880842 -97.263986 
L 479.085943 -97.082013 
L 480.291044 -96.919699 
L 481.496145 -96.776771 
L 482.701246 -96.65296 
L 483.906347 -96.547995 
L 485.111448 -96.461604 
L 486.316549 -96.393518 
L 487.521651 -96.343465 
L 488.726752 -96.311175 
L 489.931853 -96.296377 
L 491.136954 -96.298801 
L 492.342055 -96.318174 
L 493.547156 -96.354228 
L 494.752257 -96.40669 
L 495.957358 -96.475291 
L 497.162459 -96.559759 
L 498.367561 -96.659824 
L 499.572662 -96.775216 
L 500.777763 -96.905662 
L 501.982864 -97.050893 
L 503.187965 -97.210638 
L 504.393066 -97.384626 
L 505.598167 -97.572586 
L 506.803268 -97.774248 
L 508.008369 -97.98934 
L 509.213471 -98.217593 
L 510.418572 -98.458735 
L 511.623673 -98.712495 
L 512.828774 -98.978604 
L 514.033875 -99.25679 
L 515.238976 -99.546782 
L 516.444077 -99.848309 
L 517.649178 -100.161102 
L 518.854279 -100.484889 
L 520.059381 -100.819399 
L 521.264482 -101.164361 
L 522.469583 -101.519506 
L 523.674684 -101.884562 
L 524.879785 -102.259258 
L 526.084886 -102.643324 
L 527.289987 -103.036489 
L 528.495088 -103.438482 
L 529.700189 -103.849033 
L 530.905291 -104.26787 
L 532.110392 -104.694724 
L 533.315493 -105.129322 
L 534.520594 -105.571395 
L 535.725695 -106.020672 
L 536.930796 -106.476882 
L 538.135897 -106.939754 
L 539.340998 -107.409017 
L 540.546099 -107.884402 
L 541.751201 -108.365636 
L 542.956302 -108.85245 
L 544.161403 -109.344572 
L 545.366504 -109.841732 
L 546.571605 -110.343659 
L 547.776706 -110.850082 
L 548.981807 -111.360731 
L 550.186908 -111.875335 
L 551.392009 -112.393623 
L 552.597111 -112.915324 
L 553.802212 -113.440168 
L 555.007313 -113.967883 
L 556.212414 -114.4982 
L 557.417515 -115.030847 
L 558.622616 -115.565554 
L 559.827717 -115.963548 
L 561.032818 -116.328436 
L 562.237919 -116.69457 
L 563.443021 -117.061681 
L 564.648122 -117.429499 
L 565.853223 -117.797751 
L 567.058324 -118.166168 
L 568.263425 -118.534478 
L 569.468526 -118.902412 
L 570.673627 -119.269697 
L 571.878728 -119.636064 
L 573.083829 -120.001242 
L 574.288931 -120.36496 
L 575.494032 -120.726947 
L 576.699133 -121.086932 
L 577.904234 -121.444645 
L 579.109335 -121.799815 
L 580.314436 -122.152172 
L 581.519537 -122.501444 
L 582.724638 -122.84736 
L 583.929739 -123.189651 
L 585.134841 -123.528045 
L 586.339942 -123.862271 
L 587.545043 -124.19206 
L 588.750144 -124.517139 
L 589.955245 -124.837239 
L 591.160346 -125.152088 
L 592.365447 -125.461416 
L 593.570548 -125.764952 
L 594.775649 -126.062425 
L 595.980751 -126.353566 
L 597.185852 -126.638101 
L 598.390953 -126.915762 
L 599.596054 -127.186278 
L 600.801155 -127.449377 
L 602.006256 -127.704789 
L 603.211357 -127.952242 
L 604.416458 -128.191468 
L 605.621559 -128.422194 
L 606.826661 -128.64415 
L 608.031762 -128.857065 
L 609.236863 -129.060668 
L 610.441964 -129.254689 
L 611.647065 -129.438857 
L 612.852166 -129.612902 
L 614.057267 -129.776551 
L 615.262368 -129.929536 
L 616.467469 -130.071584 
L 617.672571 -130.202426 
L 618.877672 -130.32179 
L 620.082773 -130.429406 
L 621.287874 -130.525002 
L 622.492975 -130.608309 
L 623.698076 -130.679056 
L 624.903177 -130.736971 
L 626.108278 -130.781784 
L 627.313379 -130.813225 
L 628.518481 -130.831022 
L 629.723582 -130.834905 
L 630.928683 -130.824603 
L 632.133784 -130.799845 
L 633.338885 -130.760361 
L 634.543986 -130.705879 
L 635.749087 -130.63613 
L 636.954188 -130.550842 
L 638.159289 -130.449744 
L 639.364391 -130.332566 
L 640.569492 -130.199038 
L 641.774593 -130.048888 
L 642.979694 -129.881845 
L 644.184795 -129.697639 
L 645.389896 -129.496 
L 646.594997 -129.276655 
L 647.800098 -129.039336 
L 649.005199 -128.78377 
L 650.210301 -128.509688 
L 651.415402 -128.216817 
L 652.620503 -127.904889 
L 653.825604 -127.573631 
L 655.030705 -127.222774 
L 656.235806 -126.852046 
L 657.440907 -126.461177 
L 658.646008 -126.049895 
L 659.851109 -125.617931 
L 661.056211 -125.165014 
L 662.261312 -124.690872 
L 663.466413 -124.195235 
L 664.671514 -123.677832 
L 665.876615 -123.138393 
L 667.081716 -122.576646 
L 668.286817 -121.992322 
L 669.491918 -121.385148 
L 670.697019 -120.754856 
L 671.902121 -120.101173 
L 673.107222 -119.423829 
L 674.312323 -118.722553 
L 675.517424 -117.997075 
L 676.722525 -117.247124 
L 677.927626 -116.472429 
L 679.132727 -115.672719 
L 679.132727 -115.672719 
L 679.132727 -115.672719 
L 677.927626 -116.472429 
L 676.722525 -117.247124 
L 675.517424 -117.997075 
L 674.312323 -118.722553 
L 673.107222 -119.423829 
L 671.902121 -120.101173 
L 670.697019 -120.754856 
L 669.491918 -121.385148 
L 668.286817 -121.992322 
L 667.081716 -122.576646 
L 665.876615 -123.138393 
L 664.671514 -123.677832 
L 663.466413 -124.195235 
L 662.261312 -124.690872 
L 661.056211 -125.165014 
L 659.851109 -125.617931 
L 658.646008 -126.049895 
L 657.440907 -126.461177 
L 656.235806 -126.852046 
L 655.030705 -127.222774 
L 653.825604 -127.573631 
L 652.620503 -127.904889 
L 651.415402 -128.216817 
L 650.210301 -128.509688 
L 649.005199 -128.78377 
L 647.800098 -129.039336 
L 646.594997 -129.276655 
L 645.389896 -129.496 
L 644.184795 -129.697639 
L 642.979694 -129.881845 
L 641.774593 -130.048888 
L 640.569492 -130.199038 
L 639.364391 -130.332566 
L 638.159289 -130.449744 
L 636.954188 -130.550842 
L 635.749087 -130.63613 
L 634.543986 -130.705879 
L 633.338885 -130.760361 
L 632.133784 -130.799845 
L 630.928683 -130.824603 
L 629.723582 -130.834905 
L 628.518481 -130.831022 
L 627.313379 -130.813225 
L 626.108278 -130.781784 
L 624.903177 -130.736971 
L 623.698076 -130.679056 
L 622.492975 -130.608309 
L 621.287874 -130.525002 
L 620.082773 -130.429406 
L 618.877672 -130.32179 
L 617.672571 -130.202426 
L 616.467469 -130.071584 
L 615.262368 -129.929536 
L 614.057267 -129.776551 
L 612.852166 -129.612902 
L 611.647065 -129.438857 
L 610.441964 -129.254689 
L 609.236863 -129.060668 
L 608.031762 -128.857065 
L 606.826661 -128.64415 
L 605.621559 -128.422194 
L 604.416458 -128.191468 
L 603.211357 -127.952242 
L 602.006256 -127.704789 
L 600.801155 -127.449377 
L 599.596054 -127.186278 
L 598.390953 -126.915762 
L 597.185852 -126.638101 
L 595.980751 -126.353566 
L 594.775649 -126.062425 
L 593.570548 -125.764952 
L 592.365447 -125.461416 
L 591.160346 -125.152088 
L 589.955245 -124.837239 
L 588.750144 -124.517139 
L 587.545043 -124.19206 
L 586.339942 -123.862271 
L 585.134841 -123.528045 
L 583.929739 -123.189651 
L 582.724638 -122.84736 
L 581.519537 -122.501444 
L 580.314436 -122.152172 
L 579.109335 -121.799815 
L 577.904234 -121.444645 
L 576.699133 -121.086932 
L 575.494032 -120.726947 
L 574.288931 -120.36496 
L 573.083829 -120.001242 
L 571.878728 -119.636064 
L 570.673627 -119.269697 
L 569.468526 -118.902412 
L 568.263425 -118.534478 
L 567.058324 -118.166168 
L 565.853223 -117.797751 
L 564.648122 -117.429499 
L 563.443021 -117.061681 
L 562.237919 -116.69457 
L 561.032818 -116.328436 
L 559.827717 -115.963548 
L 558.622616 -115.634805 
L 557.417515 -115.446351 
L 556.212414 -115.259957 
L 555.007313 -115.075893 
L 553.802212 -114.894431 
L 552.597111 -114.71584 
L 551.392009 -114.540392 
L 550.186908 -114.368357 
L 548.981807 -114.200007 
L 547.776706 -114.035611 
L 546.571605 -113.875441 
L 545.366504 -113.719767 
L 544.161403 -113.56886 
L 542.956302 -113.422991 
L 541.751201 -113.28243 
L 540.546099 -113.147449 
L 539.340998 -113.018318 
L 538.135897 -112.895307 
L 536.930796 -112.778689 
L 535.725695 -112.668732 
L 534.520594 -112.565708 
L 533.315493 -112.469888 
L 532.110392 -112.381543 
L 530.905291 -112.300943 
L 529.700189 -112.228359 
L 528.495088 -112.164061 
L 527.289987 -112.108321 
L 526.084886 -112.061409 
L 524.879785 -112.023596 
L 523.674684 -111.995153 
L 522.469583 -111.97635 
L 521.264482 -111.967459 
L 520.059381 -111.968749 
L 518.854279 -111.980492 
L 517.649178 -112.002959 
L 516.444077 -112.036419 
L 515.238976 -112.081145 
L 514.033875 -112.137406 
L 512.828774 -112.205473 
L 511.623673 -112.285618 
L 510.418572 -112.37811 
L 509.213471 -112.483222 
L 508.008369 -112.601222 
L 506.803268 -112.732383 
L 505.598167 -112.876974 
L 504.393066 -113.035267 
L 503.187965 -113.207532 
L 501.982864 -113.39404 
L 500.777763 -113.595063 
L 499.572662 -113.810869 
L 498.367561 -114.041731 
L 497.162459 -114.287919 
L 495.957358 -114.549704 
L 494.752257 -114.827357 
L 493.547156 -115.121147 
L 492.342055 -115.431347 
L 491.136954 -115.758226 
L 489.931853 -116.102056 
L 488.726752 -116.463107 
L 487.521651 -116.84165 
L 486.316549 -117.237956 
L 485.111448 -117.652296 
L 483.906347 -118.084939 
L 482.701246 -118.536158 
L 481.496145 -119.006222 
L 480.291044 -119.495402 
L 479.085943 -120.00397 
L 477.880842 -120.532196 
L 476.675741 -121.08035 
L 475.470639 -121.648704 
L 474.265538 -122.237528 
L 473.060437 -122.847093 
L 471.855336 -123.47767 
L 470.650235 -124.129529 
L 469.445134 -124.802941 
L 468.240033 -125.498177 
L 467.034932 -126.215507 
L 465.829831 -126.955203 
L 464.624729 -127.717535 
L 463.419628 -128.502774 
L 462.214527 -129.311191 
L 461.009426 -130.143055 
L 459.804325 -130.998639 
L 458.599224 -131.878213 
L 457.394123 -132.782047 
L 456.189022 -133.710413 
L 454.983921 -134.66358 
L 453.778819 -135.641821 
L 452.573718 -136.645405 
L 451.368617 -137.674603 
L 450.163516 -138.729686 
L 448.958415 -139.810925 
L 447.753314 -140.918591 
L 446.548213 -142.052954 
L 445.343112 -143.214284 
L 444.138011 -144.402854 
L 442.932909 -145.618933 
L 441.727808 -146.862792 
L 440.522707 -148.134702 
L 439.317606 -149.434934 
L 438.112505 -150.817734 
L 436.907404 -152.309749 
L 435.702303 -153.828863 
L 434.497202 -155.373893 
L 433.292101 -156.943655 
L 432.086999 -158.536966 
L 430.881898 -160.152643 
L 429.676797 -161.789504 
L 428.471696 -163.446364 
L 427.266595 -165.122042 
L 426.061494 -166.815353 
L 424.856393 -168.525116 
L 423.651292 -170.250146 
L 422.446191 -171.98926 
L 421.241089 -173.741276 
L 420.035988 -175.505011 
L 418.830887 -177.279281 
L 417.625786 -179.062903 
L 416.420685 -180.854695 
L 415.215584 -182.653472 
L 414.010483 -184.458053 
L 412.805382 -186.267253 
L 411.600281 -188.079891 
L 410.395179 -189.894782 
L 409.190078 -191.710744 
L 407.984977 -193.526593 
L 406.779876 -195.341147 
L 405.574775 -197.153222 
L 404.369674 -198.961636 
L 403.164573 -200.765205 
L 401.959472 -202.562746 
L 400.754371 -204.353076 
L 399.549269 -206.135012 
L 398.344168 -207.907371 
L 397.139067 -209.668969 
L 395.933966 -211.418625 
L 394.728865 -213.155154 
L 393.523764 -214.877374 
L 392.318663 -216.584101 
L 391.113562 -218.274152 
L 389.908461 -219.946345 
L 388.703359 -221.599496 
L 387.498258 -223.232422 
L 386.293157 -224.843941 
L 385.088056 -226.432868 
L 383.882955 -227.998021 
L 382.677854 -229.538216 
L 381.472753 -231.052272 
L 380.267652 -232.539004 
L 379.062551 -233.997229 
L 377.857449 -235.290846 
L 376.652348 -236.420076 
L 375.447247 -237.521459 
L 374.242146 -238.59662 
L 373.037045 -239.647183 
L 371.831944 -240.674771 
L 370.626843 -241.681007 
L 369.421742 -242.667516 
L 368.216641 -243.63592 
L 367.011539 -244.587844 
L 365.806438 -245.52491 
L 364.601337 -246.448744 
L 363.396236 -247.360967 
L 362.191135 -248.263204 
L 360.986034 -249.157079 
L 359.780933 -250.044214 
L 358.575832 -250.926234 
L 357.370731 -251.804762 
L 356.165629 -252.681421 
L 354.960528 -253.557836 
L 353.755427 -254.43563 
L 352.550326 -255.316426 
L 351.345225 -256.201848 
L 350.140124 -257.09352 
L 348.935023 -257.993065 
L 347.729922 -258.902107 
L 346.524821 -259.822269 
L 345.319719 -260.755175 
L 344.114618 -261.702449 
L 342.909517 -262.665714 
L 341.704416 -263.646594 
L 340.499315 -264.646712 
L 339.294214 -265.667691 
L 338.089113 -266.711157 
L 336.884012 -267.778731 
L 335.678911 -268.872038 
L 334.473809 -269.992702 
L 333.268708 -271.142345 
L 332.063607 -272.322591 
L 330.858506 -273.535065 
L 329.653405 -274.781389 
L 328.448304 -276.063188 
L 327.243203 -277.382084 
L 326.038102 -278.739702 
L 324.833001 -280.137665 
L 323.627899 -281.577596 
L 322.422798 -283.061119 
L 321.217697 -284.589858 
L 320.012596 -286.165437 
L 318.807495 -287.789478 
L 317.602394 -289.308171 
L 316.397293 -290.772351 
L 315.192192 -292.282773 
L 313.987091 -293.83663 
L 312.781989 -295.431114 
L 311.576888 -297.063415 
L 310.371787 -298.730726 
L 309.166686 -300.430239 
L 307.961585 -302.159145 
L 306.756484 -303.914636 
L 305.551383 -305.693904 
L 304.346282 -307.49414 
L 303.141181 -309.312537 
L 301.936079 -311.146286 
L 300.730978 -312.992579 
L 299.525877 -314.848607 
L 298.320776 -316.711563 
L 297.115675 -318.578637 
L 295.910574 -320.447023 
L 294.705473 -322.313911 
L 293.500372 -324.176494 
L 292.295271 -326.031963 
L 291.090169 -327.87751 
L 289.885068 -329.710326 
L 288.679967 -331.527604 
L 287.474866 -333.326535 
L 286.269765 -335.104311 
L 285.064664 -336.858124 
L 283.859563 -338.585165 
L 282.654462 -340.282626 
L 281.449361 -341.947699 
L 280.244259 -343.577577 
L 279.039158 -345.169449 
L 277.834057 -346.720509 
L 276.628956 -348.227948 
L 275.423855 -349.688957 
L 274.218754 -351.100729 
L 273.013653 -352.460456 
L 271.808552 -353.765328 
L 270.603451 -355.012539 
L 269.398349 -356.199278 
L 268.193248 -357.32274 
L 266.988147 -358.380114 
L 265.783046 -359.368593 
L 264.577945 -360.285368 
L 263.372844 -361.127632 
L 262.167743 -361.892577 
L 260.962642 -362.577393 
L 259.757541 -363.179272 
L 258.552439 -363.695407 
L 257.347338 -364.336131 
L 256.142237 -364.980746 
L 254.937136 -365.540954 
L 253.732035 -366.019691 
L 252.526934 -366.41989 
L 251.321833 -366.744487 
L 250.116732 -366.996416 
L 248.911631 -367.178612 
L 247.706529 -367.294009 
L 246.501428 -367.345543 
L 245.296327 -367.336147 
L 244.091226 -367.268756 
L 242.886125 -367.146306 
L 241.681024 -366.97173 
L 240.475923 -366.747964 
L 239.270822 -366.477941 
L 238.065721 -366.164597 
L 236.860619 -365.810867 
L 235.655518 -365.419684 
L 234.450417 -364.993984 
L 233.245316 -364.536701 
L 232.040215 -364.05077 
L 230.835114 -363.539126 
L 229.630013 -363.004702 
L 228.424912 -362.450435 
L 227.219811 -361.879257 
L 226.014709 -361.294105 
L 224.809608 -360.697913 
L 223.604507 -360.093615 
L 222.399406 -359.484146 
L 221.194305 -358.872441 
L 219.989204 -358.261434 
L 218.784103 -357.65406 
L 217.579002 -357.053254 
L 216.373901 -356.46195 
L 215.168799 -355.883082 
L 213.963698 -355.319587 
L 212.758597 -354.774397 
L 211.553496 -354.250449 
L 210.348395 -353.750676 
L 209.143294 -353.278013 
L 207.938193 -352.835395 
L 206.733092 -352.425756 
L 205.527991 -352.052031 
L 204.322889 -351.717155 
L 203.117788 -351.424063 
L 201.912687 -351.175688 
L 200.707586 -350.974966 
L 199.502485 -350.824832 
L 198.297384 -350.728219 
L 197.092283 -350.4538 
L 195.887182 -350.176809 
L 194.682081 -349.954304 
L 193.476979 -349.784862 
L 192.271878 -349.667063 
L 191.066777 -349.599486 
L 189.861676 -349.580708 
L 188.656575 -349.60931 
L 187.451474 -349.683869 
L 186.246373 -349.802965 
L 185.041272 -349.965175 
L 183.836171 -350.16908 
L 182.631069 -350.413256 
L 181.425968 -350.696285 
L 180.220867 -351.016743 
L 179.015766 -351.37321 
L 177.810665 -351.764264 
L 176.605564 -352.188485 
L 175.400463 -352.64445 
L 174.195362 -353.130739 
L 172.990261 -353.645931 
L 171.785159 -354.188603 
L 170.580058 -354.757336 
L 169.374957 -355.350707 
L 168.169856 -355.967295 
L 166.964755 -356.605679 
L 165.759654 -357.264438 
L 164.554553 -357.942151 
L 163.349452 -358.637396 
L 162.144351 -359.348751 
L 160.939249 -360.074797 
L 159.734148 -360.81411 
L 158.529047 -361.565271 
L 157.323946 -362.326858 
L 156.118845 -363.097449 
L 154.913744 -363.875624 
L 153.708643 -364.65996 
L 152.503542 -365.449038 
L 151.298441 -366.241435 
L 150.093339 -367.03573 
L 148.888238 -367.830502 
L 147.683137 -368.624329 
L 146.478036 -369.415792 
L 145.272935 -370.203467 
L 144.067834 -370.985934 
L 142.862733 -371.761772 
L 141.657632 -372.529559 
L 140.452531 -373.287874 
L 139.247429 -374.035296 
L 138.042328 -374.770404 
L 136.837227 -375.679864 
L 135.632126 -376.595065 
L 134.427025 -377.493689 
L 133.221924 -378.374313 
L 132.016823 -379.235516 
L 130.811722 -380.075877 
L 129.606621 -380.893975 
L 128.401519 -381.688387 
L 127.196418 -382.457695 
L 125.991317 -383.200474 
L 124.786216 -383.915306 
L 123.581115 -384.600767 
L 122.376014 -385.255438 
L 121.170913 -385.877896 
L 119.965812 -386.466721 
L 118.760711 -387.020491 
L 117.555609 -387.537785 
L 116.350508 -388.017182 
L 115.145407 -388.45726 
L 113.940306 -388.856598 
L 112.735205 -389.213775 
L 111.530104 -389.527369 
L 110.325003 -389.79596 
L 109.119902 -390.018126 
L 107.914801 -390.192445 
L 106.709699 -390.317497 
L 105.504598 -390.39186 
L 104.299497 -390.414113 
L 103.094396 -390.382835 
L 101.889295 -390.296604 
L 100.684194 -390.153999 
L 99.479093 -389.953599 
L 98.273992 -389.693983 
L 97.068891 -389.373729 
L 95.863789 -388.991416 
L 94.658688 -388.545623 
L 93.453587 -388.034928 
L 92.248486 -387.457911 
L 91.043385 -386.813149 
L 89.838284 -386.099223 
L 88.633183 -385.314709 
L 87.428082 -384.458188 
L 86.222981 -383.528237 
L 85.017879 -382.523437 
L 83.812778 -381.442364 
L 82.607677 -380.283599 
L 81.402576 -379.045719 
L 80.197475 -377.727304 
L 78.992374 -376.326932 
L 77.787273 -374.843182 
z
" style="stroke: #ff0000; stroke-opacity: 0.2"/>
    </defs>
    <g clip-path="url(#p16a626f3d9)">
     <use xlink:href="#m846e4431ed" x="0" y="432" style="fill: #ff0000; fill-opacity: 0.2; stroke: #ff0000; stroke-opacity: 0.2"/>
    </g>
   </g>
   <g id="matplotlib.axis_1">
    <g id="xtick_1">
     <g id="line2d_1">
      <defs>
       <path id="m61713422d5" d="M 0 0 
L 0 3.5 
" style="stroke: #000000; stroke-width: 0.8"/>
      </defs>
      <g>
       <use xlink:href="#m61713422d5" x="77.787273" y="350.409509" style="stroke: #000000; stroke-width: 0.8"/>
      </g>
     </g>
     <g id="text_1">
      <!-- 100%_own -->
      <g transform="translate(60.406809 400.999328) rotate(-45) scale(0.1 -0.1)">
       <defs>
        <path id="DejaVuSans-31" d="M 794 531 
L 1825 531 
L 1825 4091 
L 703 3866 
L 703 4441 
L 1819 4666 
L 2450 4666 
L 2450 531 
L 3481 531 
L 3481 0 
L 794 0 
L 794 531 
z
" transform="scale(0.015625)"/>
        <path id="DejaVuSans-30" d="M 2034 4250 
Q 1547 4250 1301 3770 
Q 1056 3291 1056 2328 
Q 1056 1369 1301 889 
Q 1547 409 2034 409 
Q 2525 409 2770 889 
Q 3016 1369 3016 2328 
Q 3016 3291 2770 3770 
Q 2525 4250 2034 4250 
z
M 2034 4750 
Q 2819 4750 3233 4129 
Q 3647 3509 3647 2328 
Q 3647 1150 3233 529 
Q 2819 -91 2034 -91 
Q 1250 -91 836 529 
Q 422 1150 422 2328 
Q 422 3509 836 4129 
Q 1250 4750 2034 4750 
z
" transform="scale(0.015625)"/>
        <path id="DejaVuSans-25" d="M 4653 2053 
Q 4381 2053 4226 1822 
Q 4072 1591 4072 1178 
Q 4072 772 4226 539 
Q 4381 306 4653 306 
Q 4919 306 5073 539 
Q 5228 772 5228 1178 
Q 5228 1588 5073 1820 
Q 4919 2053 4653 2053 
z
M 4653 2450 
Q 5147 2450 5437 2106 
Q 5728 1763 5728 1178 
Q 5728 594 5436 251 
Q 5144 -91 4653 -91 
Q 4153 -91 3862 251 
Q 3572 594 3572 1178 
Q 3572 1766 3864 2108 
Q 4156 2450 4653 2450 
z
M 1428 4353 
Q 1159 4353 1004 4120 
Q 850 3888 850 3481 
Q 850 3069 1003 2837 
Q 1156 2606 1428 2606 
Q 1700 2606 1854 2837 
Q 2009 3069 2009 3481 
Q 2009 3884 1853 4118 
Q 1697 4353 1428 4353 
z
M 4250 4750 
L 4750 4750 
L 1831 -91 
L 1331 -91 
L 4250 4750 
z
M 1428 4750 
Q 1922 4750 2215 4408 
Q 2509 4066 2509 3481 
Q 2509 2891 2217 2550 
Q 1925 2209 1428 2209 
Q 931 2209 642 2551 
Q 353 2894 353 3481 
Q 353 4063 643 4406 
Q 934 4750 1428 4750 
z
" transform="scale(0.015625)"/>
        <path id="DejaVuSans-5f" d="M 3263 -1063 
L 3263 -1509 
L -63 -1509 
L -63 -1063 
L 3263 -1063 
z
" transform="scale(0.015625)"/>
        <path id="DejaVuSans-6f" d="M 1959 3097 
Q 1497 3097 1228 2736 
Q 959 2375 959 1747 
Q 959 1119 1226 758 
Q 1494 397 1959 397 
Q 2419 397 2687 759 
Q 2956 1122 2956 1747 
Q 2956 2369 2687 2733 
Q 2419 3097 1959 3097 
z
M 1959 3584 
Q 2709 3584 3137 3096 
Q 3566 2609 3566 1747 
Q 3566 888 3137 398 
Q 2709 -91 1959 -91 
Q 1206 -91 779 398 
Q 353 888 353 1747 
Q 353 2609 779 3096 
Q 1206 3584 1959 3584 
z
" transform="scale(0.015625)"/>
        <path id="DejaVuSans-77" d="M 269 3500 
L 844 3500 
L 1563 769 
L 2278 3500 
L 2956 3500 
L 3675 769 
L 4391 3500 
L 4966 3500 
L 4050 0 
L 3372 0 
L 2619 2869 
L 1863 0 
L 1184 0 
L 269 3500 
z
" transform="scale(0.015625)"/>
        <path id="DejaVuSans-6e" d="M 3513 2113 
L 3513 0 
L 2938 0 
L 2938 2094 
Q 2938 2591 2744 2837 
Q 2550 3084 2163 3084 
Q 1697 3084 1428 2787 
Q 1159 2491 1159 1978 
L 1159 0 
L 581 0 
L 581 3500 
L 1159 3500 
L 1159 2956 
Q 1366 3272 1645 3428 
Q 1925 3584 2291 3584 
Q 2894 3584 3203 3211 
Q 3513 2838 3513 2113 
z
" transform="scale(0.015625)"/>
       </defs>
       <use xlink:href="#DejaVuSans-31"/>
       <use xlink:href="#DejaVuSans-30" x="63.623047"/>
       <use xlink:href="#DejaVuSans-30" x="127.246094"/>
       <use xlink:href="#DejaVuSans-25" x="190.869141"/>
       <use xlink:href="#DejaVuSans-5f" x="285.888672"/>
       <use xlink:href="#DejaVuSans-6f" x="335.888672"/>
       <use xlink:href="#DejaVuSans-77" x="397.070312"/>
       <use xlink:href="#DejaVuSans-6e" x="478.857422"/>
      </g>
     </g>
    </g>
    <g id="xtick_2">
     <g id="line2d_2">
      <g>
       <use xlink:href="#m61713422d5" x="198.056364" y="350.409509" style="stroke: #000000; stroke-width: 0.8"/>
      </g>
     </g>
     <g id="text_2">
      <!-- 80%_own -->
      <g transform="translate(182.925383 396.500361) rotate(-45) scale(0.1 -0.1)">
       <defs>
        <path id="DejaVuSans-38" d="M 2034 2216 
Q 1584 2216 1326 1975 
Q 1069 1734 1069 1313 
Q 1069 891 1326 650 
Q 1584 409 2034 409 
Q 2484 409 2743 651 
Q 3003 894 3003 1313 
Q 3003 1734 2745 1975 
Q 2488 2216 2034 2216 
z
M 1403 2484 
Q 997 2584 770 2862 
Q 544 3141 544 3541 
Q 544 4100 942 4425 
Q 1341 4750 2034 4750 
Q 2731 4750 3128 4425 
Q 3525 4100 3525 3541 
Q 3525 3141 3298 2862 
Q 3072 2584 2669 2484 
Q 3125 2378 3379 2068 
Q 3634 1759 3634 1313 
Q 3634 634 3220 271 
Q 2806 -91 2034 -91 
Q 1263 -91 848 271 
Q 434 634 434 1313 
Q 434 1759 690 2068 
Q 947 2378 1403 2484 
z
M 1172 3481 
Q 1172 3119 1398 2916 
Q 1625 2713 2034 2713 
Q 2441 2713 2670 2916 
Q 2900 3119 2900 3481 
Q 2900 3844 2670 4047 
Q 2441 4250 2034 4250 
Q 1625 4250 1398 4047 
Q 1172 3844 1172 3481 
z
" transform="scale(0.015625)"/>
       </defs>
       <use xlink:href="#DejaVuSans-38"/>
       <use xlink:href="#DejaVuSans-30" x="63.623047"/>
       <use xlink:href="#DejaVuSans-25" x="127.246094"/>
       <use xlink:href="#DejaVuSans-5f" x="222.265625"/>
       <use xlink:href="#DejaVuSans-6f" x="272.265625"/>
       <use xlink:href="#DejaVuSans-77" x="333.447266"/>
       <use xlink:href="#DejaVuSans-6e" x="415.234375"/>
      </g>
     </g>
    </g>
    <g id="xtick_3">
     <g id="line2d_3">
      <g>
       <use xlink:href="#m61713422d5" x="318.325455" y="350.409509" style="stroke: #000000; stroke-width: 0.8"/>
      </g>
     </g>
     <g id="text_3">
      <!-- 60%_own -->
      <g transform="translate(303.194474 396.500361) rotate(-45) scale(0.1 -0.1)">
       <defs>
        <path id="DejaVuSans-36" d="M 2113 2584 
Q 1688 2584 1439 2293 
Q 1191 2003 1191 1497 
Q 1191 994 1439 701 
Q 1688 409 2113 409 
Q 2538 409 2786 701 
Q 3034 994 3034 1497 
Q 3034 2003 2786 2293 
Q 2538 2584 2113 2584 
z
M 3366 4563 
L 3366 3988 
Q 3128 4100 2886 4159 
Q 2644 4219 2406 4219 
Q 1781 4219 1451 3797 
Q 1122 3375 1075 2522 
Q 1259 2794 1537 2939 
Q 1816 3084 2150 3084 
Q 2853 3084 3261 2657 
Q 3669 2231 3669 1497 
Q 3669 778 3244 343 
Q 2819 -91 2113 -91 
Q 1303 -91 875 529 
Q 447 1150 447 2328 
Q 447 3434 972 4092 
Q 1497 4750 2381 4750 
Q 2619 4750 2861 4703 
Q 3103 4656 3366 4563 
z
" transform="scale(0.015625)"/>
       </defs>
       <use xlink:href="#DejaVuSans-36"/>
       <use xlink:href="#DejaVuSans-30" x="63.623047"/>
       <use xlink:href="#DejaVuSans-25" x="127.246094"/>
       <use xlink:href="#DejaVuSans-5f" x="222.265625"/>
       <use xlink:href="#DejaVuSans-6f" x="272.265625"/>
       <use xlink:href="#DejaVuSans-77" x="333.447266"/>
       <use xlink:href="#DejaVuSans-6e" x="415.234375"/>
      </g>
     </g>
    </g>
    <g id="xtick_4">
     <g id="line2d_4">
      <g>
       <use xlink:href="#m61713422d5" x="438.594545" y="350.409509" style="stroke: #000000; stroke-width: 0.8"/>
      </g>
     </g>
     <g id="text_4">
      <!-- 60%_other -->
      <g transform="translate(421.402459 400.87227) rotate(-45) scale(0.1 -0.1)">
       <defs>
        <path id="DejaVuSans-74" d="M 1172 4494 
L 1172 3500 
L 2356 3500 
L 2356 3053 
L 1172 3053 
L 1172 1153 
Q 1172 725 1289 603 
Q 1406 481 1766 481 
L 2356 481 
L 2356 0 
L 1766 0 
Q 1100 0 847 248 
Q 594 497 594 1153 
L 594 3053 
L 172 3053 
L 172 3500 
L 594 3500 
L 594 4494 
L 1172 4494 
z
" transform="scale(0.015625)"/>
        <path id="DejaVuSans-68" d="M 3513 2113 
L 3513 0 
L 2938 0 
L 2938 2094 
Q 2938 2591 2744 2837 
Q 2550 3084 2163 3084 
Q 1697 3084 1428 2787 
Q 1159 2491 1159 1978 
L 1159 0 
L 581 0 
L 581 4863 
L 1159 4863 
L 1159 2956 
Q 1366 3272 1645 3428 
Q 1925 3584 2291 3584 
Q 2894 3584 3203 3211 
Q 3513 2838 3513 2113 
z
" transform="scale(0.015625)"/>
        <path id="DejaVuSans-65" d="M 3597 1894 
L 3597 1613 
L 953 1613 
Q 991 1019 1311 708 
Q 1631 397 2203 397 
Q 2534 397 2845 478 
Q 3156 559 3463 722 
L 3463 178 
Q 3153 47 2828 -22 
Q 2503 -91 2169 -91 
Q 1331 -91 842 396 
Q 353 884 353 1716 
Q 353 2575 817 3079 
Q 1281 3584 2069 3584 
Q 2775 3584 3186 3129 
Q 3597 2675 3597 1894 
z
M 3022 2063 
Q 3016 2534 2758 2815 
Q 2500 3097 2075 3097 
Q 1594 3097 1305 2825 
Q 1016 2553 972 2059 
L 3022 2063 
z
" transform="scale(0.015625)"/>
        <path id="DejaVuSans-72" d="M 2631 2963 
Q 2534 3019 2420 3045 
Q 2306 3072 2169 3072 
Q 1681 3072 1420 2755 
Q 1159 2438 1159 1844 
L 1159 0 
L 581 0 
L 581 3500 
L 1159 3500 
L 1159 2956 
Q 1341 3275 1631 3429 
Q 1922 3584 2338 3584 
Q 2397 3584 2469 3576 
Q 2541 3569 2628 3553 
L 2631 2963 
z
" transform="scale(0.015625)"/>
       </defs>
       <use xlink:href="#DejaVuSans-36"/>
       <use xlink:href="#DejaVuSans-30" x="63.623047"/>
       <use xlink:href="#DejaVuSans-25" x="127.246094"/>
       <use xlink:href="#DejaVuSans-5f" x="222.265625"/>
       <use xlink:href="#DejaVuSans-6f" x="272.265625"/>
       <use xlink:href="#DejaVuSans-74" x="333.447266"/>
       <use xlink:href="#DejaVuSans-68" x="372.65625"/>
       <use xlink:href="#DejaVuSans-65" x="436.035156"/>
       <use xlink:href="#DejaVuSans-72" x="497.558594"/>
      </g>
     </g>
    </g>
    <g id="xtick_5">
     <g id="line2d_5">
      <g>
       <use xlink:href="#m61713422d5" x="558.863636" y="350.409509" style="stroke: #000000; stroke-width: 0.8"/>
      </g>
     </g>
     <g id="text_5">
      <!-- 80%_other -->
      <g transform="translate(541.67155 400.87227) rotate(-45) scale(0.1 -0.1)">
       <use xlink:href="#DejaVuSans-38"/>
       <use xlink:href="#DejaVuSans-30" x="63.623047"/>
       <use xlink:href="#DejaVuSans-25" x="127.246094"/>
       <use xlink:href="#DejaVuSans-5f" x="222.265625"/>
       <use xlink:href="#DejaVuSans-6f" x="272.265625"/>
       <use xlink:href="#DejaVuSans-74" x="333.447266"/>
       <use xlink:href="#DejaVuSans-68" x="372.65625"/>
       <use xlink:href="#DejaVuSans-65" x="436.035156"/>
       <use xlink:href="#DejaVuSans-72" x="497.558594"/>
      </g>
     </g>
    </g>
    <g id="xtick_6">
     <g id="line2d_6">
      <g>
       <use xlink:href="#m61713422d5" x="679.132727" y="350.409509" style="stroke: #000000; stroke-width: 0.8"/>
      </g>
     </g>
     <g id="text_6">
      <!-- 100%_other -->
      <g transform="translate(659.691158 405.371237) rotate(-45) scale(0.1 -0.1)">
       <use xlink:href="#DejaVuSans-31"/>
       <use xlink:href="#DejaVuSans-30" x="63.623047"/>
       <use xlink:href="#DejaVuSans-30" x="127.246094"/>
       <use xlink:href="#DejaVuSans-25" x="190.869141"/>
       <use xlink:href="#DejaVuSans-5f" x="285.888672"/>
       <use xlink:href="#DejaVuSans-6f" x="335.888672"/>
       <use xlink:href="#DejaVuSans-74" x="397.070312"/>
       <use xlink:href="#DejaVuSans-68" x="436.279297"/>
       <use xlink:href="#DejaVuSans-65" x="499.658203"/>
       <use xlink:href="#DejaVuSans-72" x="561.181641"/>
      </g>
     </g>
    </g>
    <g id="text_7">
     <!-- Morph played -->
     <g transform="translate(344.261563 418.636899) scale(0.1 -0.1)">
      <defs>
       <path id="DejaVuSans-4d" d="M 628 4666 
L 1569 4666 
L 2759 1491 
L 3956 4666 
L 4897 4666 
L 4897 0 
L 4281 0 
L 4281 4097 
L 3078 897 
L 2444 897 
L 1241 4097 
L 1241 0 
L 628 0 
L 628 4666 
z
" transform="scale(0.015625)"/>
       <path id="DejaVuSans-70" d="M 1159 525 
L 1159 -1331 
L 581 -1331 
L 581 3500 
L 1159 3500 
L 1159 2969 
Q 1341 3281 1617 3432 
Q 1894 3584 2278 3584 
Q 2916 3584 3314 3078 
Q 3713 2572 3713 1747 
Q 3713 922 3314 415 
Q 2916 -91 2278 -91 
Q 1894 -91 1617 61 
Q 1341 213 1159 525 
z
M 3116 1747 
Q 3116 2381 2855 2742 
Q 2594 3103 2138 3103 
Q 1681 3103 1420 2742 
Q 1159 2381 1159 1747 
Q 1159 1113 1420 752 
Q 1681 391 2138 391 
Q 2594 391 2855 752 
Q 3116 1113 3116 1747 
z
" transform="scale(0.015625)"/>
       <path id="DejaVuSans-20" transform="scale(0.015625)"/>
       <path id="DejaVuSans-6c" d="M 603 4863 
L 1178 4863 
L 1178 0 
L 603 0 
L 603 4863 
z
" transform="scale(0.015625)"/>
       <path id="DejaVuSans-61" d="M 2194 1759 
Q 1497 1759 1228 1600 
Q 959 1441 959 1056 
Q 959 750 1161 570 
Q 1363 391 1709 391 
Q 2188 391 2477 730 
Q 2766 1069 2766 1631 
L 2766 1759 
L 2194 1759 
z
M 3341 1997 
L 3341 0 
L 2766 0 
L 2766 531 
Q 2569 213 2275 61 
Q 1981 -91 1556 -91 
Q 1019 -91 701 211 
Q 384 513 384 1019 
Q 384 1609 779 1909 
Q 1175 2209 1959 2209 
L 2766 2209 
L 2766 2266 
Q 2766 2663 2505 2880 
Q 2244 3097 1772 3097 
Q 1472 3097 1187 3025 
Q 903 2953 641 2809 
L 641 3341 
Q 956 3463 1253 3523 
Q 1550 3584 1831 3584 
Q 2591 3584 2966 3190 
Q 3341 2797 3341 1997 
z
" transform="scale(0.015625)"/>
       <path id="DejaVuSans-79" d="M 2059 -325 
Q 1816 -950 1584 -1140 
Q 1353 -1331 966 -1331 
L 506 -1331 
L 506 -850 
L 844 -850 
Q 1081 -850 1212 -737 
Q 1344 -625 1503 -206 
L 1606 56 
L 191 3500 
L 800 3500 
L 1894 763 
L 2988 3500 
L 3597 3500 
L 2059 -325 
z
" transform="scale(0.015625)"/>
       <path id="DejaVuSans-64" d="M 2906 2969 
L 2906 4863 
L 3481 4863 
L 3481 0 
L 2906 0 
L 2906 525 
Q 2725 213 2448 61 
Q 2172 -91 1784 -91 
Q 1150 -91 751 415 
Q 353 922 353 1747 
Q 353 2572 751 3078 
Q 1150 3584 1784 3584 
Q 2172 3584 2448 3432 
Q 2725 3281 2906 2969 
z
M 947 1747 
Q 947 1113 1208 752 
Q 1469 391 1925 391 
Q 2381 391 2643 752 
Q 2906 1113 2906 1747 
Q 2906 2381 2643 2742 
Q 2381 3103 1925 3103 
Q 1469 3103 1208 2742 
Q 947 2381 947 1747 
z
" transform="scale(0.015625)"/>
      </defs>
      <use xlink:href="#DejaVuSans-4d"/>
      <use xlink:href="#DejaVuSans-6f" x="86.279297"/>
      <use xlink:href="#DejaVuSans-72" x="147.460938"/>
      <use xlink:href="#DejaVuSans-70" x="188.574219"/>
      <use xlink:href="#DejaVuSans-68" x="252.050781"/>
      <use xlink:href="#DejaVuSans-20" x="315.429688"/>
      <use xlink:href="#DejaVuSans-70" x="347.216797"/>
      <use xlink:href="#DejaVuSans-6c" x="410.693359"/>
      <use xlink:href="#DejaVuSans-61" x="438.476562"/>
      <use xlink:href="#DejaVuSans-79" x="499.755859"/>
      <use xlink:href="#DejaVuSans-65" x="558.935547"/>
      <use xlink:href="#DejaVuSans-64" x="620.458984"/>
     </g>
    </g>
   </g>
   <g id="matplotlib.axis_2">
    <g id="ytick_1">
     <g id="line2d_7">
      <defs>
       <path id="m52cd174821" d="M 0 0 
L -3.5 0 
" style="stroke: #000000; stroke-width: 0.8"/>
      </defs>
      <g>
       <use xlink:href="#m52cd174821" x="47.72" y="316.327281" style="stroke: #000000; stroke-width: 0.8"/>
      </g>
     </g>
     <g id="text_8">
      <!-- 0.0 -->
      <g transform="translate(24.816875 320.1265) scale(0.1 -0.1)">
       <defs>
        <path id="DejaVuSans-2e" d="M 684 794 
L 1344 794 
L 1344 0 
L 684 0 
L 684 794 
z
" transform="scale(0.015625)"/>
       </defs>
       <use xlink:href="#DejaVuSans-30"/>
       <use xlink:href="#DejaVuSans-2e" x="63.623047"/>
       <use xlink:href="#DejaVuSans-30" x="95.410156"/>
      </g>
     </g>
    </g>
    <g id="ytick_2">
     <g id="line2d_8">
      <g>
       <use xlink:href="#m52cd174821" x="47.72" y="264.493189" style="stroke: #000000; stroke-width: 0.8"/>
      </g>
     </g>
     <g id="text_9">
      <!-- 0.2 -->
      <g transform="translate(24.816875 268.292407) scale(0.1 -0.1)">
       <defs>
        <path id="DejaVuSans-32" d="M 1228 531 
L 3431 531 
L 3431 0 
L 469 0 
L 469 531 
Q 828 903 1448 1529 
Q 2069 2156 2228 2338 
Q 2531 2678 2651 2914 
Q 2772 3150 2772 3378 
Q 2772 3750 2511 3984 
Q 2250 4219 1831 4219 
Q 1534 4219 1204 4116 
Q 875 4013 500 3803 
L 500 4441 
Q 881 4594 1212 4672 
Q 1544 4750 1819 4750 
Q 2544 4750 2975 4387 
Q 3406 4025 3406 3419 
Q 3406 3131 3298 2873 
Q 3191 2616 2906 2266 
Q 2828 2175 2409 1742 
Q 1991 1309 1228 531 
z
" transform="scale(0.015625)"/>
       </defs>
       <use xlink:href="#DejaVuSans-30"/>
       <use xlink:href="#DejaVuSans-2e" x="63.623047"/>
       <use xlink:href="#DejaVuSans-32" x="95.410156"/>
      </g>
     </g>
    </g>
    <g id="ytick_3">
     <g id="line2d_9">
      <g>
       <use xlink:href="#m52cd174821" x="47.72" y="212.659096" style="stroke: #000000; stroke-width: 0.8"/>
      </g>
     </g>
     <g id="text_10">
      <!-- 0.4 -->
      <g transform="translate(24.816875 216.458315) scale(0.1 -0.1)">
       <defs>
        <path id="DejaVuSans-34" d="M 2419 4116 
L 825 1625 
L 2419 1625 
L 2419 4116 
z
M 2253 4666 
L 3047 4666 
L 3047 1625 
L 3713 1625 
L 3713 1100 
L 3047 1100 
L 3047 0 
L 2419 0 
L 2419 1100 
L 313 1100 
L 313 1709 
L 2253 4666 
z
" transform="scale(0.015625)"/>
       </defs>
       <use xlink:href="#DejaVuSans-30"/>
       <use xlink:href="#DejaVuSans-2e" x="63.623047"/>
       <use xlink:href="#DejaVuSans-34" x="95.410156"/>
      </g>
     </g>
    </g>
    <g id="ytick_4">
     <g id="line2d_10">
      <g>
       <use xlink:href="#m52cd174821" x="47.72" y="160.825003" style="stroke: #000000; stroke-width: 0.8"/>
      </g>
     </g>
     <g id="text_11">
      <!-- 0.6 -->
      <g transform="translate(24.816875 164.624222) scale(0.1 -0.1)">
       <use xlink:href="#DejaVuSans-30"/>
       <use xlink:href="#DejaVuSans-2e" x="63.623047"/>
       <use xlink:href="#DejaVuSans-36" x="95.410156"/>
      </g>
     </g>
    </g>
    <g id="ytick_5">
     <g id="line2d_11">
      <g>
       <use xlink:href="#m52cd174821" x="47.72" y="108.99091" style="stroke: #000000; stroke-width: 0.8"/>
      </g>
     </g>
     <g id="text_12">
      <!-- 0.8 -->
      <g transform="translate(24.816875 112.790129) scale(0.1 -0.1)">
       <use xlink:href="#DejaVuSans-30"/>
       <use xlink:href="#DejaVuSans-2e" x="63.623047"/>
       <use xlink:href="#DejaVuSans-38" x="95.410156"/>
      </g>
     </g>
    </g>
    <g id="ytick_6">
     <g id="line2d_12">
      <g>
       <use xlink:href="#m52cd174821" x="47.72" y="57.156818" style="stroke: #000000; stroke-width: 0.8"/>
      </g>
     </g>
     <g id="text_13">
      <!-- 1.0 -->
      <g transform="translate(24.816875 60.956037) scale(0.1 -0.1)">
       <use xlink:href="#DejaVuSans-31"/>
       <use xlink:href="#DejaVuSans-2e" x="63.623047"/>
       <use xlink:href="#DejaVuSans-30" x="95.410156"/>
      </g>
     </g>
    </g>
    <g id="text_14">
     <!-- Voice recognition Mean Response -->
     <g transform="translate(18.737188 272.493973) rotate(-90) scale(0.1 -0.1)">
      <defs>
       <path id="DejaVuSans-56" d="M 1831 0 
L 50 4666 
L 709 4666 
L 2188 738 
L 3669 4666 
L 4325 4666 
L 2547 0 
L 1831 0 
z
" transform="scale(0.015625)"/>
       <path id="DejaVuSans-69" d="M 603 3500 
L 1178 3500 
L 1178 0 
L 603 0 
L 603 3500 
z
M 603 4863 
L 1178 4863 
L 1178 4134 
L 603 4134 
L 603 4863 
z
" transform="scale(0.015625)"/>
       <path id="DejaVuSans-63" d="M 3122 3366 
L 3122 2828 
Q 2878 2963 2633 3030 
Q 2388 3097 2138 3097 
Q 1578 3097 1268 2742 
Q 959 2388 959 1747 
Q 959 1106 1268 751 
Q 1578 397 2138 397 
Q 2388 397 2633 464 
Q 2878 531 3122 666 
L 3122 134 
Q 2881 22 2623 -34 
Q 2366 -91 2075 -91 
Q 1284 -91 818 406 
Q 353 903 353 1747 
Q 353 2603 823 3093 
Q 1294 3584 2113 3584 
Q 2378 3584 2631 3529 
Q 2884 3475 3122 3366 
z
" transform="scale(0.015625)"/>
       <path id="DejaVuSans-67" d="M 2906 1791 
Q 2906 2416 2648 2759 
Q 2391 3103 1925 3103 
Q 1463 3103 1205 2759 
Q 947 2416 947 1791 
Q 947 1169 1205 825 
Q 1463 481 1925 481 
Q 2391 481 2648 825 
Q 2906 1169 2906 1791 
z
M 3481 434 
Q 3481 -459 3084 -895 
Q 2688 -1331 1869 -1331 
Q 1566 -1331 1297 -1286 
Q 1028 -1241 775 -1147 
L 775 -588 
Q 1028 -725 1275 -790 
Q 1522 -856 1778 -856 
Q 2344 -856 2625 -561 
Q 2906 -266 2906 331 
L 2906 616 
Q 2728 306 2450 153 
Q 2172 0 1784 0 
Q 1141 0 747 490 
Q 353 981 353 1791 
Q 353 2603 747 3093 
Q 1141 3584 1784 3584 
Q 2172 3584 2450 3431 
Q 2728 3278 2906 2969 
L 2906 3500 
L 3481 3500 
L 3481 434 
z
" transform="scale(0.015625)"/>
       <path id="DejaVuSans-52" d="M 2841 2188 
Q 3044 2119 3236 1894 
Q 3428 1669 3622 1275 
L 4263 0 
L 3584 0 
L 2988 1197 
Q 2756 1666 2539 1819 
Q 2322 1972 1947 1972 
L 1259 1972 
L 1259 0 
L 628 0 
L 628 4666 
L 2053 4666 
Q 2853 4666 3247 4331 
Q 3641 3997 3641 3322 
Q 3641 2881 3436 2590 
Q 3231 2300 2841 2188 
z
M 1259 4147 
L 1259 2491 
L 2053 2491 
Q 2509 2491 2742 2702 
Q 2975 2913 2975 3322 
Q 2975 3731 2742 3939 
Q 2509 4147 2053 4147 
L 1259 4147 
z
" transform="scale(0.015625)"/>
       <path id="DejaVuSans-73" d="M 2834 3397 
L 2834 2853 
Q 2591 2978 2328 3040 
Q 2066 3103 1784 3103 
Q 1356 3103 1142 2972 
Q 928 2841 928 2578 
Q 928 2378 1081 2264 
Q 1234 2150 1697 2047 
L 1894 2003 
Q 2506 1872 2764 1633 
Q 3022 1394 3022 966 
Q 3022 478 2636 193 
Q 2250 -91 1575 -91 
Q 1294 -91 989 -36 
Q 684 19 347 128 
L 347 722 
Q 666 556 975 473 
Q 1284 391 1588 391 
Q 1994 391 2212 530 
Q 2431 669 2431 922 
Q 2431 1156 2273 1281 
Q 2116 1406 1581 1522 
L 1381 1569 
Q 847 1681 609 1914 
Q 372 2147 372 2553 
Q 372 3047 722 3315 
Q 1072 3584 1716 3584 
Q 2034 3584 2315 3537 
Q 2597 3491 2834 3397 
z
" transform="scale(0.015625)"/>
      </defs>
      <use xlink:href="#DejaVuSans-56"/>
      <use xlink:href="#DejaVuSans-6f" x="60.658203"/>
      <use xlink:href="#DejaVuSans-69" x="121.839844"/>
      <use xlink:href="#DejaVuSans-63" x="149.623047"/>
      <use xlink:href="#DejaVuSans-65" x="204.603516"/>
      <use xlink:href="#DejaVuSans-20" x="266.126953"/>
      <use xlink:href="#DejaVuSans-72" x="297.914062"/>
      <use xlink:href="#DejaVuSans-65" x="336.777344"/>
      <use xlink:href="#DejaVuSans-63" x="398.300781"/>
      <use xlink:href="#DejaVuSans-6f" x="453.28125"/>
      <use xlink:href="#DejaVuSans-67" x="514.462891"/>
      <use xlink:href="#DejaVuSans-6e" x="577.939453"/>
      <use xlink:href="#DejaVuSans-69" x="641.318359"/>
      <use xlink:href="#DejaVuSans-74" x="669.101562"/>
      <use xlink:href="#DejaVuSans-69" x="708.310547"/>
      <use xlink:href="#DejaVuSans-6f" x="736.09375"/>
      <use xlink:href="#DejaVuSans-6e" x="797.275391"/>
      <use xlink:href="#DejaVuSans-20" x="860.654297"/>
      <use xlink:href="#DejaVuSans-4d" x="892.441406"/>
      <use xlink:href="#DejaVuSans-65" x="978.720703"/>
      <use xlink:href="#DejaVuSans-61" x="1040.244141"/>
      <use xlink:href="#DejaVuSans-6e" x="1101.523438"/>
      <use xlink:href="#DejaVuSans-20" x="1164.902344"/>
      <use xlink:href="#DejaVuSans-52" x="1196.689453"/>
      <use xlink:href="#DejaVuSans-65" x="1261.671875"/>
      <use xlink:href="#DejaVuSans-73" x="1323.195312"/>
      <use xlink:href="#DejaVuSans-70" x="1375.294922"/>
      <use xlink:href="#DejaVuSans-6f" x="1438.771484"/>
      <use xlink:href="#DejaVuSans-6e" x="1499.953125"/>
      <use xlink:href="#DejaVuSans-73" x="1563.332031"/>
      <use xlink:href="#DejaVuSans-65" x="1615.431641"/>
     </g>
    </g>
   </g>
   <g id="line2d_13">
    <path d="M 77.787273 126.268941 
L 80.197475 128.412005 
L 82.607677 130.292115 
L 85.017879 131.920252 
L 87.428082 133.307396 
L 89.838284 134.464524 
L 92.248486 135.402617 
L 94.658688 136.132653 
L 97.068891 136.665612 
L 99.479093 137.012474 
L 101.889295 137.184216 
L 104.299497 137.191819 
L 107.914801 136.91948 
L 111.530104 136.339584 
L 115.145407 135.489188 
L 118.760711 134.405346 
L 123.581115 132.661131 
L 128.401519 130.65561 
L 135.632126 127.349517 
L 147.683137 121.777147 
L 152.503542 119.782605 
L 157.323946 118.053761 
L 160.939249 116.984329 
L 164.554553 116.150814 
L 168.169856 115.590269 
L 171.785159 115.33975 
L 174.195362 115.363273 
L 176.605564 115.552034 
L 179.015766 115.917011 
L 181.425968 116.469184 
L 183.836171 117.219532 
L 186.246373 118.179034 
L 188.656575 119.35867 
L 191.066777 120.769418 
L 193.476979 122.422259 
L 195.887182 124.328171 
L 198.297384 126.498127 
L 200.707586 128.935915 
L 203.117788 131.623959 
L 206.733092 136.078177 
L 210.348395 140.97441 
L 213.963698 146.240018 
L 218.784103 153.709866 
L 224.809608 163.526715 
L 239.270822 187.34018 
L 244.091226 194.754753 
L 247.706529 199.965086 
L 251.321833 204.794199 
L 254.937136 209.169453 
L 257.347338 211.798274 
L 259.757541 214.173247 
L 262.167743 216.295202 
L 264.577945 218.178916 
L 266.988147 219.839426 
L 269.398349 221.291772 
L 271.808552 222.55099 
L 274.218754 223.63212 
L 277.834057 224.952794 
L 281.449361 225.957357 
L 285.064664 226.696563 
L 288.679967 227.221166 
L 293.500372 227.674532 
L 300.730978 228.071582 
L 307.961585 228.489949 
L 312.781989 228.98121 
L 316.397293 229.54667 
L 320.012596 230.336231 
L 323.627899 231.368111 
L 327.243203 232.626303 
L 330.858506 234.093066 
L 335.678911 236.342533 
L 340.499315 238.889206 
L 345.319719 241.691033 
L 351.345225 245.488067 
L 358.575832 250.368397 
L 368.216641 257.192104 
L 382.677854 267.426855 
L 391.113562 273.104902 
L 399.549269 278.505999 
L 406.779876 282.892733 
L 414.010483 287.035769 
L 421.241089 290.91654 
L 428.471696 294.51648 
L 434.497202 297.288512 
L 440.522707 299.841994 
L 446.548213 302.173482 
L 452.573718 304.29108 
L 458.599224 306.203938 
L 465.829831 308.24199 
L 473.060437 310.014197 
L 480.291044 311.536365 
L 487.521651 312.824304 
L 494.752257 313.893821 
L 501.982864 314.760724 
L 510.418572 315.537118 
L 518.854279 316.084352 
L 528.495088 316.461356 
L 538.135897 316.609306 
L 548.981807 316.548611 
L 561.032818 316.261679 
L 576.699133 315.65996 
L 616.467469 314.00827 
L 628.518481 313.766277 
L 639.364391 313.75975 
L 649.005199 313.966762 
L 658.646008 314.4131 
L 667.081716 315.029427 
L 675.517424 315.882779 
L 679.132727 316.327281 
L 679.132727 316.327281 
" clip-path="url(#p16a626f3d9)" style="fill: none; stroke: #0000ff; stroke-width: 1.5; stroke-linecap: square"/>
   </g>
   <g id="line2d_14">
    <path d="M 77.787273 74.434849 
L 80.197475 71.550727 
L 82.607677 68.994432 
L 85.017879 66.754594 
L 87.428082 64.819843 
L 89.838284 63.178808 
L 92.248486 61.82012 
L 94.658688 60.732408 
L 97.068891 59.904302 
L 99.479093 59.324431 
L 101.889295 58.981427 
L 104.299497 58.863918 
L 106.709699 58.960534 
L 109.119902 59.259905 
L 111.530104 59.750662 
L 113.940306 60.421433 
L 116.350508 61.260849 
L 119.965812 62.81131 
L 123.581115 64.677263 
L 127.196418 66.820336 
L 130.811722 69.202154 
L 135.632126 72.682966 
L 141.657632 77.396332 
L 150.093339 84.353071 
L 159.734148 92.246587 
L 164.554553 95.954495 
L 169.374957 99.381888 
L 172.990261 101.713625 
L 176.605564 103.798033 
L 180.220867 105.596736 
L 183.836171 107.07136 
L 186.246373 107.85545 
L 188.656575 108.467079 
L 191.066777 108.894877 
L 193.476979 109.127475 
L 195.887182 109.153502 
L 198.297384 108.961594 
L 200.707586 108.548093 
L 203.117788 107.932243 
L 205.527991 107.137521 
L 209.143294 105.661409 
L 212.758597 103.914894 
L 217.579002 101.302531 
L 230.835114 93.899514 
L 234.450417 92.194525 
L 238.065721 90.773782 
L 240.475923 90.023662 
L 242.886125 89.458566 
L 245.296327 89.101972 
L 247.706529 88.977356 
L 250.116732 89.108195 
L 252.526934 89.517968 
L 254.937136 90.23015 
L 257.347338 91.26822 
L 259.757541 92.653551 
L 262.167743 94.381532 
L 264.577945 96.430025 
L 266.988147 98.776566 
L 269.398349 101.398687 
L 271.808552 104.273922 
L 275.423855 109.012222 
L 279.039158 114.193658 
L 282.654462 119.742409 
L 287.474866 127.581072 
L 293.500372 137.834327 
L 305.551383 158.523344 
L 310.371787 166.369093 
L 313.987091 171.925117 
L 317.602394 177.115505 
L 321.217697 181.874645 
L 324.833001 186.212391 
L 328.448304 190.172419 
L 332.063607 193.798568 
L 335.678911 197.134673 
L 339.294214 200.224572 
L 344.114618 204.037217 
L 350.140124 208.455399 
L 368.216641 221.340759 
L 373.037045 225.176898 
L 376.652348 228.289558 
L 380.267652 231.65125 
L 383.882955 235.267922 
L 388.703359 240.434031 
L 393.523764 245.923738 
L 399.549269 253.125581 
L 409.190078 265.085019 
L 420.035988 278.517818 
L 426.061494 285.666957 
L 430.881898 291.097252 
L 435.702303 296.188617 
L 439.317606 299.739221 
L 442.932909 303.035842 
L 446.548213 306.082442 
L 450.163516 308.88633 
L 453.778819 311.454815 
L 457.394123 313.795209 
L 461.009426 315.914821 
L 464.624729 317.820962 
L 468.240033 319.520941 
L 471.855336 321.022068 
L 475.470639 322.331654 
L 479.085943 323.457008 
L 483.906347 324.683533 
L 488.726752 325.612859 
L 493.547156 326.262312 
L 498.367561 326.649222 
L 503.187965 326.790915 
L 508.008369 326.704719 
L 512.828774 326.407961 
L 517.649178 325.91797 
L 523.674684 325.060142 
L 529.700189 323.961304 
L 535.725695 322.655298 
L 542.956302 320.86228 
L 551.392009 318.532993 
L 563.443021 314.938319 
L 582.724638 309.15264 
L 591.160346 306.847912 
L 598.390953 305.084238 
L 604.416458 303.808532 
L 610.441964 302.745311 
L 616.467469 301.928416 
L 621.287874 301.474998 
L 626.108278 301.218216 
L 630.928683 301.175397 
L 635.749087 301.36387 
L 640.569492 301.800962 
L 645.389896 302.504 
L 650.210301 303.490312 
L 653.825604 304.426369 
L 657.440907 305.538823 
L 661.056211 306.834986 
L 664.671514 308.322168 
L 668.286817 310.007678 
L 671.902121 311.898827 
L 675.517424 314.002925 
L 679.132727 316.327281 
L 679.132727 316.327281 
" clip-path="url(#p16a626f3d9)" style="fill: none; stroke: #ff0000; stroke-width: 1.5; stroke-linecap: square"/>
   </g>
   <g id="patch_3">
    <path d="M 47.72 350.409509 
L 47.72 26.88 
" style="fill: none; stroke: #000000; stroke-width: 0.8; stroke-linejoin: miter; stroke-linecap: square"/>
   </g>
   <g id="patch_4">
    <path d="M 709.2 350.409509 
L 709.2 26.88 
" style="fill: none; stroke: #000000; stroke-width: 0.8; stroke-linejoin: miter; stroke-linecap: square"/>
   </g>
   <g id="patch_5">
    <path d="M 47.72 350.409509 
L 709.2 350.409509 
" style="fill: none; stroke: #000000; stroke-width: 0.8; stroke-linejoin: miter; stroke-linecap: square"/>
   </g>
   <g id="patch_6">
    <path d="M 47.72 26.88 
L 709.2 26.88 
" style="fill: none; stroke: #000000; stroke-width: 0.8; stroke-linejoin: miter; stroke-linecap: square"/>
   </g>
   <g id="text_15">
    <!-- Voice recognition by Location (central vs external) VP21 -->
    <g transform="translate(210.278125 20.88) scale(0.12 -0.12)">
     <defs>
      <path id="DejaVuSans-62" d="M 3116 1747 
Q 3116 2381 2855 2742 
Q 2594 3103 2138 3103 
Q 1681 3103 1420 2742 
Q 1159 2381 1159 1747 
Q 1159 1113 1420 752 
Q 1681 391 2138 391 
Q 2594 391 2855 752 
Q 3116 1113 3116 1747 
z
M 1159 2969 
Q 1341 3281 1617 3432 
Q 1894 3584 2278 3584 
Q 2916 3584 3314 3078 
Q 3713 2572 3713 1747 
Q 3713 922 3314 415 
Q 2916 -91 2278 -91 
Q 1894 -91 1617 61 
Q 1341 213 1159 525 
L 1159 0 
L 581 0 
L 581 4863 
L 1159 4863 
L 1159 2969 
z
" transform="scale(0.015625)"/>
      <path id="DejaVuSans-4c" d="M 628 4666 
L 1259 4666 
L 1259 531 
L 3531 531 
L 3531 0 
L 628 0 
L 628 4666 
z
" transform="scale(0.015625)"/>
      <path id="DejaVuSans-28" d="M 1984 4856 
Q 1566 4138 1362 3434 
Q 1159 2731 1159 2009 
Q 1159 1288 1364 580 
Q 1569 -128 1984 -844 
L 1484 -844 
Q 1016 -109 783 600 
Q 550 1309 550 2009 
Q 550 2706 781 3412 
Q 1013 4119 1484 4856 
L 1984 4856 
z
" transform="scale(0.015625)"/>
      <path id="DejaVuSans-76" d="M 191 3500 
L 800 3500 
L 1894 563 
L 2988 3500 
L 3597 3500 
L 2284 0 
L 1503 0 
L 191 3500 
z
" transform="scale(0.015625)"/>
      <path id="DejaVuSans-78" d="M 3513 3500 
L 2247 1797 
L 3578 0 
L 2900 0 
L 1881 1375 
L 863 0 
L 184 0 
L 1544 1831 
L 300 3500 
L 978 3500 
L 1906 2253 
L 2834 3500 
L 3513 3500 
z
" transform="scale(0.015625)"/>
      <path id="DejaVuSans-29" d="M 513 4856 
L 1013 4856 
Q 1481 4119 1714 3412 
Q 1947 2706 1947 2009 
Q 1947 1309 1714 600 
Q 1481 -109 1013 -844 
L 513 -844 
Q 928 -128 1133 580 
Q 1338 1288 1338 2009 
Q 1338 2731 1133 3434 
Q 928 4138 513 4856 
z
" transform="scale(0.015625)"/>
      <path id="DejaVuSans-50" d="M 1259 4147 
L 1259 2394 
L 2053 2394 
Q 2494 2394 2734 2622 
Q 2975 2850 2975 3272 
Q 2975 3691 2734 3919 
Q 2494 4147 2053 4147 
L 1259 4147 
z
M 628 4666 
L 2053 4666 
Q 2838 4666 3239 4311 
Q 3641 3956 3641 3272 
Q 3641 2581 3239 2228 
Q 2838 1875 2053 1875 
L 1259 1875 
L 1259 0 
L 628 0 
L 628 4666 
z
" transform="scale(0.015625)"/>
     </defs>
     <use xlink:href="#DejaVuSans-56"/>
     <use xlink:href="#DejaVuSans-6f" x="60.658203"/>
     <use xlink:href="#DejaVuSans-69" x="121.839844"/>
     <use xlink:href="#DejaVuSans-63" x="149.623047"/>
     <use xlink:href="#DejaVuSans-65" x="204.603516"/>
     <use xlink:href="#DejaVuSans-20" x="266.126953"/>
     <use xlink:href="#DejaVuSans-72" x="297.914062"/>
     <use xlink:href="#DejaVuSans-65" x="336.777344"/>
     <use xlink:href="#DejaVuSans-63" x="398.300781"/>
     <use xlink:href="#DejaVuSans-6f" x="453.28125"/>
     <use xlink:href="#DejaVuSans-67" x="514.462891"/>
     <use xlink:href="#DejaVuSans-6e" x="577.939453"/>
     <use xlink:href="#DejaVuSans-69" x="641.318359"/>
     <use xlink:href="#DejaVuSans-74" x="669.101562"/>
     <use xlink:href="#DejaVuSans-69" x="708.310547"/>
     <use xlink:href="#DejaVuSans-6f" x="736.09375"/>
     <use xlink:href="#DejaVuSans-6e" x="797.275391"/>
     <use xlink:href="#DejaVuSans-20" x="860.654297"/>
     <use xlink:href="#DejaVuSans-62" x="892.441406"/>
     <use xlink:href="#DejaVuSans-79" x="955.917969"/>
     <use xlink:href="#DejaVuSans-20" x="1015.097656"/>
     <use xlink:href="#DejaVuSans-4c" x="1046.884766"/>
     <use xlink:href="#DejaVuSans-6f" x="1100.847656"/>
     <use xlink:href="#DejaVuSans-63" x="1162.029297"/>
     <use xlink:href="#DejaVuSans-61" x="1217.009766"/>
     <use xlink:href="#DejaVuSans-74" x="1278.289062"/>
     <use xlink:href="#DejaVuSans-69" x="1317.498047"/>
     <use xlink:href="#DejaVuSans-6f" x="1345.28125"/>
     <use xlink:href="#DejaVuSans-6e" x="1406.462891"/>
     <use xlink:href="#DejaVuSans-20" x="1469.841797"/>
     <use xlink:href="#DejaVuSans-28" x="1501.628906"/>
     <use xlink:href="#DejaVuSans-63" x="1540.642578"/>
     <use xlink:href="#DejaVuSans-65" x="1595.623047"/>
     <use xlink:href="#DejaVuSans-6e" x="1657.146484"/>
     <use xlink:href="#DejaVuSans-74" x="1720.525391"/>
     <use xlink:href="#DejaVuSans-72" x="1759.734375"/>
     <use xlink:href="#DejaVuSans-61" x="1800.847656"/>
     <use xlink:href="#DejaVuSans-6c" x="1862.126953"/>
     <use xlink:href="#DejaVuSans-20" x="1889.910156"/>
     <use xlink:href="#DejaVuSans-76" x="1921.697266"/>
     <use xlink:href="#DejaVuSans-73" x="1980.876953"/>
     <use xlink:href="#DejaVuSans-20" x="2032.976562"/>
     <use xlink:href="#DejaVuSans-65" x="2064.763672"/>
     <use xlink:href="#DejaVuSans-78" x="2124.537109"/>
     <use xlink:href="#DejaVuSans-74" x="2183.716797"/>
     <use xlink:href="#DejaVuSans-65" x="2222.925781"/>
     <use xlink:href="#DejaVuSans-72" x="2284.449219"/>
     <use xlink:href="#DejaVuSans-6e" x="2323.8125"/>
     <use xlink:href="#DejaVuSans-61" x="2387.191406"/>
     <use xlink:href="#DejaVuSans-6c" x="2448.470703"/>
     <use xlink:href="#DejaVuSans-29" x="2476.253906"/>
     <use xlink:href="#DejaVuSans-20" x="2515.267578"/>
     <use xlink:href="#DejaVuSans-56" x="2547.054688"/>
     <use xlink:href="#DejaVuSans-50" x="2615.462891"/>
     <use xlink:href="#DejaVuSans-32" x="2675.765625"/>
     <use xlink:href="#DejaVuSans-31" x="2739.388672"/>
    </g>
   </g>
   <g id="legend_1">
    <g id="patch_7">
     <path d="M 629.05 64.23625 
L 702.2 64.23625 
Q 704.2 64.23625 704.2 62.23625 
L 704.2 33.88 
Q 704.2 31.88 702.2 31.88 
L 629.05 31.88 
Q 627.05 31.88 627.05 33.88 
L 627.05 62.23625 
Q 627.05 64.23625 629.05 64.23625 
z
" style="fill: #ffffff; opacity: 0.8; stroke: #cccccc; stroke-linejoin: miter"/>
    </g>
    <g id="line2d_15">
     <path d="M 631.05 39.978437 
L 641.05 39.978437 
L 651.05 39.978437 
" style="fill: none; stroke: #0000ff; stroke-width: 1.5; stroke-linecap: square"/>
    </g>
    <g id="text_16">
     <!-- central -->
     <g transform="translate(659.05 43.478437) scale(0.1 -0.1)">
      <use xlink:href="#DejaVuSans-63"/>
      <use xlink:href="#DejaVuSans-65" x="54.980469"/>
      <use xlink:href="#DejaVuSans-6e" x="116.503906"/>
      <use xlink:href="#DejaVuSans-74" x="179.882812"/>
      <use xlink:href="#DejaVuSans-72" x="219.091797"/>
      <use xlink:href="#DejaVuSans-61" x="260.205078"/>
      <use xlink:href="#DejaVuSans-6c" x="321.484375"/>
     </g>
    </g>
    <g id="line2d_16">
     <path d="M 631.05 54.656563 
L 641.05 54.656563 
L 651.05 54.656563 
" style="fill: none; stroke: #ff0000; stroke-width: 1.5; stroke-linecap: square"/>
    </g>
    <g id="text_17">
     <!-- external -->
     <g transform="translate(659.05 58.156563) scale(0.1 -0.1)">
      <use xlink:href="#DejaVuSans-65"/>
      <use xlink:href="#DejaVuSans-78" x="59.773438"/>
      <use xlink:href="#DejaVuSans-74" x="118.953125"/>
      <use xlink:href="#DejaVuSans-65" x="158.162109"/>
      <use xlink:href="#DejaVuSans-72" x="219.685547"/>
      <use xlink:href="#DejaVuSans-6e" x="259.048828"/>
      <use xlink:href="#DejaVuSans-61" x="322.427734"/>
      <use xlink:href="#DejaVuSans-6c" x="383.707031"/>
     </g>
    </g>
   </g>
  </g>
 </g>
 <defs>
  <clipPath id="p16a626f3d9">
   <rect x="47.72" y="26.88" width="661.48" height="323.529509"/>
  </clipPath>
 </defs>
</svg>
